<svg viewBox="0 0 25 25" fill="none" xmlns="http://www.w3.org/2000/svg">
<path d="M12.5 0C5.60748 0 0 5.60748 0 12.5C0 19.3925 5.60748 25 12.5 25C19.3925 25 25 19.3925 25 12.5C25 5.60748 19.3925 0 12.5 0ZM12.5 23.8318C6.25164 23.8318 1.16822 18.7484 1.16822 12.5C1.16822 6.25164 6.25164 1.16822 12.5 1.16822C18.7484 1.16822 23.8318 6.25164 23.8318 12.5C23.8318 18.7484 18.7484 23.8318 12.5 23.8318Z" fill="#555555"/>
<path d="M20.1498 16.4952C20.1498 17.2517 19.9255 17.9912 19.5052 18.6203C19.0849 19.2493 18.4875 19.7395 17.7886 20.029C17.0896 20.3185 16.3206 20.3943 15.5786 20.2467C14.8366 20.0991 14.1551 19.7348 13.6201 19.1999C13.0852 18.6649 12.7209 17.9834 12.5733 17.2414C12.4257 16.4994 12.5015 15.7304 12.791 15.0314C13.0805 14.3325 13.5707 13.7351 14.1997 13.3148C14.8288 12.8945 15.5683 12.6702 16.3248 12.6702C16.8274 12.6691 17.3253 12.7672 17.7899 12.9591C18.2545 13.1509 18.6766 13.4326 19.032 13.788C19.3874 14.1434 19.6691 14.5655 19.8609 15.0301C20.0528 15.4947 20.1509 15.9926 20.1498 16.4952ZM16.7498 14.7952C16.7498 14.6825 16.705 14.5744 16.6253 14.4947C16.5456 14.415 16.4375 14.3702 16.3248 14.3702C16.2121 14.3702 16.104 14.415 16.0243 14.4947C15.9446 14.5744 15.8998 14.6825 15.8998 14.7952V16.0702H14.5908C14.4781 16.0702 14.37 16.115 14.2903 16.1947C14.2106 16.2744 14.1658 16.3825 14.1658 16.4952C14.1658 16.6079 14.2106 16.716 14.2903 16.7957C14.37 16.8754 14.4781 16.9202 14.5908 16.9202H15.8998V18.1952C15.8998 18.3079 15.9446 18.416 16.0243 18.4957C16.104 18.5754 16.2121 18.6202 16.3248 18.6202C16.4375 18.6202 16.5456 18.5754 16.6253 18.4957C16.705 18.416 16.7498 18.3079 16.7498 18.1952V16.9202H18.0248C18.1375 16.9202 18.2456 16.8754 18.3253 16.7957C18.405 16.716 18.4498 16.6079 18.4498 16.4952C18.4498 16.3825 18.405 16.2744 18.3253 16.1947C18.2456 16.115 18.1375 16.0702 18.0248 16.0702H16.7498V14.7952ZM17.5318 6.7032H15.8998V6.1252C15.8998 6.01248 15.855 5.90438 15.7753 5.82467C15.6956 5.74497 15.5875 5.7002 15.4748 5.7002C15.3621 5.7002 15.254 5.74497 15.1743 5.82467C15.0946 5.90438 15.0498 6.01248 15.0498 6.1252V6.7032H9.9498V6.1252C9.9498 6.01248 9.90503 5.90438 9.82532 5.82467C9.74562 5.74497 9.63752 5.7002 9.5248 5.7002C9.41209 5.7002 9.30399 5.74497 9.22428 5.82467C9.14458 5.90438 9.0998 6.01248 9.0998 6.1252V6.7032H7.4763C7.23058 6.7032 6.99492 6.80081 6.82117 6.97456C6.64742 7.14831 6.5498 7.38397 6.5498 7.6297V17.6767C6.5498 17.9224 6.64742 18.1581 6.82117 18.3318C6.99492 18.5056 7.23058 18.6032 7.4763 18.6032H12.1258C11.9819 18.3341 11.8706 18.0487 11.7943 17.7532H7.4763C7.45602 17.7532 7.43656 17.7451 7.42221 17.7308C7.40786 17.7164 7.3998 17.697 7.3998 17.6767V10.5707H17.5998V12.0072C17.8969 12.0827 18.1827 12.197 18.4498 12.3472V7.6297C18.4499 7.50585 18.4251 7.38325 18.3769 7.26915C18.3288 7.15505 18.2582 7.05175 18.1695 6.96538C18.0807 6.879 17.9756 6.8113 17.8602 6.76626C17.7448 6.72123 17.6216 6.69979 17.4978 6.7032H17.5318ZM7.3998 9.7207V7.6297C7.3998 7.60941 7.40786 7.58995 7.42221 7.5756C7.43656 7.56125 7.45602 7.5532 7.4763 7.5532H9.0998V8.1312C9.0998 8.24391 9.14458 8.35201 9.22428 8.43172C9.30399 8.51142 9.41209 8.5562 9.5248 8.5562C9.63752 8.5562 9.74562 8.51142 9.82532 8.43172C9.90503 8.35201 9.9498 8.24391 9.9498 8.1312V7.5532H15.0498V8.1312C15.0498 8.24391 15.0946 8.35201 15.1743 8.43172C15.254 8.51142 15.3621 8.5562 15.4748 8.5562C15.5875 8.5562 15.6956 8.51142 15.7753 8.43172C15.855 8.35201 15.8998 8.24391 15.8998 8.1312V7.5532H17.4808C17.5011 7.5532 17.5206 7.56125 17.5349 7.5756C17.5492 7.58995 17.5573 7.60941 17.5573 7.6297V9.7207H7.3998Z" fill="#555555"/>
</svg>
