<svg id="Layer_1" data-name="Layer 1" xmlns="http://www.w3.org/2000/svg" viewBox="0 0 400 400"><path d="M87.49,195H219.41a8.51,8.51,0,0,0,0-17H87.49a8.51,8.51,0,1,0,0,17Z"/><path d="M166.47,233.27h-79a8.51,8.51,0,1,0,0,17h79a8.51,8.51,0,0,0,0-17Z"/><path d="M314.21,214.38V67.32a42.56,42.56,0,0,0-42.55-42.55h-34.9V8.51a8.51,8.51,0,1,0-17,0V24.77H104V8.51a8.51,8.51,0,0,0-17,0V24.77H52.09A42.57,42.57,0,0,0,9.53,67.32V297.87a42.58,42.58,0,0,0,42.56,42.55H209.62a93.63,93.63,0,1,0,104.59-126ZM52.17,41.79h34.9V58a8.51,8.51,0,0,0,17,0V41.79H219.83V58a8.51,8.51,0,1,0,17,0V41.79h34.89a25.61,25.61,0,0,1,25.54,25.53V87.91H26.64V67.32A25.55,25.55,0,0,1,52.17,41.79Zm0,281.61a25.61,25.61,0,0,1-25.53-25.53v-193H297.19V212.76h-.26A93.76,93.76,0,0,0,204.85,323.4ZM296.93,383a76.6,76.6,0,1,1,76.6-76.59A76.59,76.59,0,0,1,296.93,383Z"/><path d="M336.34,275.82l-50.55,48.26-26.13-26.21a8.49,8.49,0,0,0-12,12L279.74,342a8.37,8.37,0,0,0,6.05,2.47,8.23,8.23,0,0,0,5.87-2.39l56.51-54a8.46,8.46,0,0,0,.25-12A8.66,8.66,0,0,0,336.34,275.82Z"/></svg>