<svg xmlns="http://www.w3.org/2000/svg" viewBox="0 0 100 63.03"><defs><style>.cls-1{fill:#010101;}</style></defs><g id="Layer_2" data-name="Layer 2"><g id="arrow"><path id="arrow_down" class="cls-1" d="M97.62,7.19,92.81,2.37A8.22,8.22,0,0,0,87,0a7.89,7.89,0,0,0-5.78,2.37L50,33.57,18.81,2.38A7.86,7.86,0,0,0,13,0,8.19,8.19,0,0,0,7.19,2.38L2.44,7.19A7.94,7.94,0,0,0,0,13a7.62,7.62,0,0,0,2.44,5.78L44.22,60.59A7.62,7.62,0,0,0,50,63a7.94,7.94,0,0,0,5.84-2.44L97.62,18.81A7.86,7.86,0,0,0,100,13,8.19,8.19,0,0,0,97.62,7.19Z"/></g></g></svg>