<svg xmlns="http://www.w3.org/2000/svg" viewBox="0 0 16 15.25"><defs><style>.cls-1{fill:#a34041;}</style></defs><g id="Layer_2" data-name="Layer 2"><g id="Layer_1-2" data-name="Layer 1"><path class="cls-1" d="M4.53,7.59A.59.59,0,0,0,4,8.2v3.47a.59.59,0,0,0,.57.61.58.58,0,0,0,.56-.61V8.19A.58.58,0,0,0,4.53,7.59Z"/><path class="cls-1" d="M7,7.59a.59.59,0,0,0-.57.61v3.47a.57.57,0,1,0,1.13,0V8.19A.58.58,0,0,0,7,7.59Z"/><path class="cls-1" d="M10,8.17a.57.57,0,1,0-1.13,0v3.47a.59.59,0,0,0,.57.61.58.58,0,0,0,.56-.61Z"/><path class="cls-1" d="M11.14,13.4a.63.63,0,0,1-.57.61H3.35a.63.63,0,0,1-.57-.61L2.2,7.94a.59.59,0,0,0-.57-.54H1.12V5.86h9.43V5.33H7.2l.55-.71H3.42V3.75a1.9,1.9,0,0,1,1.73-2H8.79a1.5,1.5,0,0,1,1,.34l.72-.92A2.63,2.63,0,0,0,8.78.5H5.15A3.09,3.09,0,0,0,2.28,3.76v.87H.57A.59.59,0,0,0,0,5.24V8a.59.59,0,0,0,.57.61h.57l.52,4.93a1.79,1.79,0,0,0,1.69,1.69h7.22a1.77,1.77,0,0,0,1.69-1.7L12.64,10H11.5Z"/><polygon class="cls-1" points="12.62 0 11.14 1.91 10.36 2.9 9.25 4.33 10.53 4.33 11.55 4.33 11.55 5.86 11.55 9 11.61 9 12.74 9 13.7 9 13.7 8.49 13.7 4.75 13.7 4.33 16 4.33 12.62 0"/></g></g></svg>