<svg id="Capa_1" data-name="Capa 1" xmlns="http://www.w3.org/2000/svg" viewBox="0 0 400 400"><rect y="386.67" width="400" height="13.33"/><path d="M26.67,373.33H93.33a6.67,6.67,0,0,0,6.67-6.66v-120A6.67,6.67,0,0,0,93.33,240H26.67A6.67,6.67,0,0,0,20,246.67v120A6.67,6.67,0,0,0,26.67,373.33Zm6.66-120H86.67V360H33.33Z"/><path d="M213.33,373.33H280a6.67,6.67,0,0,0,6.67-6.66v-200A6.67,6.67,0,0,0,280,160H213.33a6.66,6.66,0,0,0-6.66,6.67v200A6.66,6.66,0,0,0,213.33,373.33Zm6.67-200h53.33V360H220Z"/><path d="M120,373.33h66.67a6.66,6.66,0,0,0,6.66-6.66v-280A6.66,6.66,0,0,0,186.67,80H120a6.67,6.67,0,0,0-6.67,6.67v280A6.67,6.67,0,0,0,120,373.33Zm6.67-280H180V360H126.67Z"/><path d="M306.67,373.33h66.66a6.67,6.67,0,0,0,6.67-6.66V6.67A6.67,6.67,0,0,0,373.33,0H306.67A6.67,6.67,0,0,0,300,6.67v360A6.67,6.67,0,0,0,306.67,373.33Zm6.66-360h53.34V360H313.33Z"/></svg>