<svg width="24" height="24" viewBox="0 0 24 24" fill="none" xmlns="http://www.w3.org/2000/svg">
<path d="M20.7233 16.4935C20.1655 15.536 19.5005 13.7189 19.5005 10.5V9.83478C19.5005 5.68305 16.1614 2.28058 12.0572 2.25019C12.038 2.25009 12.019 2.25 11.9999 2.25C10.0109 2.25013 8.10335 3.04036 6.69694 4.44688C5.29054 5.85339 4.50044 7.76097 4.50046 9.75V10.5C4.50046 13.7185 3.83515 15.5357 3.27704 16.4931C3.14383 16.721 3.07311 16.98 3.07203 17.244C3.07096 17.5079 3.13956 17.7675 3.27091 17.9965C3.40227 18.2254 3.59172 18.4157 3.82013 18.548C4.04854 18.6803 4.30782 18.75 4.57178 18.75H19.4284C19.6923 18.75 19.9516 18.6803 20.18 18.548C20.4084 18.4158 20.5978 18.2256 20.7292 17.9967C20.8605 17.7677 20.9292 17.5082 20.9282 17.2443C20.9271 16.9804 20.8565 16.7214 20.7233 16.4935H20.7233Z" fill="#49454F"/>
<path d="M14.9934 20.25H8.99341C8.7945 20.25 8.60373 20.329 8.46308 20.4697C8.32243 20.6103 8.24341 20.8011 8.24341 21C8.24341 21.1989 8.32243 21.3897 8.46308 21.5303C8.60373 21.671 8.7945 21.75 8.99341 21.75H14.9934C15.1923 21.75 15.3831 21.671 15.5237 21.5303C15.6644 21.3897 15.7434 21.1989 15.7434 21C15.7434 20.8011 15.6644 20.6103 15.5237 20.4697C15.3831 20.329 15.1923 20.25 14.9934 20.25Z" fill="#49454F"/>
</svg>
