<svg id="Capa_1" data-name="Capa 1" xmlns="http://www.w3.org/2000/svg" viewBox="0 0 400 400"><path d="M355.27,0H121.6A24.28,24.28,0,0,0,97.34,24.25V78.52a106,106,0,0,0,0,203.85v93.38A24.28,24.28,0,0,0,121.6,400h191a8.54,8.54,0,0,0,6-2.5L377,339.07a8.54,8.54,0,0,0,2.5-6V24.25A24.28,24.28,0,0,0,355.27,0ZM121.6,17.08H355.27a7.18,7.18,0,0,1,7.17,7.17V50h-248V24.25A7.18,7.18,0,0,1,121.6,17.08Zm-84,163.37a88.91,88.91,0,1,1,88.91,88.91A89,89,0,0,1,37.56,180.45Zm76.87,195.3v-90A105.78,105.78,0,0,0,206.35,250h52.34a8.54,8.54,0,1,0,0-17.08H218.52a105.22,105.22,0,0,0,13.54-43.31h26.63a8.55,8.55,0,0,0,0-17.09H232.17a105.22,105.22,0,0,0-12.93-43.31h39.45a8.54,8.54,0,1,0,0-17.08H207.46a105.78,105.78,0,0,0-93-37v-8h248V324.49H328.26A24.28,24.28,0,0,0,304,348.74v34.17H121.6A7.17,7.17,0,0,1,114.43,375.75Zm206.67-4.92V348.74a7.17,7.17,0,0,1,7.16-7.17h22.1Z"/><path d="M292.25,129.24h28.37a8.54,8.54,0,1,0,0-17.08H292.25a8.54,8.54,0,0,0,0,17.08Z"/><path d="M292.25,189.64h28.37a8.55,8.55,0,0,0,0-17.09H292.25a8.55,8.55,0,0,0,0,17.09Z"/><path d="M292.25,250h28.37a8.54,8.54,0,1,0,0-17.08H292.25a8.54,8.54,0,0,0,0,17.08Z"/><path d="M320.62,310.43a8.54,8.54,0,1,0,0-17.08H240.71a8.54,8.54,0,1,0,0,17.08Z"/><path d="M171.19,159.42a4.54,4.54,0,0,0,0-6.42l-7.75-7.75a4.54,4.54,0,0,0-6.42,0L116.36,185.9l-4.6,4.61-4.6-4.61L95.92,174.67a4.54,4.54,0,0,0-6.42,0l-7.76,7.75a4.54,4.54,0,0,0,0,6.42l26.8,26.8a4.53,4.53,0,0,0,6.42,0Z"/></svg>