<svg xmlns="http://www.w3.org/2000/svg" viewBox="0 0 100 100"><defs><style>.cls-1{fill:#231f20;}</style></defs><g id="document"><path id="blank_doc_lineal" class="cls-1" d="M82,29.69a15.14,15.14,0,0,0-3.12-5L58.6,4.43a15.21,15.21,0,0,0-5-3.13A15,15,0,0,0,47.92,0H6.25A6.05,6.05,0,0,0,1.82,1.82,6.05,6.05,0,0,0,0,6.25v87.5a6.05,6.05,0,0,0,1.82,4.43A6.05,6.05,0,0,0,6.25,100H77.08a6.21,6.21,0,0,0,6.25-6.25V35.42A14.78,14.78,0,0,0,82,29.69ZM50,8.85a7.19,7.19,0,0,1,2.67,1.44L73.05,30.66a7.22,7.22,0,0,1,1.43,2.67H50ZM75,91.67H8.33V8.33H41.67V35.42a6.23,6.23,0,0,0,6.25,6.25H75Z"/></g></svg>