<svg xmlns="http://www.w3.org/2000/svg" viewBox="0 0 100 100"><defs><style>.cls-1{fill:#231f20;}</style></defs><g id="business"><path id="business_lineal" class="cls-1" d="M98.37,13.43a5.77,5.77,0,0,0-3.75-1.34H73.88L72.65,6.93a8.63,8.63,0,0,0-3.52-5A11,11,0,0,0,62.88,0H37.12a11,11,0,0,0-6.25,1.92,8.63,8.63,0,0,0-3.52,5l-1.23,5.16H5.38a5.77,5.77,0,0,0-3.75,1.34A4.55,4.55,0,0,0,0,16.85V66.41a4.54,4.54,0,0,0,1.63,3.41,5.72,5.72,0,0,0,3.75,1.34H94.62a5.67,5.67,0,0,0,3.74-1.34A4.52,4.52,0,0,0,100,66.4V16.84A4.54,4.54,0,0,0,98.37,13.43ZM69.13,12.09H30.87l1-4.24a4.41,4.41,0,0,1,1.81-2.54,6,6,0,0,1,3.43-1H62.88a6,6,0,0,1,3.43,1,4.41,4.41,0,0,1,1.81,2.54Zm.86,37V43.5h5.12v5.57Zm-45.1,0V43.5H30v5.57ZM16.11,43.5h4.14v5.73a3.91,3.91,0,0,0,1.41,3,4.91,4.91,0,0,0,3.21,1.15H30a4.93,4.93,0,0,0,3.21-1.15,3.93,3.93,0,0,0,1.41-3V43.5H65.34v5.73a4,4,0,0,0,1.41,3A5,5,0,0,0,70,53.33h5.17a4.91,4.91,0,0,0,3.21-1.15,3.93,3.93,0,0,0,1.41-3V43.5h4.14a18.26,18.26,0,0,0,7.44-1.58,16.06,16.06,0,0,0,4-2.59V66.4a.41.41,0,0,1-.16.3.89.89,0,0,1-.58.2H5.39a.9.9,0,0,1-.58-.19.41.41,0,0,1-.17-.31V39.33a16.06,16.06,0,0,0,4,2.59A18.26,18.26,0,0,0,16.11,43.5Zm75.94-7.16a12.7,12.7,0,0,1-8.16,2.9H16.11A12.7,12.7,0,0,1,8,36.34a9,9,0,0,1-3.31-6.81V16.85a.41.41,0,0,1,.17-.31.89.89,0,0,1,.57-.19H94.61a.9.9,0,0,1,.58.19.43.43,0,0,1,.17.31V29.53A9,9,0,0,1,92.05,36.34Z"/></g></svg>