<svg viewBox="0 0 16 16" fill="none" xmlns="http://www.w3.org/2000/svg">
<path fill-rule="evenodd" clip-rule="evenodd" d="M6.6665 1.3335C6.13607 1.3335 5.62736 1.54421 5.25229 1.91928C4.87722 2.29436 4.6665 2.80306 4.6665 3.3335V4.00016H2.6665C1.56193 4.00016 0.666504 4.89559 0.666504 6.00016V12.6668C0.666504 13.7714 1.56193 14.6668 2.6665 14.6668H13.3332C14.4377 14.6668 15.3332 13.7714 15.3332 12.6668V6.00016C15.3332 4.89559 14.4377 4.00016 13.3332 4.00016H11.3332V3.3335C11.3332 2.80306 11.1225 2.29436 10.7474 1.91928C10.3723 1.54421 9.8636 1.3335 9.33317 1.3335H6.6665ZM9.99984 4.00016V3.3335C9.99984 3.15669 9.9296 2.98712 9.80457 2.86209C9.67955 2.73707 9.50998 2.66683 9.33317 2.66683H6.6665C6.48969 2.66683 6.32012 2.73707 6.1951 2.86209C6.07008 2.98712 5.99984 3.15669 5.99984 3.3335V4.00016H9.99984ZM5.99984 5.3335H9.99984V13.3335H5.99984V5.3335ZM4.6665 5.3335H2.6665C2.29831 5.3335 1.99984 5.63197 1.99984 6.00016V12.6668C1.99984 13.035 2.29831 13.3335 2.6665 13.3335H4.6665V5.3335ZM11.3332 13.3335V5.3335H13.3332C13.7014 5.3335 13.9998 5.63197 13.9998 6.00016V12.6668C13.9998 13.035 13.7014 13.3335 13.3332 13.3335H11.3332Z" fill="#717D96"/>
</svg>
