<svg xmlns="http://www.w3.org/2000/svg" viewBox="0 0 400 396.96"><defs><style>.cls-1{fill:#616161;}</style></defs><g id="Layer_2" data-name="Layer 2"><g id="Layer_1-2" data-name="Layer 1"><path class="cls-1" d="M381.57,179.41,233.27,150l-1.62-.32V51.33a23.18,23.18,0,0,0-19.52-22.91L27.14.3A24.55,24.55,0,0,0,23.33,0,23.06,23.06,0,0,0,8.21,5.57,22.73,22.73,0,0,0,0,23.22V373.73A23.26,23.26,0,0,0,23.23,397H376.77A23.26,23.26,0,0,0,400,373.73V202A23,23,0,0,0,381.57,179.41Zm-230,202.74v2H80.13V306.39A10.33,10.33,0,0,1,90.57,296h50.51a10.45,10.45,0,0,1,10.44,10.44Zm67.34-227.28v229.3H164.31V306.39a23.26,23.26,0,0,0-23.23-23.23H90.57a23.26,23.26,0,0,0-23.23,23.23v77.78H23.23a10.46,10.46,0,0,1-10.44-10.44V23.22a10.09,10.09,0,0,1,3.74-7.93,10,10,0,0,1,6.7-2.5,6.93,6.93,0,0,1,2,.21L210.07,40.92a10.51,10.51,0,0,1,8.79,10.42ZM387.2,373.73a10.44,10.44,0,0,1-10.43,10.43H231.65V162.68l2.41.48,145,28.62A10.5,10.5,0,0,1,387.2,202Z"/><path class="cls-1" d="M326.26,232.65H292.59a6.4,6.4,0,0,0,0,12.8h33.67a6.4,6.4,0,0,0,0-12.8Z"/><path class="cls-1" d="M326.26,283.16H292.59a6.4,6.4,0,0,0,0,12.79h33.67a6.4,6.4,0,1,0,0-12.79Z"/><path class="cls-1" d="M326.26,333.66H292.59a6.4,6.4,0,0,0,0,12.8h33.67a6.4,6.4,0,1,0,0-12.8Z"/><path class="cls-1" d="M174.75,81.14H141.08a6.4,6.4,0,1,0,0,12.79h33.67a6.4,6.4,0,0,0,0-12.79Z"/><path class="cls-1" d="M174.75,131.64H141.08a6.4,6.4,0,0,0,0,12.8h33.67a6.4,6.4,0,0,0,0-12.8Z"/><path class="cls-1" d="M174.75,182.15H141.08a6.4,6.4,0,1,0,0,12.79h33.67a6.4,6.4,0,0,0,0-12.79Z"/><path class="cls-1" d="M174.75,232.65H141.08a6.4,6.4,0,0,0,0,12.8h33.67a6.4,6.4,0,0,0,0-12.8Z"/><path class="cls-1" d="M90.57,232.65H56.9a6.4,6.4,0,0,0,0,12.8H90.57a6.4,6.4,0,1,0,0-12.8Z"/><path class="cls-1" d="M90.57,81.14H56.9a6.4,6.4,0,0,0,0,12.79H90.57a6.4,6.4,0,1,0,0-12.79Z"/><path class="cls-1" d="M90.57,131.64H56.9a6.4,6.4,0,0,0,0,12.8H90.57a6.4,6.4,0,0,0,0-12.8Z"/><path class="cls-1" d="M90.57,182.15H56.9a6.4,6.4,0,0,0,0,12.79H90.57a6.4,6.4,0,1,0,0-12.79Z"/></g></g></svg>