<svg xmlns="http://www.w3.org/2000/svg" viewBox="0 0 100 100"><defs><style>.cls-1{fill:#231f20;}</style></defs><g id="business"><g id="business_fill"><polygon class="cls-1" points="77.68 43.26 77.68 49.4 72.03 49.39 72.03 43.26 77.68 43.26"/><polygon class="cls-1" points="27.97 43.26 27.97 49.4 22.32 49.39 22.32 43.26 27.97 43.26"/><path class="cls-1" d="M100,38.67V68.52a.44.44,0,0,1-.18.33,1,1,0,0,1-.64.22H.82a1,1,0,0,1-.64-.22A.48.48,0,0,1,0,68.52V38.67a17.75,17.75,0,0,0,4.44,2.85,20.16,20.16,0,0,0,8.19,1.74H17.2v6.32a4.37,4.37,0,0,0,1.55,3.25,5.5,5.5,0,0,0,3.54,1.27H28a5.46,5.46,0,0,0,3.54-1.27,4.3,4.3,0,0,0,1.55-3.25V43.26H66.92v6.32a4.3,4.3,0,0,0,1.55,3.25A5.46,5.46,0,0,0,72,54.1h5.7a5.5,5.5,0,0,0,3.54-1.27,4.37,4.37,0,0,0,1.55-3.25V43.26h4.57a20.16,20.16,0,0,0,8.19-1.74A17.75,17.75,0,0,0,100,38.67Z"/><path class="cls-1" d="M100,13.88v14a9.86,9.86,0,0,1-3.64,7.5,14,14,0,0,1-9,3.19H12.63a14,14,0,0,1-9-3.19A9.88,9.88,0,0,1,0,27.87v-14a.46.46,0,0,1,.18-.33,1,1,0,0,1,.64-.22H99.18a1,1,0,0,1,.64.22A.43.43,0,0,1,100,13.88Z"/><path class="cls-1" d="M71.08,8.63H28.92L30,4a4.8,4.8,0,0,1,2-2.8A6.67,6.67,0,0,1,35.8,0H64.19A6.79,6.79,0,0,1,68,1.16,4.85,4.85,0,0,1,70,4Z"/></g></g></svg>