<svg xmlns="http://www.w3.org/2000/svg" viewBox="0 0 100 100"><defs><style>.cls-1{fill:#231f20;}</style></defs><g id="calendar"><g id="calendar_1"><path class="cls-1" d="M75.39,44.92A3.91,3.91,0,1,0,71.48,41,3.91,3.91,0,0,0,75.39,44.92Z"/><path class="cls-1" d="M84.37,7.81H79.3V3.91a3.91,3.91,0,1,0-7.82,0v3.9H53.71V3.91a3.91,3.91,0,1,0-7.81,0v3.9H28.32V3.91a3.91,3.91,0,1,0-7.81,0v3.9H15.63A15.65,15.65,0,0,0,0,23.44V84.37A15.65,15.65,0,0,0,15.63,100H45.51a3.91,3.91,0,0,0,0-7.81H15.63a7.83,7.83,0,0,1-7.82-7.82V23.44a7.83,7.83,0,0,1,7.82-7.82h4.88v3.91a3.91,3.91,0,1,0,7.81,0V15.62H45.9v3.91a3.91,3.91,0,1,0,7.81,0V15.62H71.48v3.91a3.91,3.91,0,0,0,7.82,0V15.62h5.07a7.83,7.83,0,0,1,7.82,7.82V45.7a3.91,3.91,0,1,0,7.81,0V23.44A15.65,15.65,0,0,0,84.37,7.81Z"/><path class="cls-1" d="M76.37,52.73A23.64,23.64,0,1,0,100,76.37,23.67,23.67,0,0,0,76.37,52.73Zm0,39.46A15.82,15.82,0,1,1,92.19,76.37,15.84,15.84,0,0,1,76.37,92.19Z"/><path class="cls-1" d="M82,72.46H80.27v-4.1a3.91,3.91,0,1,0-7.81,0v8a3.91,3.91,0,0,0,3.91,3.9H82a3.91,3.91,0,1,0,0-7.81Z"/><path class="cls-1" d="M58.4,44.92A3.91,3.91,0,1,0,54.49,41,3.9,3.9,0,0,0,58.4,44.92Z"/><path class="cls-1" d="M41.41,61.91A3.91,3.91,0,1,0,37.5,58,3.9,3.9,0,0,0,41.41,61.91Z"/><path class="cls-1" d="M24.41,44.92a3.91,3.91,0,1,0-3.9-3.9A3.91,3.91,0,0,0,24.41,44.92Z"/><path class="cls-1" d="M24.41,61.91a3.91,3.91,0,1,0-3.9-3.9A3.9,3.9,0,0,0,24.41,61.91Z"/><path class="cls-1" d="M24.41,78.91A3.91,3.91,0,1,0,20.51,75,3.91,3.91,0,0,0,24.41,78.91Z"/><path class="cls-1" d="M41.41,78.91A3.91,3.91,0,1,0,37.5,75,3.91,3.91,0,0,0,41.41,78.91Z"/><path class="cls-1" d="M41.41,44.92A3.91,3.91,0,1,0,37.5,41,3.91,3.91,0,0,0,41.41,44.92Z"/></g></g></svg>