<svg id="Capa_1" data-name="Capa 1" xmlns="http://www.w3.org/2000/svg" viewBox="0 0 400 400"><path d="M129,312.24a43.87,43.87,0,1,0,31,12.85A43.92,43.92,0,0,0,129,312.24Zm19.8,43.88a19.81,19.81,0,1,1-19.8-19.8A19.67,19.67,0,0,1,148.82,356.12Z"/><path d="M301.88,312.24a43.88,43.88,0,1,0,43.88,43.88A43.92,43.92,0,0,0,301.88,312.24Zm19.8,43.88a19.8,19.8,0,1,1-19.8-19.8A19.67,19.67,0,0,1,321.68,356.12Z"/><path d="M397.2,73.81l0,0,0-.05a15.24,15.24,0,0,0-9.79-4.89l-.17,0H387L93.66,64.74,86.35,42.38v-.05A45.87,45.87,0,0,0,43.54,11.48H13a13,13,0,0,0,0,26H43.45A19.81,19.81,0,0,1,61.62,50.78l57.29,172.78-4,9.08,0,.07,0,.08a47.71,47.71,0,0,0,4.46,43.13,46.3,46.3,0,0,0,37.29,20.89H333.72a13,13,0,0,0,0-26H156.82A19.24,19.24,0,0,1,141,261.7a20.94,20.94,0,0,1-2-18.3l2.66-6L331,217.64a54.08,54.08,0,0,0,46.62-41.21l21.78-91.22A11.64,11.64,0,0,0,397.2,73.81Zm-26.6,21L352.2,170.5v.08a26.86,26.86,0,0,1-24.23,21h-.09l-186.1,19.24L102.17,90.82Z"/></svg>