<svg width="24" height="24" viewBox="0 0 24 24" fill="none" xmlns="http://www.w3.org/2000/svg">
<path d="M9.375 9.84375H15.125" stroke="#91979D" stroke-width="1.5" stroke-linecap="round" stroke-linejoin="round"/>
<path d="M9.375 12.7188H15.125" stroke="#91979D" stroke-width="1.5" stroke-linecap="round" stroke-linejoin="round"/>
<path d="M14.1969 18.0989L12.8663 20.3165C12.8025 20.4229 12.7121 20.511 12.6041 20.5722C12.4961 20.6333 12.3741 20.6655 12.25 20.6655C12.1259 20.6655 12.0039 20.6333 11.8959 20.5722C11.7879 20.511 11.6975 20.4229 11.6337 20.3165L10.3031 18.0989C10.2393 17.9925 10.1489 17.9044 10.0409 17.8433C9.93292 17.7821 9.81092 17.75 9.6868 17.75H4.34375C4.15313 17.75 3.97031 17.6742 3.83552 17.5394C3.70073 17.4047 3.625 17.2218 3.625 17.0312V5.53125C3.625 5.34063 3.70073 5.15781 3.83552 5.02302C3.97031 4.88823 4.15313 4.8125 4.34375 4.8125H20.1562C20.3469 4.8125 20.5297 4.88823 20.6645 5.02302C20.7993 5.15781 20.875 5.34063 20.875 5.53125V17.0312C20.875 17.2219 20.7993 17.4047 20.6645 17.5395C20.5297 17.6743 20.3469 17.75 20.1562 17.75L14.8132 17.75C14.6891 17.75 14.5671 17.7821 14.4591 17.8433C14.3511 17.9044 14.2607 17.9925 14.1969 18.0989V18.0989Z" stroke="#91979D" stroke-width="1.5" stroke-linecap="round" stroke-linejoin="round"/>
</svg>
