<svg id="_1_5" data-name="1,5" xmlns="http://www.w3.org/2000/svg" viewBox="0 0 400 400"><path d="M397.73,222a12.46,12.46,0,0,0-10.24-5.33h-.32a121.45,121.45,0,0,0-53.85-92.06,25,25,0,1,0-12.25,21.9,96.28,96.28,0,0,1,41,70.16h-25.6A79.3,79.3,0,0,0,258.33,150H141.67a79.3,79.3,0,0,0-78.18,66.66h-51A12.49,12.49,0,0,0,.76,233.43l33.33,91.66a12.5,12.5,0,0,0,11.75,8.23h62.35l8.63,56.07a12.5,12.5,0,1,0,24.7-3.8l-14.45-93.93H272.93l-14.45,93.93A12.52,12.52,0,0,0,270.85,400h0a12.48,12.48,0,0,0,12.33-10.59l8.63-56.08h62.35a12.51,12.51,0,0,0,11.75-8.21l33.33-91.67A12.49,12.49,0,0,0,397.73,222ZM141.67,175H258.33A54.25,54.25,0,0,1,311,216.66H89A54.25,54.25,0,0,1,141.67,175ZM345.4,308.32H295.65l4.2-27.25a12.5,12.5,0,0,0-12.35-14.41h-175a12.49,12.49,0,0,0-12.35,14.4l4.2,27.26H54.59L30.34,241.66h339.3Z"/><path d="M200,133.33a66.67,66.67,0,1,0-66.66-66.67A66.73,66.73,0,0,0,200,133.33ZM200,25a41.67,41.67,0,1,1-41.67,41.66A41.72,41.72,0,0,1,200,25Z"/></svg>