<svg id="Layer_1" data-name="Layer 1" xmlns="http://www.w3.org/2000/svg" viewBox="0 0 400 400"><path d="M154.17,133.33h-125A29.19,29.19,0,0,1,0,104.17v-75A29.2,29.2,0,0,1,29.17,0h125a29.19,29.19,0,0,1,29.16,29.17v75A29.19,29.19,0,0,1,154.17,133.33ZM29.17,25A4.17,4.17,0,0,0,25,29.17v75a4.17,4.17,0,0,0,4.17,4.16h125a4.16,4.16,0,0,0,4.16-4.16v-75A4.17,4.17,0,0,0,154.17,25Z"/><path d="M154.17,400h-125A29.2,29.2,0,0,1,0,370.83v-175a29.19,29.19,0,0,1,29.17-29.16h125a29.19,29.19,0,0,1,29.16,29.16v175A29.19,29.19,0,0,1,154.17,400Zm-125-208.33A4.17,4.17,0,0,0,25,195.83v175A4.17,4.17,0,0,0,29.17,375h125a4.17,4.17,0,0,0,4.16-4.17v-175a4.16,4.16,0,0,0-4.16-4.16Z"/><path d="M370.83,400h-125a29.19,29.19,0,0,1-29.16-29.17v-75a29.19,29.19,0,0,1,29.16-29.16h125A29.19,29.19,0,0,1,400,295.83v75A29.2,29.2,0,0,1,370.83,400Zm-125-108.33a4.16,4.16,0,0,0-4.16,4.16v75a4.17,4.17,0,0,0,4.16,4.17h125a4.17,4.17,0,0,0,4.17-4.17v-75a4.17,4.17,0,0,0-4.17-4.16Z"/><path d="M370.83,233.33h-125a29.19,29.19,0,0,1-29.16-29.16v-175A29.19,29.19,0,0,1,245.83,0h125A29.2,29.2,0,0,1,400,29.17v175A29.19,29.19,0,0,1,370.83,233.33ZM245.83,25a4.17,4.17,0,0,0-4.16,4.17v175a4.16,4.16,0,0,0,4.16,4.16h125a4.17,4.17,0,0,0,4.17-4.16v-175A4.17,4.17,0,0,0,370.83,25Z"/></svg>