<svg xmlns="http://www.w3.org/2000/svg" viewBox="0 0 100 100"><defs><style>.cls-1{fill:#231f20;}</style></defs><g id="details"><g id="details_lineal"><path class="cls-1" d="M96.88,43.86H68.29a3,3,0,0,0,0,6H96.88a3,3,0,1,0,0-6Z"/><path class="cls-1" d="M96.88,56.11H68.29a3,3,0,0,0,0,6H96.88a3,3,0,1,0,0-6Z"/><path class="cls-1" d="M96.88,68.37H68.29a3,3,0,0,0,0,6H96.88a3,3,0,1,0,0-6Z"/><path class="cls-1" d="M96.88,80.62H68.29a3,3,0,0,0,0,6H96.88a3,3,0,1,0,0-6Z"/><path class="cls-1" d="M52,36.76H7.11A7.12,7.12,0,0,0,0,43.87V84.72a7.12,7.12,0,0,0,7.11,7.11H52a7.12,7.12,0,0,0,7.11-7.11V43.87A7.12,7.12,0,0,0,52,36.76Zm-46,7.11a1.06,1.06,0,0,1,1.06-1.06H52a1.06,1.06,0,0,1,1.06,1.06V84.72A1.05,1.05,0,0,1,52,85.78H7.11a1.05,1.05,0,0,1-1.06-1.06Z"/><path class="cls-1" d="M92.89,0H7.11A7.12,7.12,0,0,0,0,7.11V19.36a7.12,7.12,0,0,0,7.11,7.11H92.89A7.12,7.12,0,0,0,100,19.36V7.11A7.12,7.12,0,0,0,92.89,0ZM6.05,7.11A1.05,1.05,0,0,1,7.11,6.05H92.89A1.05,1.05,0,0,1,94,7.11V19.36a1.06,1.06,0,0,1-1.06,1.07H7.11a1.06,1.06,0,0,1-1.06-1.07Z"/><path class="cls-1" d="M29.58,63.24a7.11,7.11,0,1,0-7.11-7.11A7.12,7.12,0,0,0,29.58,63.24Z"/><path class="cls-1" d="M39.79,79.57a3,3,0,0,0,3-3v-2a9.15,9.15,0,0,0-9.15-9.15H25.49a9.16,9.16,0,0,0-9.15,9.15v2a3,3,0,0,0,3,3Z"/></g></g></svg>