<svg xmlns="http://www.w3.org/2000/svg" viewBox="0 0 100 100"><defs><style>.cls-1{fill:#231f20;}</style></defs><g id="details"><g id="details_fill"><path class="cls-1" d="M96.88,43.86H68.29a3,3,0,0,0,0,6H96.88a3,3,0,1,0,0-6Z"/><path class="cls-1" d="M96.88,56.11H68.29a3,3,0,0,0,0,6H96.88a3,3,0,1,0,0-6Z"/><path class="cls-1" d="M96.88,68.37H68.29a3,3,0,0,0,0,6H96.88a3,3,0,1,0,0-6Z"/><path class="cls-1" d="M96.88,80.62H68.29a3,3,0,0,0,0,6H96.88a3,3,0,1,0,0-6Z"/><path class="cls-1" d="M52,36.77H7.11A7.11,7.11,0,0,0,0,43.87V84.72a7.12,7.12,0,0,0,7.11,7.11H52a7.12,7.12,0,0,0,7.11-7.11V43.87A7.11,7.11,0,0,0,52,36.77ZM29.58,49a7.11,7.11,0,1,1-7.11,7.11A7.12,7.12,0,0,1,29.58,49ZM42.81,76.55a3,3,0,0,1-3,3H19.36a3,3,0,0,1-3-3v-2a9.16,9.16,0,0,1,9.15-9.15h8.17a9.15,9.15,0,0,1,9.15,9.15Z"/><path class="cls-1" d="M92.89,0H7.11A7.12,7.12,0,0,0,0,7.11V19.36a7.12,7.12,0,0,0,7.11,7.11H92.89A7.12,7.12,0,0,0,100,19.36V7.11A7.12,7.12,0,0,0,92.89,0Z"/></g></g></svg>