<svg viewBox="0 0 25 25" fill="none" xmlns="http://www.w3.org/2000/svg">
<path d="M12.5 0C5.60748 0 0 5.60748 0 12.5C0 19.3925 5.60748 25 12.5 25C19.3925 25 25 19.3925 25 12.5C25 5.60748 19.3925 0 12.5 0ZM12.5 23.8318C6.25164 23.8318 1.16822 18.7484 1.16822 12.5C1.16822 6.25164 6.25164 1.16822 12.5 1.16822C18.7484 1.16822 23.8318 6.25164 23.8318 12.5C23.8318 18.7484 18.7484 23.8318 12.5 23.8318Z" fill="#555555"/>
<path d="M9.71094 11.3054L12.5 14.0938L15.2891 11.3054" stroke="#555555" stroke-width="1.0625" stroke-linecap="round" stroke-linejoin="round"/>
<path d="M12.5 6.65625V14.0918" stroke="#555555" stroke-width="1.0625" stroke-linecap="round" stroke-linejoin="round"/>
<path d="M18.3438 14.0938V17.8125C18.3438 17.9534 18.2878 18.0885 18.1882 18.1882C18.0885 18.2878 17.9534 18.3438 17.8125 18.3438H7.1875C7.0466 18.3438 6.91148 18.2878 6.81185 18.1882C6.71222 18.0885 6.65625 17.9534 6.65625 17.8125V14.0938" stroke="#555555" stroke-width="1.0625" stroke-linecap="round" stroke-linejoin="round"/>
</svg>
