<svg id="Layer_1" data-name="Layer 1" xmlns="http://www.w3.org/2000/svg" viewBox="0 0 400 400"><defs><style>.cls-1{fill:#010101;}</style></defs><g id="Solid"><path class="cls-1" d="M185.37,311.18a20.69,20.69,0,0,0,29.26,0h0l78-78A20.69,20.69,0,0,0,263.4,203.9l-42.71,42.7V20.69a20.69,20.69,0,1,0-41.38,0V246.6L136.6,203.9a20.69,20.69,0,0,0-29.26,29.26Z"/><path class="cls-1" d="M379.31,179.31A20.69,20.69,0,0,0,358.62,200V358.62H41.38V200A20.69,20.69,0,0,0,0,200V365.52A34.48,34.48,0,0,0,34.48,400h331A34.48,34.48,0,0,0,400,365.52V200A20.69,20.69,0,0,0,379.31,179.31Z"/></g></svg>