<svg xmlns="http://www.w3.org/2000/svg" viewBox="0 0 100 100"><defs><style>.cls-1{fill:#231f20;}</style></defs><g id="stars_di" data-name="stars di"><path id="empty_star" class="cls-1" d="M50.11,11.75l11,21.41,1.24,2.43,2.66.46,23.78,4.06-17,17.12-1.92,1.92.4,2.66,3.45,23.9L52.26,74.86l-2.43-1.24L47.4,74.8,25.76,85.48l3.68-23.84L29.83,59,28,57.06,11.13,39.77l23.79-3.89,2.65-.46,1.24-2.37ZM50.17,0,34.07,30.57,0,36.1,24.12,60.85,18.87,95l31-15.25L80.68,95.25l-5-34.18L100,36.55,65.93,30.68Z"/></g></svg>