<svg xmlns="http://www.w3.org/2000/svg" viewBox="0 0 100 100"><defs><style>.cls-1{fill:#231f20;}</style></defs><g id="envelope"><path id="envelope_lineal" class="cls-1" d="M97.38,2.62A8.59,8.59,0,0,0,91.07,0H8.93A8.59,8.59,0,0,0,2.62,2.62,8.59,8.59,0,0,0,0,8.93V69.64A8.59,8.59,0,0,0,2.62,76a8.59,8.59,0,0,0,6.31,2.62H91.07A8.95,8.95,0,0,0,100,69.64V8.93A8.59,8.59,0,0,0,97.38,2.62Zm-4.52,67a1.83,1.83,0,0,1-1.79,1.79H8.93a1.81,1.81,0,0,1-1.79-1.79V26.79A34.29,34.29,0,0,0,11,30.47Q25.95,42,34.77,49.33c1.89,1.6,3.44,2.84,4.63,3.74a26,26,0,0,0,4.82,2.7,13.9,13.9,0,0,0,5.72,1.37h.12a13.82,13.82,0,0,0,5.71-1.37,25.82,25.82,0,0,0,4.83-2.7c1.19-.9,2.74-2.14,4.63-3.74Q74.05,42,89,30.47a34.29,34.29,0,0,0,3.85-3.68Zm0-59.26V11a14,14,0,0,1-2.6,7.34,26.2,26.2,0,0,1-5.61,6.45Q73.88,33.25,62.28,42.47c-.23.18-.88.73-2,1.64s-1.93,1.61-2.56,2.1S56.3,47.27,55.27,48a14.9,14.9,0,0,1-2.82,1.54,6.65,6.65,0,0,1-2.39.5h-.12a6.74,6.74,0,0,1-2.4-.5A15.15,15.15,0,0,1,44.73,48c-1-.69-1.85-1.27-2.49-1.75s-1.48-1.19-2.56-2.1-1.73-1.46-2-1.64Q26.13,33.26,15.35,24.78,7.15,18.3,7.14,8.93A1.81,1.81,0,0,1,8.93,7.14H91.07a.93.93,0,0,0,.78.14c.23-.07.39.07.5.42s.22.52.31.5.15.22.17.7l0,.73v.75Z"/></g></svg>