<svg viewBox="0 0 48 48" fill="none" xmlns="http://www.w3.org/2000/svg">
<g clip-path="url(#clip0_1231_16212)">
<path fill-rule="evenodd" clip-rule="evenodd" d="M24 46C36.1503 46 46 36.1503 46 24C46 11.8497 36.1503 2 24 2C11.8497 2 2 11.8497 2 24C2 36.1503 11.8497 46 24 46ZM24 48C37.2548 48 48 37.2548 48 24C48 10.7452 37.2548 0 24 0C10.7452 0 0 10.7452 0 24C0 37.2548 10.7452 48 24 48Z" fill="#4A5468"/>
<path fill-rule="evenodd" clip-rule="evenodd" d="M13 17.9827C12.9999 17.9925 12.9998 18.0024 13 18.0122V30C13 31.6523 14.3477 33 16 33H32C33.6523 33 35 31.6523 35 30V18.0124C35.0001 18.0024 35.0001 17.9925 34.9999 17.9825C34.9904 16.3382 33.6464 15 32 15H16C14.3535 15 13.0094 16.3383 13 17.9827ZM15.1065 17.5539C15.2719 17.2269 15.612 17 16 17H32C32.3879 17 32.728 17.2269 32.8934 17.5539L24 23.7793L15.1065 17.5539ZM33 19.9207V30C33 30.5477 32.5477 31 32 31H16C15.4522 31 15 30.5477 15 30V19.9207L23.4265 25.8192C23.7708 26.0603 24.2291 26.0603 24.5734 25.8192L33 19.9207Z" fill="#4A5468"/>
</g>
<defs>
</defs>
</svg>
