<svg xmlns="http://www.w3.org/2000/svg" viewBox="0 0 100 100"><defs><style>.cls-1{fill:#231f20;}</style></defs><g id="envelope"><g id="envelope_fill"><path class="cls-1" d="M9.6,24.22q1.89,1.34,11.44,8T35.66,42.35L38,44.06c1.21.87,2.21,1.58,3,2.12s1.77,1.14,2.9,1.81a17.54,17.54,0,0,0,3.21,1.51,9.06,9.06,0,0,0,2.79.5h.12a9.06,9.06,0,0,0,2.79-.5A17.54,17.54,0,0,0,56.06,48c1.13-.67,2.1-1.27,2.9-1.81s1.8-1.25,3-2.12l2.37-1.71L90.46,24.22a26.59,26.59,0,0,0,6.8-6.87A14.66,14.66,0,0,0,100,8.93a8.55,8.55,0,0,0-2.65-6.31A8.62,8.62,0,0,0,91.07,0H8.93A8,8,0,0,0,2.32,2.9,11.24,11.24,0,0,0,0,10.16q0,3.51,3.07,7.61A27.4,27.4,0,0,0,9.6,24.22Z"/><path class="cls-1" d="M94.42,30.19Q76.12,42.58,66.63,49.44q-3.18,2.34-5.16,3.66a32.76,32.76,0,0,1-5.28,2.68,16.06,16.06,0,0,1-6.13,1.36h-.12a16.06,16.06,0,0,1-6.13-1.36,32.76,32.76,0,0,1-5.28-2.68q-2-1.32-5.16-3.66Q25.84,43.92,5.64,30.19A29.37,29.37,0,0,1,0,25.33V69.64A8.59,8.59,0,0,0,2.62,76a8.59,8.59,0,0,0,6.31,2.62H91.07A8.95,8.95,0,0,0,100,69.64V25.33A30.63,30.63,0,0,1,94.42,30.19Z"/></g></g></svg>