<svg xmlns="http://www.w3.org/2000/svg" viewBox="0 0 400 311.72"><defs><style>.cls-1{fill:#616262;}</style></defs><g id="Layer_2" data-name="Layer 2"><g id="Layer_1-2" data-name="Layer 1"><path id="envelope" class="cls-1" d="M400,30A30,30,0,0,0,370,0H30A30,30,0,0,0,0,30V281.73a30,30,0,0,0,30,30H369.92a30,30,0,0,0,30-30V49.11c.06-1.16.09-2.33.09-3.49ZM369.92,20a10,10,0,0,1,10,10V48.67a51.67,51.67,0,0,1-19.38,37.51l-133.46,107a43.33,43.33,0,0,1-54.21,0L39.55,86.19A51.73,51.73,0,0,1,20.09,45.64V30a10,10,0,0,1,10-10Zm10,261.73a10,10,0,0,1-10,10H30a10,10,0,0,1-10-10V95.32a71,71,0,0,0,7,6.47L160.35,208.71a63.33,63.33,0,0,0,79.23,0L373,101.79a71.09,71.09,0,0,0,6.88-6.3Z"/></g></g></svg>