<svg xmlns="http://www.w3.org/2000/svg" viewBox="0 0 100 100"><defs><style>.cls-1{fill:#010101;}</style></defs><g id="event_calendar" data-name="event calendar"><g id="event_calendar-2" data-name="event_calendar"><path class="cls-1" d="M50,0a50,50,0,1,0,50,50A50,50,0,0,0,50,0ZM62.88,74.42A11.54,11.54,0,1,1,74.42,62.88,11.56,11.56,0,0,1,62.88,74.42ZM52.2,45.61a1.91,1.91,0,1,1,1.9,1.91A1.9,1.9,0,0,1,52.2,45.61Zm8.29,0a1.91,1.91,0,1,1,1.91,1.91A1.91,1.91,0,0,1,60.49,45.61ZM74.42,47.9a1.91,1.91,0,1,1-3.81,0V37a3.83,3.83,0,0,0-3.82-3.82H64.31v1.91a1.91,1.91,0,0,1-3.82,0V33.21H51.81v1.91a1.91,1.91,0,1,1-3.81,0V33.21H39.41v1.91a1.91,1.91,0,1,1-3.81,0V33.21H33.21A3.82,3.82,0,0,0,29.4,37V66.79a3.82,3.82,0,0,0,3.81,3.81h14.6a1.91,1.91,0,1,1,0,3.82H33.21a7.64,7.64,0,0,1-7.63-7.63V37a7.64,7.64,0,0,1,7.63-7.63H35.6V27.49a1.91,1.91,0,1,1,3.81,0V29.4H48V27.49a1.91,1.91,0,1,1,3.81,0V29.4h8.68V27.49a1.91,1.91,0,0,1,3.82,0V29.4h2.48A7.64,7.64,0,0,1,74.42,37ZM45.81,55.82a1.91,1.91,0,1,1,1.9-1.91A1.9,1.9,0,0,1,45.81,55.82Zm1.9,6.39a1.91,1.91,0,1,1-1.9-1.91A1.91,1.91,0,0,1,47.71,62.21Zm-1.9-14.69a1.91,1.91,0,1,1,1.9-1.91A1.9,1.9,0,0,1,45.81,47.52Zm-8.3,8.3a1.91,1.91,0,1,1,1.9-1.91A1.9,1.9,0,0,1,37.51,55.82Zm1.9,6.39a1.91,1.91,0,1,1-1.9-1.91A1.91,1.91,0,0,1,39.41,62.21Zm-1.9-14.69a1.91,1.91,0,1,1,1.9-1.91A1.9,1.9,0,0,1,37.51,47.52Z"/><path class="cls-1" d="M62.88,55.15a7.73,7.73,0,1,0,7.73,7.73A7.74,7.74,0,0,0,62.88,55.15Zm2.77,9.64H62.88A1.92,1.92,0,0,1,61,62.88V59a1.91,1.91,0,0,1,3.82,0v2h.86a1.91,1.91,0,0,1,0,3.82Z"/></g></g></svg>