<svg xmlns="http://www.w3.org/2000/svg" viewBox="0 0 100.08 68.16"><defs><style>.cls-1,.cls-2{fill:#231f20;}.cls-1{fill-rule:evenodd;}</style></defs><g id="Layer_2" data-name="Layer 2"><g id="Layer_1-2" data-name="Layer 1"><g id="views"><g id="views-2"><path class="cls-1" d="M50.1,0C79.84,0,98.81,31,99.6,32.37a3.32,3.32,0,0,1,0,3.44C98.81,37,79.84,68.16,50.1,68.16S1.27,37,.48,35.76a3.32,3.32,0,0,1,0-3.44C1.27,31,20.24,0,50.1,0ZM27.51,34A22.53,22.53,0,1,1,50.1,56.56,22.53,22.53,0,0,1,27.51,34Z"/><path class="cls-2" d="M50.1,25.41a8.64,8.64,0,1,0,8.64,8.64v0a8.62,8.62,0,0,0-8.62-8.62Z"/></g></g></g></g></svg>