<svg xmlns="http://www.w3.org/2000/svg" viewBox="0 0 400 400"><defs><style>.cls-1{fill:#616262;}</style></defs><g id="Layer_2" data-name="Layer 2"><g id="Layer_1-2" data-name="Layer 1"><path class="cls-1" d="M365,100H311a35,35,0,0,0-35,35v15H251V0H108l-6,6L35.29,72.71,26,82v68H0V350a50,50,0,0,0,50,50H365a35,35,0,0,0,35-35V135A35,35,0,0,0,365,100ZM92.36,43.92,106,30.31V80H56.28ZM46,100h80V20H231V150H46Zm4,280a30,30,0,0,1-30-30V170H276V365a34.9,34.9,0,0,0,3.37,15Zm261,0a15,15,0,0,1-15-15V135a15,15,0,0,1,15-15h54a15,15,0,0,1,15,15V365a15,15,0,0,1-15,15Z"/><rect class="cls-1" x="63.47" y="200" width="175" height="25" rx="12.5"/><rect class="cls-1" x="63.47" y="250" width="25" height="25" rx="12.5"/><rect class="cls-1" x="113.47" y="250" width="25" height="25" rx="12.5"/><rect class="cls-1" x="163.47" y="250" width="25" height="25" rx="12.5"/><rect class="cls-1" x="213.47" y="250" width="25" height="25" rx="12.5"/><rect class="cls-1" x="63.47" y="300" width="25" height="25" rx="12.5"/><rect class="cls-1" x="113.47" y="300" width="25" height="25" rx="12.5"/><rect class="cls-1" x="163.47" y="300" width="25" height="25" rx="12.5"/><rect class="cls-1" x="213.47" y="300" width="25" height="25" rx="12.5"/></g></g></svg>