<svg xmlns="http://www.w3.org/2000/svg" viewBox="0 0 100 100"><defs><style>.cls-1{fill:#231f20;}</style></defs><g id="document"><g id="doc_fill"><path class="cls-1" d="M47.92,41.67a6.23,6.23,0,0,1-6.25-6.25V0H6.25A6.05,6.05,0,0,0,1.82,1.82,6.05,6.05,0,0,0,0,6.25v87.5a6.05,6.05,0,0,0,1.82,4.43A6.05,6.05,0,0,0,6.25,100H77.08a6.21,6.21,0,0,0,6.25-6.25V41.67ZM66.67,81.25a2,2,0,0,1-2.09,2.08H18.75a2,2,0,0,1-2.08-2.08V77.08A2,2,0,0,1,18.75,75H64.58a2,2,0,0,1,2.09,2.08Zm0-16.67a2,2,0,0,1-2.09,2.09H18.75a2,2,0,0,1-2.08-2.09V60.42a2,2,0,0,1,2.08-2.08H64.58a2,2,0,0,1,2.09,2.08Z"/><path class="cls-1" d="M78.91,24.74,58.6,4.43A15.94,15.94,0,0,0,50,.19V33.33H83.14A15.79,15.79,0,0,0,78.91,24.74Z"/></g></g></svg>