<svg xmlns="http://www.w3.org/2000/svg" viewBox="0 0 100 100"><defs><style>.cls-1{fill:#231f20;}</style></defs><g id="document"><g id="doc_lineal"><path class="cls-1" d="M82,29.69a15.14,15.14,0,0,0-3.12-5L58.6,4.43a15.21,15.21,0,0,0-5-3.13A15,15,0,0,0,47.92,0H6.25A6.05,6.05,0,0,0,1.82,1.82,6.05,6.05,0,0,0,0,6.25v87.5a6.05,6.05,0,0,0,1.82,4.43A6.05,6.05,0,0,0,6.25,100H77.08a6.21,6.21,0,0,0,6.25-6.25V35.42A14.78,14.78,0,0,0,82,29.69ZM50,8.85a7.19,7.19,0,0,1,2.67,1.44L73.05,30.66a7.22,7.22,0,0,1,1.43,2.67H50ZM75,91.67H8.33V8.33H41.67V35.42a6.23,6.23,0,0,0,6.25,6.25H75Z"/><path class="cls-1" d="M64.58,66.67H18.75a2,2,0,0,0-2.08,2.08v4.17a2,2,0,0,0,.58,1.49,2,2,0,0,0,1.5.59H64.58a2,2,0,0,0,1.5-.59,2,2,0,0,0,.59-1.49V68.75a2,2,0,0,0-2.09-2.08Z"/><path class="cls-1" d="M17.25,50.58a2,2,0,0,0-.58,1.5v4.17a2,2,0,0,0,2.08,2.08H64.58a2,2,0,0,0,2.09-2.08V52.08a2.07,2.07,0,0,0-.59-1.5,2,2,0,0,0-1.5-.58H18.75A2,2,0,0,0,17.25,50.58Z"/></g></g></svg>