<svg xmlns="http://www.w3.org/2000/svg" viewBox="0 0 100 100"><g id="filters"><g id="filter_2"><path d="M97.43,87.5c0,.13,0,.26,0,.38,0,.48-.07.94-.13,1.41a12.47,12.47,0,0,1-24.25,2H2.79C1.25,91.26,0,89.57,0,87.5a2.17,2.17,0,0,1,0-.26,4.51,4.51,0,0,1,.3-1.46,2.83,2.83,0,0,1,2.48-2H73.05a12.47,12.47,0,0,1,24,1,12.06,12.06,0,0,1,.32,2.42C97.42,87.24,97.43,87.37,97.43,87.5Z"/><path d="M.31,85.78A4.51,4.51,0,0,0,0,87.24a1.21,1.21,0,0,1,0-.19A2.71,2.71,0,0,1,.31,85.78Z"/><path d="M97.43,50a2.71,2.71,0,0,1,0,.29c-.11,1.94-1.31,3.47-2.78,3.47H60.24a12.85,12.85,0,0,1-24.8,0H2.79C1.32,53.76.12,52.23,0,50.29a4.21,4.21,0,0,1,0-.58c.11-1.94,1.31-3.47,2.78-3.47H35.68a12.84,12.84,0,0,1,24.34,0H94.64c1.47,0,2.67,1.53,2.78,3.47A2.71,2.71,0,0,1,97.43,50Z"/><path d="M97.43,12.5a2.81,2.81,0,0,1,0,.29c-.11,1.94-1.31,3.47-2.78,3.47H24.41A12.49,12.49,0,0,1,.22,14.8,12,12,0,0,1,0,12.88c0-.13,0-.25,0-.38s0-.25,0-.38A12,12,0,0,1,.22,10.2,12.49,12.49,0,0,1,24.41,8.74H94.64c1.47,0,2.67,1.53,2.78,3.47A2.81,2.81,0,0,1,97.43,12.5Z"/></g></g></svg>