<svg xmlns="http://www.w3.org/2000/svg" viewBox="0 0 100 100"><defs><style>.cls-1{fill:#231f20;}</style></defs><g id="filters"><path id="filter_1_lineal" class="cls-1" d="M99.57,2.77A4.23,4.23,0,0,0,95.39,0H4.61A4.23,4.23,0,0,0,.43,2.77a4.07,4.07,0,0,0,1,5l35,35V77.16a4.36,4.36,0,0,0,1.35,3.19L55.89,98.51a4.24,4.24,0,0,0,3.19,1.35,4.86,4.86,0,0,0,1.77-.36,4.24,4.24,0,0,0,2.77-4.18V42.69l35-35A4.07,4.07,0,0,0,99.57,2.77ZM59.37,38.45l-1.75,1.76V91.75L42.38,76.52V40.21l-1.75-1.76L8.18,6H91.83Z"/></g></svg>