<svg id="Capa_1" data-name="Capa 1" xmlns="http://www.w3.org/2000/svg" viewBox="0 0 400 400"><polygon points="295.29 84.34 295.69 87.43 291.06 88.39 290.44 94.98 295.99 94.98 303.38 94.27 307.19 89.74 303.14 88.16 300.92 85.61 297.58 80.21 295.99 72.57 289.73 73.85 287.97 76.54 287.97 79.57 290.99 81.64 295.29 84.34"/><polygon points="289.95 86.88 290.28 82.74 286.61 81.16 281.47 82.35 277.65 88.47 277.65 92.44 282.1 92.44 289.95 86.88"/><path d="M184.12,104.42,183,107.33h-5.48v2.83h1.31s.07.6.18,1.39l3.36-.29,2.1-1.3.55-2.63,2.72-.23,1.07-2.21-2.49-.52Z"/><polygon points="170.01 109.55 169.79 112.32 173.76 111.98 174.17 109.21 171.79 107.33 170.01 109.55"/><path d="M277.85,384.29A200.75,200.75,0,1,0,200,400,199.51,199.51,0,0,0,277.85,384.29ZM386.05,156c.25,1.08.52,2.16.76,3.26l-1.36-2.55Zm-17-41.46,1.2-1.36c1.59,3.08,3.07,6.21,4.49,9.38l-2-.08-3.72.52ZM339,78.23l0-9.31q4.9,5.2,9.44,10.75l-3.75,5.59-13.12-.12-.82-2.74ZM87.66,55.1v-.35h4.17l.36-1.43H99v3l-2,2.62H87.65Zm11.2,12.75-9.41.59L87.66,66.3l6.66-1.9s4.18-.71,4.54-.71S98.86,67.85,98.86,67.85ZM8.8,200a190.08,190.08,0,0,1,15.27-74.83v-6l6.83-8.31q3.57-6.72,7.64-13.11l.31,3.47-7.94,9.64-6.84,8.31v16.84l8,3.82V155l7.62,13,6.19.95.8-4.46-7.31-11.27-1.43-11h4.28L44,153.53,54.55,169l-2.73,5,6.72,10.27,16.68,4.13v-2.7l6.68,1-.63,4.77,5.24,1,8.1,2.21,11.44,13,14.61,1.11,1.43,11.92-10,7-.47,10.64-1.43,6.52,14.46,18.1,1.11,6.21s5.24,1.42,5.88,1.42,11.76,8.42,11.76,8.42v32.73l4,1.11-2.7,15.1,6.67,8.9-1.23,15,8.82,15.5,11.32,9.89,11.38.2,1.11-3.66-8.36-7,.48-3.5,1.5-4.28.31-4.37-5.65-.17-2.86-3.58,4.7-4.52.63-3.41-5.24-1.5.31-3.17L176,337l11.36-5.46,3.82-7,11.92-15.26-2.71-11.92,3.66-6.35,11,.33,7.38-5.84,2.38-23L233,252l1.43-6.67L227,243,222,234.9l-16.84-.17-13.35-5.09-.63-9.52-4.46-7.79-12.07-.18-7-11-6.19-3-.32,3.34-11.28.67-4.13-5.75L134,194l-9.69,11.2-15.26-2.59L108,185.46l-11.13-1.9,4.46-8.43L100,170.29l-14.62,9.77-9.21-1.12-3.28-7.19,2-7.41L80,155l11.68-5.91h22.55l-.06,6.88,8.11,3.77L121.62,148l5.84-5.87,11.79-7.75.81-5.45,11.75-12.24,12.51-6.92-1.11-.91,8.47-8,3.1.82,1.42,1.79,3.22-3.57.78-.35-3.52-.5-3.57-1.19V94.42L175,92.87h4.18l1.91.84,1.65,3.34,2-.3v-.3l.59.2,5.86-.9.83-2.86,3.34.84v3.1L192.28,99h0l.45,3.4,10.62,3.27,0,.13,2.45-.21L206,101l-8.42-3.83-.48-2.21,7-2.38.31-6.69-7.3-4.44-.48-11.27-10,4.92H183l1-8.58-13.63-3.21-5.64,4.26v13l-10.13,3.21-4.07,8.47-4.4.71V82.08l-9.53-1.32-4.76-3.11-1.92-7,17-10,8.34-2.53.84,5.6,4.64-.24.36-2.82,4.86-.69.09-1-2.09-.86-.48-3,6-.5L173,50.88l.19-.27.05,0,1.09-1.13,12.56-1.59,5.55,4.71-14.56,7.76,18.53,4.37,2.4-6.2h8.09l2.87-5.39-5.73-1.44V44.89l-18-8-12.39,1.43-7,3.66.48,8.9-7.31-1.12-1.13-4.92,7-6.35-12.71-.64L149.41,39l-1.59,4.28,4.77.81-1,4.76-8.09.48-1.27,3.17-11.75.33s-.33-6.67-.8-6.67l9.22-.16,7-6.84-3.83-1.91L137,42.2l-8.43-.48-5.08-7H112.71l-11.27,8.43h10.33l.94,3L110,48.66l11.44.32,1.75,4.13-12.88-.48-.63-3.18-8.09-1.74-4.3-2.39-9.64.08A190.64,190.64,0,0,1,326.22,56.57L324,60.63l-8.82,3.45-3.72,4,.86,4.7,4.55.64,2.74,6.85,7.85-3.16,1.3,9.17h-2.37l-6.44-.95-7.15,1.2-6.91,9.76L296,97.89l-1.43,8.46,4.17,1-1.21,5.44-9.82-2-9,2-1.92,5,1.56,10.52,5.29,2.48,8.87,0,6-.54,1.83-4.76,9.35-12.16,6.16,1.26,6.07-5.49,1.13,4.29,14.93,10.06-1.83,2.46-6.72-.36,2.59,3.66,4.13.91,4.85-2-.1-5.84,2.15-1.08-1.73-1.84-10-5.55-2.62-7.38H337l2.65,2.62,7.13,6.15.3,7.43,7.38,7.86,2.75-10.78,5.12-2.79,1,8.82,5,5.48,10-.17q2.9,7.44,5.18,15.16l-1,1H367.11l-9.29-6.92-9.78.95v6H345l-3.35-2.38-16.93-4.3v-11l-21.46,1.68-6.65,3.57h-8.51l-4.18-.42L273.53,140v10.81l-21.14,15.25,1.76,6.51h4.28l-1.12,6.21-3,1.1-.16,16.21,18.27,20.81h8l.48-1.27h14.29l4.13-3.81h8.1l4.45,4.45,12.08,1.26-1.6,16.06,13.41,23.68-7.06,13.5.48,6.35,5.56,5.55V298l7.3,9.82v12.69h6.31A190.9,190.9,0,0,1,200,391.19C94.57,391.2,8.8,305.42,8.8,200ZM105.3,86.32l5-2.38L114.83,85l-1.56,6.07-4.88,1.55Zm26.56,14.3v3.93H120.43l-4.29-1.19,1.07-2.74,5.5-2.27h7.5v2.27Zm5.26,5.48v3.82l-2.86,1.84-3.57.66V106.1Zm-3.22-1.55V100l3.93,3.58Zm1.79,9.17v3.71L133,120.17h-6.07l1-4.16,2.87-.25.59-1.43Zm-19.54-2.85,4.4-4.77h6.32l-8.1,11.32-3.34-1.79Zm30.27,1.55v3.7h-6.08l-1.66-2.4v-3.44h.48Zm-5.62-5.09,1.73-1.82,2.93,1.82-2.34,1.93Z"/></svg>