<svg xmlns="http://www.w3.org/2000/svg" viewBox="0 0 100 100"><defs><style>.cls-1{fill:#dc4f42;}.cls-2{fill:#fff;}</style></defs><g id="socials"><g id="google_" data-name="google+"><circle class="cls-1" cx="50" cy="50" r="50"/><path class="cls-2" d="M17.41,52.24a20.61,20.61,0,0,0,13.9,19.49c7.67,2.58,17.11.65,22.22-5.93,3.73-4.6,4.58-10.75,4.18-16.48-6.58-.06-13.15,0-19.72,0,0,2.34,0,4.67,0,7,3.94.11,7.88.06,11.81.14-1,3.41-3.25,6.58-6.69,7.81-6.63,2.92-15.1-.9-17.19-7.86-2.52-6.66,1.61-14.7,8.42-16.64,4.22-1.49,8.57.18,12.19,2.38,1.83-1.71,3.54-3.54,5.22-5.39A20.55,20.55,0,0,0,37,31.66C26.32,31.78,17,41.61,17.41,52.24Z"/><path class="cls-2" d="M70.5,43.38c0,2,0,3.93,0,5.88l-5.88,0v5.87l5.88,0c0,2,0,3.92,0,5.89h5.87c0-2,0-3.93,0-5.9l5.89,0V49.3c-2,0-3.93,0-5.89,0,0-2,0-3.93,0-5.89Z"/></g></g></svg>