<svg xmlns="http://www.w3.org/2000/svg" viewBox="0 0 100 100"><defs><style>.cls-1{fill:#231f20;}</style></defs><g id="socials"><g id="google_" data-name="google+"><path class="cls-1" d="M50,0a50,50,0,1,0,50,50A50,50,0,0,0,50,0Zm0,95A45,45,0,1,1,95,50,45.05,45.05,0,0,1,50,95Z"/><path class="cls-1" d="M38.45,31.59c-.49,0-1,0-1.49.07-10.64.12-20,10-19.55,20.58a20.61,20.61,0,0,0,13.9,19.49,21.63,21.63,0,0,0,6.84,1.1c5.86,0,11.73-2.32,15.38-7s4.58-10.75,4.18-16.48c-3.54,0-7.07,0-10.61,0l-9.11,0c0,2.34,0,4.67,0,7,3.94.11,7.88.06,11.81.14-1,3.41-3.25,6.58-6.69,7.81a11.92,11.92,0,0,1-4.79,1c-5.42,0-10.79-3.5-12.4-8.85-2.52-6.66,1.61-14.7,8.42-16.64a9.89,9.89,0,0,1,3.36-.57,17.52,17.52,0,0,1,8.83,3c1.83-1.71,3.54-3.54,5.22-5.39a21,21,0,0,0-13.31-5.15Z"/><path class="cls-1" d="M70.5,43.38c0,2,0,3.93,0,5.88l-5.88,0v5.87l5.88,0c0,2,0,3.92,0,5.89h5.87c0-2,0-3.93,0-5.9l5.89,0V49.3c-2,0-3.93,0-5.89,0,0-2,0-3.93,0-5.89Z"/></g></g></svg>