<svg id="Layer_1" data-name="Layer 1" xmlns="http://www.w3.org/2000/svg" viewBox="0 0 400 400"><defs><style>.cls-1{fill:#231f20;}</style></defs><path class="cls-1" d="M154.11,25a3.88,3.88,0,0,1,1.95,1.52l.32.4.34.39a13.79,13.79,0,0,1,2.88,8.88v109.1c-.11,7-3.94,11.38-6.06,11.51h-123c-.15,0-1-.27-2-1.54l-.32-.4-.34-.38A13.68,13.68,0,0,1,25,145.64V36.19a13.79,13.79,0,0,1,2.88-8.88l.33-.38.31-.38c1-1.27,1.86-1.55,2-1.55H154.11m0-25H30.53C22.45,0,14.72,3.89,9.12,10.78A38.5,38.5,0,0,0,0,36.35v109.1A38.36,38.36,0,0,0,9.12,171c5.6,6.89,13.33,10.78,21.41,10.78H153.84c16.9-.25,30.54-16.38,30.76-36.35V36.35a38.45,38.45,0,0,0-9.12-25.57C169.9,3.89,162.17,0,154.11,0Z"/><path class="cls-1" d="M30.58,243.15H153.51c2.14.15,6,4.54,6.09,11.56V363.44c-.11,7-3.95,11.42-6.09,11.56H30.58c-.15,0-1-.28-2-1.57L28.2,373l-.35-.4A13.59,13.59,0,0,1,25,363.81V254.35a13.57,13.57,0,0,1,2.85-8.81l.35-.4.34-.42c1.05-1.29,1.89-1.57,2-1.57m0-25c-8.1,0-15.85,3.91-21.46,10.83A38.26,38.26,0,0,0,0,254.55V363.6a38.26,38.26,0,0,0,9.12,25.57C14.73,396.09,22.48,400,30.58,400H153.84c16.91-.28,30.55-16.42,30.76-36.4v-109c-.21-20-13.85-36.12-30.76-36.4H30.58Z"/><path class="cls-1" d="M245.87,25h123.6c.15,0,1,.28,2,1.55l.31.38.33.38A13.79,13.79,0,0,1,375,36.19v109.1c-.11,7-3.94,11.38-6.06,11.51H246.46c-2.12-.13-6-4.5-6.06-11.51V36.19a13.79,13.79,0,0,1,2.88-8.88l.34-.39.33-.41A4,4,0,0,1,245.87,25h0m0-25c-8.07,0-15.78,3.89-21.36,10.78a38.45,38.45,0,0,0-9.12,25.57v109.1c.22,20,13.86,36.1,30.76,36.35H369.24c16.9-.25,30.54-16.38,30.76-36.35V36.35a38.5,38.5,0,0,0-9.12-25.57C385.28,3.89,377.55,0,369.47,0H245.88Z"/><path class="cls-1" d="M368.91,243.15c2.14.15,6,4.54,6.09,11.56V363.44c-.11,7-3.95,11.42-6.09,11.56H246.49c-2.14-.14-6-4.54-6.09-11.56V254.71c.11-7,3.95-11.41,6.09-11.56H368.91m.33-25H246.16c-16.9.28-30.54,16.42-30.76,36.4V363.6c.22,20,13.86,36.12,30.76,36.4H369.24c16.9-.28,30.54-16.42,30.76-36.4v-109c-.22-20-13.86-36.12-30.76-36.4Z"/></svg>