<svg xmlns="http://www.w3.org/2000/svg" viewBox="0 0 400 400"><defs><style>.cls-1{fill:#616262;}</style></defs><g id="Layer_2" data-name="Layer 2"><g id="Layer_1-2" data-name="Layer 1"><g id="Layer_2-2" data-name="Layer 2"><g id="Layer_1-2-2" data-name="Layer 1-2"><path class="cls-1" d="M373.61,221.73H246.79A26.4,26.4,0,0,0,220.4,248V373.73A26.4,26.4,0,0,0,246.79,400H373.61A26.4,26.4,0,0,0,400,373.73V248a26.39,26.39,0,0,0-26.39-26.27Z"/><path class="cls-1" d="M246.79,0A26.4,26.4,0,0,0,220.4,26.27V152.05a26.39,26.39,0,0,0,26.39,26.27H373.61A26.4,26.4,0,0,0,400,152.05V26.27A26.39,26.39,0,0,0,373.61,0H246.79Z"/><path class="cls-1" d="M153.21,0H26.39A26.4,26.4,0,0,0,0,26.27V152.05a26.39,26.39,0,0,0,26.39,26.27H153.21a26.4,26.4,0,0,0,26.39-26.27V26.27A26.39,26.39,0,0,0,153.21,0Z"/><path class="cls-1" d="M153.21,221.73H26.39A26.4,26.4,0,0,0,0,248V373.73A26.4,26.4,0,0,0,26.39,400H153.21a26.4,26.4,0,0,0,26.39-26.27V248a26.39,26.39,0,0,0-26.39-26.27Z"/></g></g></g></g></svg>