<svg xmlns="http://www.w3.org/2000/svg" viewBox="0 0 400 254.92"><defs><style>.cls-1{fill:#231f20;}</style></defs><g id="Layer_2" data-name="Layer 2"><g id="Layer_1-2" data-name="Layer 1"><g id="user_lineal" data-name="user lineal"><path class="cls-1" d="M200,118.63A59.32,59.32,0,1,0,140.7,59.29v0A59.4,59.4,0,0,0,200,118.63Zm0-100.76a41.47,41.47,0,1,1-41.45,41.49v0A41.51,41.51,0,0,1,200,17.87Z"/><path class="cls-1" d="M234.09,136.32h-68a76.47,76.47,0,0,0-76.47,76.34v17.05a25.27,25.27,0,0,0,25.21,25.21H285.2a25.27,25.27,0,0,0,25.21-25.21V212.66A76.47,76.47,0,0,0,234.09,136.32Zm58.47,93.39a7.38,7.38,0,0,1-7.36,7.36H114.8a7.38,7.38,0,0,1-7.36-7.36V212.66A58.62,58.62,0,0,1,166.06,154h68a58.62,58.62,0,0,1,58.47,58.63Z"/></g><path class="cls-1" d="M342.61,130.38h-50a57.73,57.73,0,0,0-14.36,1.81l-2.84.72,2.47,1.58a101.55,101.55,0,0,1,14.34,11.12l.37.35h50a41.9,41.9,0,0,1,41.73,41.83v12.54a4.18,4.18,0,0,1-4.14,4.15H323.3l.19,1.44a101.58,101.58,0,0,1,.92,13v1.27h55.78A19.9,19.9,0,0,0,400,200.33V187.79A57.61,57.61,0,0,0,342.61,130.38Z"/><path class="cls-1" d="M317.52,119.92h0a44.9,44.9,0,0,0,0-89.79h0a44.9,44.9,0,0,0,0,89.79ZM288.32,75a29.32,29.32,0,0,1,29.21-29.21h0a29.23,29.23,0,0,1,0,58.45h0A29.23,29.23,0,0,1,288.32,75Z"/><path class="cls-1" d="M107.42,130.38h-50A57.61,57.61,0,0,0,0,187.79v12.54a19.9,19.9,0,0,0,19.81,19.82H75.59v-1.27a101.32,101.32,0,0,1,.92-13l.19-1.44H19.82a4.18,4.18,0,0,1-4.15-4.15V187.79A41.9,41.9,0,0,1,57.4,146h50l.36-.35a102.21,102.21,0,0,1,14.35-11.12l2.47-1.58-2.84-.72A57.73,57.73,0,0,0,107.42,130.38Z"/><path class="cls-1" d="M82.46,30.13h0a44.9,44.9,0,0,0,0,89.79h0A45,45,0,0,0,127.35,75v0A44.9,44.9,0,0,0,82.46,30.13Zm29.22,44.93a29.26,29.26,0,0,1-29.22,29.21h0a29.23,29.23,0,0,1,0-58.45h0A29.32,29.32,0,0,1,111.68,75H113Z"/></g></g></svg>