<svg viewBox="0 0 48 48" fill="none" xmlns="http://www.w3.org/2000/svg">
<g clip-path="url(#clip0_1231_16216)">
<path fill-rule="evenodd" clip-rule="evenodd" d="M24 46C36.1503 46 46 36.1503 46 24C46 11.8497 36.1503 2 24 2C11.8497 2 2 11.8497 2 24C2 36.1503 11.8497 46 24 46ZM24 48C37.2548 48 48 37.2548 48 24C48 10.7452 37.2548 0 24 0C10.7452 0 0 10.7452 0 24C0 37.2548 10.7452 48 24 48Z" fill="#4A5468"/>
<path fill-rule="evenodd" clip-rule="evenodd" d="M22.5133 17.3626C20.6939 15.5432 17.744 15.5432 15.9246 17.3626C14.1052 19.182 14.1052 22.1319 15.9246 23.9513L16.7043 24.731C16.7171 24.7437 16.7294 24.7568 16.7414 24.7701L24.0001 32.0289L31.2585 24.7705C31.2706 24.7571 31.283 24.7439 31.2959 24.731L32.0756 23.9513C33.895 22.1319 33.895 19.182 32.0756 17.3626C30.2562 15.5432 27.3064 15.5432 25.4869 17.3626L24.7072 18.1423C24.3167 18.5328 23.6835 18.5328 23.293 18.1423L22.5133 17.3626ZM32.7486 26.1068C32.7365 26.1202 32.724 26.1334 32.7112 26.1462L24.7083 34.1491C24.5207 34.3367 24.2662 34.4421 24.0009 34.442H23.9993C23.734 34.4421 23.4796 34.3367 23.292 34.1491L15.2891 26.1462C15.2762 26.1333 15.2637 26.1202 15.2517 26.1068L14.5104 25.3655C11.9099 22.765 11.9099 18.5489 14.5104 15.9484C17.1109 13.3479 21.3271 13.3479 23.9275 15.9484L24.0001 16.021L24.0727 15.9484C26.6732 13.3479 30.8894 13.3479 33.4898 15.9484C36.0903 18.5489 36.0903 22.765 33.4898 25.3655L32.7486 26.1068Z" fill="#4A5468"/>
</g>
<defs>
</defs>
</svg>
