<svg xmlns="http://www.w3.org/2000/svg" viewBox="0 0 400 344.62"><defs><style>.cls-1{fill:#616262;}</style></defs><g id="Layer_2" data-name="Layer 2"><g id="Layer_1-2" data-name="Layer 1"><path id="heart" class="cls-1" d="M200,344.62A4.45,4.45,0,0,1,197,343.4L31.34,180.25q-.82-.81-1.62-1.62A104.57,104.57,0,0,1,31.36,30.94,106.76,106.76,0,0,1,106.78,0h.53A106.85,106.85,0,0,1,183,31.16l17.06,16.76,16.79-16.69a109,109,0,0,1,151.79,0L370,32.54a104.68,104.68,0,0,1-1.29,148h0L203,343.45a4,4,0,0,1-2.88,1.17Z"/></g></g></svg>