<svg xmlns="http://www.w3.org/2000/svg" viewBox="0 0 100 100"><defs><style>.cls-1{fill:#231f20;}</style></defs><g id="add_to_favorites" data-name="add to favorites"><g id="add_to_favorites_fill"><path class="cls-1" d="M50,0a50,50,0,1,0,50,50A50.06,50.06,0,0,0,50,0Zm0,95.33A45.33,45.33,0,1,1,95.33,50,45.39,45.39,0,0,1,50,95.33Z"/><path class="cls-1" d="M75.15,30.83a16.78,16.78,0,0,0-23.49,0L50,32.46l-1.67-1.65a16.77,16.77,0,0,0-23.49,0,16.2,16.2,0,0,0,0,23.16L48.77,77.5A1.77,1.77,0,0,0,50,78a1.72,1.72,0,0,0,1.21-.49L75.13,54a16.24,16.24,0,0,0,0-23.17Z"/></g></g></svg>