<svg xmlns="http://www.w3.org/2000/svg" viewBox="0 0 400 400"><defs><style>.cls-1{fill:#616262;}</style></defs><g id="Layer_2" data-name="Layer 2"><g id="Layer_1-2" data-name="Layer 1"><g id="heart_circle" data-name="heart circle"><path class="cls-1" d="M200,286.16a2.27,2.27,0,0,1-1.54-.61L115.67,204l-.81-.81a52.29,52.29,0,0,1,.82-73.85,53.41,53.41,0,0,1,37.71-15.47h.27a53.5,53.5,0,0,1,37.84,15.58l8.5,8.35,8.39-8.34a54.5,54.5,0,0,1,75.9,0l.67.65a52.35,52.35,0,0,1-.65,74h0L201.5,285.57a2,2,0,0,1-1.44.59Z"/><path class="cls-1" d="M200,20A180,180,0,0,1,327.28,327.28,180,180,0,0,1,72.72,72.72,178.82,178.82,0,0,1,200,20m0-20C89.54,0,0,89.54,0,200S89.54,400,200,400s200-89.54,200-200S310.46,0,200,0Z"/></g></g></g></svg>