<svg xmlns="http://www.w3.org/2000/svg" viewBox="0 0 400 400"><defs><style>.cls-1{fill:#616262;}</style></defs><g id="Layer_2" data-name="Layer 2"><g id="Layer_1-2" data-name="Layer 1"><g id="heart_circle" data-name="heart circle"><path class="cls-1" d="M200,20A180,180,0,0,1,327.28,327.28,180,180,0,0,1,72.72,72.72,178.82,178.82,0,0,1,200,20m0-20C89.54,0,0,89.54,0,200S89.54,400,200,400s200-89.54,200-200S310.46,0,200,0Z"/><path class="cls-1" d="M150.68,146.32a39.2,39.2,0,0,1,27.84,11.5l0,0,0,0,8.53,8.38L197,176l9.82-9.75,8.33-8.28a40.49,40.49,0,0,1,56.34,0l.54.53a38.37,38.37,0,0,1-.54,54.07v0l0,0-74.51,73.24-74.5-73.38c-.23-.22-.45-.44-.66-.67a38.34,38.34,0,0,1,.63-54l0,0,0,0a39.17,39.17,0,0,1,27.73-11.41h.52m0-14h-.52a53.4,53.4,0,0,0-37.58,15.47,52.29,52.29,0,0,0-.82,73.85l.81.81L195.39,304a2.2,2.2,0,0,0,1.52.61H197a2,2,0,0,0,1.42-.59l82.84-81.42h0a52.34,52.34,0,0,0,.65-74l-.67-.65a54.49,54.49,0,0,0-75.9,0l-8.39,8.34-8.53-8.38a53.46,53.46,0,0,0-37.72-15.58Z"/></g></g></g></svg>