<svg xmlns="http://www.w3.org/2000/svg" viewBox="0 0 400 400"><defs><style>.cls-1{fill:#616262;}</style></defs><g id="Layer_2" data-name="Layer 2"><g id="Layer_1-2" data-name="Layer 1"><g id="info"><path class="cls-1" d="M200,20c99.25,0,180,80.75,180,180S299.25,380,200,380,20,299.25,20,200,100.75,20,200,20m0-20C89.72,0,0,89.72,0,200S89.72,400,200,400s200-89.72,200-200S310.28,0,200,0Z"/><path class="cls-1" d="M200,87.26a17.09,17.09,0,1,0,17.08,17.1A17.09,17.09,0,0,0,200,87.26Z"/><path class="cls-1" d="M200,176.53a10.72,10.72,0,0,0-10.71,10.72V302a10.71,10.71,0,0,0,21.42,0V187.25A10.72,10.72,0,0,0,200,176.53Z"/></g></g></g></svg>