<svg viewBox="0 0 44 44" fill="none" xmlns="http://www.w3.org/2000/svg">
<circle cx="22" cy="22" r="22" fill="url(#paint0_linear_727_9930)"/>
<path d="M27.3891 8.66667H16.6108C12.2304 8.66667 8.66663 12.2304 8.66663 16.6108V27.3892C8.66663 31.7696 12.2304 35.3333 16.6108 35.3333H27.3891C31.7696 35.3333 35.3333 31.7696 35.3333 27.3892V16.6108C35.3332 12.2304 31.7695 8.66667 27.3891 8.66667ZM32.6506 27.3892C32.6506 30.295 30.295 32.6507 27.3891 32.6507H16.6108C13.705 32.6507 11.3493 30.295 11.3493 27.3892V16.6108C11.3493 13.705 13.705 11.3493 16.6108 11.3493H27.3891C30.295 11.3493 32.6506 13.705 32.6506 16.6108V27.3892Z" fill="white"/>
<path d="M22 15.1031C18.197 15.1031 15.103 18.197 15.103 22C15.103 25.8029 18.197 28.8969 22 28.8969C25.803 28.8969 28.8969 25.803 28.8969 22C28.8969 18.197 25.803 15.1031 22 15.1031ZM22 26.2143C19.6725 26.2143 17.7857 24.3275 17.7857 22C17.7857 19.6725 19.6725 17.7857 22 17.7857C24.3275 17.7857 26.2143 19.6725 26.2143 22C26.2143 24.3275 24.3274 26.2143 22 26.2143Z" fill="white"/>
<path d="M28.9102 16.8075C29.823 16.8075 30.5629 16.0676 30.5629 15.1549C30.5629 14.2421 29.823 13.5022 28.9102 13.5022C27.9975 13.5022 27.2576 14.2421 27.2576 15.1549C27.2576 16.0676 27.9975 16.8075 28.9102 16.8075Z" fill="white"/>
<defs>
<linearGradient id="paint0_linear_727_9930" x1="22" y1="0" x2="22" y2="44" gradientUnits="userSpaceOnUse">
<stop stop-color="#7024C4"/>
<stop offset="0.406002" stop-color="#C21975"/>
<stop offset="0.69886" stop-color="#C74C4D"/>
<stop offset="1" stop-color="#E09B3D"/>
</linearGradient>
</defs>
</svg>
