<svg xmlns="http://www.w3.org/2000/svg" viewBox="0 0 100 100"><defs><style>.cls-1{fill:#231f20;}</style></defs><g id="link"><g id="link_1"><path class="cls-1" d="M25.07,63c12.19,11.79,32.42,9.22,41.39-4.28a1.15,1.15,0,0,0-.14-1.42,45.23,45.23,0,0,0-8.89-7.35,1.06,1.06,0,0,0-1.49.42,13.79,13.79,0,0,1-5.42,5.26h0a13.23,13.23,0,0,1-9,1.12h0c-4.08-.84-7.87-5.22-11.38-8.56v0L17.34,35.64a12.85,12.85,0,0,1-.1-18.25,13,13,0,0,1,18.34-.18l7.8,7.58a1.34,1.34,0,0,0,1.37.31,35.86,35.86,0,0,1,17.6-1,.15.15,0,0,0,.14-.26L46,7.68A27.07,27.07,0,1,0,8.12,46.35L25,62.9l.07.06Z"/><path class="cls-1" d="M68.78,32.77h0s0,0,0,0a27.76,27.76,0,0,0-19.68-2.4h0a27.22,27.22,0,0,0-15.63,11A1.5,1.5,0,0,0,33.55,43a26.23,26.23,0,0,0,8.77,7.26,1.21,1.21,0,0,0,1.58-.48,13.65,13.65,0,0,1,5.31-5.21h0a12.41,12.41,0,0,1,8.17-1.31h0c4.47.58,8.57,5.09,12.26,8.68h0L82.36,64.38A13,13,0,0,1,64.21,82.91L56.38,75.3A1.32,1.32,0,0,0,55,75a37.75,37.75,0,0,1-17.55,1.08.16.16,0,0,0-.14.27l16.23,15.9a27.51,27.51,0,0,0,38.49-.19,27.16,27.16,0,0,0-.39-38.29c-4.05-3.62-18.4-19.12-22.9-21Z"/></g></g></svg>