<svg xmlns="http://www.w3.org/2000/svg" viewBox="0 0 100 100"><defs><style>.cls-1{fill:#0a7bba;}.cls-2{fill:#f2f2f2;}</style></defs><g id="socials"><g id="linkedin"><circle class="cls-1" cx="50" cy="50" r="50"/><path class="cls-2" d="M79.87,54V74.64h-12V55.4c0-4.82-1.72-8.12-6.05-8.12a6.54,6.54,0,0,0-6.13,4.37,8.26,8.26,0,0,0-.4,2.91V74.64h-12s.16-32.58,0-35.95h12v5.09s-.06.08-.08.12h.08v-.12a11.86,11.86,0,0,1,10.77-5.93C74,37.85,79.87,43,79.87,54Zm-49-32.66c-4.09,0-6.76,2.69-6.76,6.21s2.59,6.22,6.6,6.22h.08c4.17,0,6.76-2.76,6.76-6.22S35,21.36,30.89,21.36ZM24.84,74.64H36.78V38.69H24.84Z"/></g></g></svg>