<svg xmlns="http://www.w3.org/2000/svg" viewBox="0 0 100 100"><defs><style>.cls-1{fill:#231f20;}</style></defs><g id="link"><path id="link_2" class="cls-1" d="M94.85,61,82.11,48.28a17.77,17.77,0,0,0-25.25.25l-5.39-5.39a17.26,17.26,0,0,0,5.39-12.81,16.92,16.92,0,0,0-5.08-12.44L39.15,5.21A16.79,16.79,0,0,0,26.65,0,16.91,16.91,0,0,0,14.22,5.09L5.21,14A16.73,16.73,0,0,0,0,26.47,17,17,0,0,0,5.15,39L17.89,51.72a17,17,0,0,0,12.5,5.14,17.16,17.16,0,0,0,12.75-5.39l5.39,5.39a17.22,17.22,0,0,0-5.39,12.81,16.92,16.92,0,0,0,5.08,12.44L60.85,94.79a17.66,17.66,0,0,0,24.93.12l9-8.94A16.73,16.73,0,0,0,100,73.53,17,17,0,0,0,94.85,61ZM43.14,34.8c-.13-.12-.5-.5-1.14-1.16s-1.07-1.09-1.31-1.32-.64-.53-1.17-.92A5,5,0,0,0,38,30.61a6,6,0,0,0-1.69-.22,5.87,5.87,0,0,0-5.88,5.88A6,6,0,0,0,30.61,38a5,5,0,0,0,.79,1.56c.39.53.7.92.92,1.17s.67.68,1.32,1.31l1.16,1.14A5.93,5.93,0,0,1,30.39,45a5.61,5.61,0,0,1-4.16-1.66L13.48,30.64a5.7,5.7,0,0,1-1.72-4.17,5.61,5.61,0,0,1,1.72-4.1l9-9a5.91,5.91,0,0,1,4.16-1.65,5.67,5.67,0,0,1,4.17,1.71L43.44,26.16a5.68,5.68,0,0,1,1.72,4.17A6,6,0,0,1,43.14,34.8ZM86.52,77.63l-9,9a5.89,5.89,0,0,1-4.16,1.59,5.65,5.65,0,0,1-4.17-1.65L56.56,73.83a5.64,5.64,0,0,1-1.72-4.16,5.92,5.92,0,0,1,2-4.47L58,66.36q.95,1,1.32,1.32c.24.22.63.53,1.16.92a4.79,4.79,0,0,0,1.56.79,6,6,0,0,0,1.69.22,5.86,5.86,0,0,0,5.88-5.88A6.36,6.36,0,0,0,69.4,62a5,5,0,0,0-.8-1.56c-.39-.53-.7-.92-.92-1.17S67,58.63,66.36,58L65.2,56.86a5.84,5.84,0,0,1,4.41-2,5.64,5.64,0,0,1,4.16,1.72L86.52,69.36a5.71,5.71,0,0,1,1.71,4.17A5.6,5.6,0,0,1,86.52,77.63Z"/></g></svg>