<svg xmlns="http://www.w3.org/2000/svg" viewBox="0 0 400 400"><defs><style>.cls-1{fill:#616262;}</style></defs><g id="Layer_2" data-name="Layer 2"><g id="Layer_1-2" data-name="Layer 1"><path id="link" class="cls-1" d="M385.39,264.23l-67.9-67.89a49.9,49.9,0,0,0-70.56,0l-18.24,18.24-43.27-43.27,18.24-18.24a49.9,49.9,0,0,0,0-70.56l-67.89-67.9a49.91,49.91,0,0,0-70.57,0L14.61,65.2a49.91,49.91,0,0,0,0,70.57l67.9,67.89a49.9,49.9,0,0,0,70.56,0l18.24-18.24,43.27,43.27-18.24,18.24a49.9,49.9,0,0,0,0,70.56l67.89,67.9a49.91,49.91,0,0,0,70.57,0l50.59-50.59A49.91,49.91,0,0,0,385.39,264.23ZM139,189.55a30,30,0,0,1-42.34,0l-67.89-67.9a30,30,0,0,1,0-42.34L79.31,28.73a29.94,29.94,0,0,1,42.34,0l67.9,67.89a30,30,0,0,1,0,42.34L171.31,157.2l-29.94-29.95a10,10,0,0,0-14.12,14.12l29.95,29.94ZM371.27,320.69l-50.58,50.58a29.94,29.94,0,0,1-42.34,0l-67.9-67.89a30,30,0,0,1,0-42.34l18.24-18.24,29.94,29.95a10,10,0,0,0,14.12-14.12L242.8,228.69,261,210.45a30,30,0,0,1,42.34,0l67.89,67.9a29.94,29.94,0,0,1,0,42.34Z"/></g></g></svg>