<svg viewBox="0 0 48 48" fill="none" xmlns="http://www.w3.org/2000/svg">
<g clip-path="url(#clip0_1231_16213)">
<path fill-rule="evenodd" clip-rule="evenodd" d="M24 46C36.1503 46 46 36.1503 46 24C46 11.8497 36.1503 2 24 2C11.8497 2 2 11.8497 2 24C2 36.1503 11.8497 46 24 46ZM24 48C37.2548 48 48 37.2548 48 24C48 10.7452 37.2548 0 24 0C10.7452 0 0 10.7452 0 24C0 37.2548 10.7452 48 24 48Z" fill="#4A5468"/>
<path d="M28.9957 13.0666C27.4225 13.053 25.9069 13.6577 24.7753 14.7507L24.765 14.7608L23.045 16.4708C22.6533 16.8602 22.6515 17.4933 23.0408 17.885C23.4302 18.2767 24.0634 18.2785 24.455 17.8891L26.1696 16.1845C26.9235 15.4589 27.9318 15.0575 28.9783 15.0666C30.0271 15.0757 31.0304 15.4963 31.772 16.238C32.5136 16.9796 32.9343 17.9829 32.9434 19.0316C32.9525 20.0777 32.5514 21.0856 31.8264 21.8393L28.8329 24.8329C28.4274 25.2385 27.9392 25.5523 27.4018 25.7528C26.8644 25.9533 26.2902 26.0358 25.7181 25.9949C25.146 25.9539 24.5894 25.7903 24.086 25.5153C23.5827 25.2403 23.1443 24.8603 22.8008 24.401C22.47 23.9587 21.8433 23.8684 21.401 24.1992C20.9588 24.53 20.8684 25.1567 21.1992 25.5989C21.7146 26.2879 22.3721 26.858 23.1271 27.2705C23.8821 27.683 24.717 27.9283 25.5752 27.9897C26.4334 28.0512 27.2947 27.9274 28.1008 27.6267C28.907 27.326 29.639 26.8554 30.2472 26.2469L33.2471 23.2471L33.2593 23.2347C34.3522 22.1031 34.957 20.5875 34.9433 19.0143C34.9297 17.4411 34.2986 15.9362 33.1862 14.8238C32.0738 13.7113 30.5689 13.0803 28.9957 13.0666Z" fill="#4A5468"/>
<path d="M22.4247 20.0102C21.5666 19.9487 20.7052 20.0725 19.8991 20.3732C19.0931 20.6739 18.3611 21.1444 17.7528 21.7529L14.7528 24.7529L14.7407 24.7652C13.6477 25.8969 13.043 27.4125 13.0566 28.9857C13.0703 30.5588 13.7013 32.0637 14.8138 33.1762C15.9262 34.2886 17.4311 34.9196 19.0043 34.9333C20.5774 34.947 22.0931 34.3422 23.2247 33.2492L23.2371 33.2371L24.9471 31.5271C25.3376 31.1365 25.3376 30.5034 24.9471 30.1129C24.5565 29.7223 23.9234 29.7223 23.5328 30.1129L21.8293 31.8164C21.0756 32.5414 20.0677 32.9425 19.0216 32.9334C17.9729 32.9242 16.9696 32.5036 16.228 31.7619C15.4863 31.0203 15.0657 30.0171 15.0565 28.9683C15.0475 27.9222 15.4485 26.9144 16.1735 26.1606L19.1671 23.1671C19.5726 22.7614 20.0607 22.4476 20.5981 22.2471C21.1355 22.0466 21.7098 21.9641 22.2819 22.0051C22.854 22.046 23.4106 22.2096 23.9139 22.4846C24.4173 22.7596 24.8556 23.1396 25.1992 23.5989C25.53 24.0412 26.1567 24.1315 26.5989 23.8007C27.0412 23.4699 27.1315 22.8432 26.8007 22.401C26.2854 21.712 25.6279 21.142 24.8729 20.7295C24.1178 20.3169 23.2829 20.0716 22.4247 20.0102Z" fill="#4A5468"/>
</g>
<defs>
</defs>
</svg>
