<svg viewBox="0 0 44 44" fill="none" xmlns="http://www.w3.org/2000/svg">
<path d="M0 22C0 9.84974 9.84974 0 22 0C34.1503 0 44 9.84974 44 22C44 34.1503 34.1503 44 22 44C9.84974 44 0 34.1503 0 22Z" fill="#0077B5"/>
<path fill-rule="evenodd" clip-rule="evenodd" d="M16.099 13.3522C16.099 14.6598 15.1147 15.7061 13.5343 15.7061H13.5054C11.9837 15.7061 11 14.6598 11 13.3522C11 12.017 12.0137 11 13.5642 11C15.1147 11 16.0696 12.017 16.099 13.3522ZM15.8004 17.5648V31.1829H11.268V17.5648H15.8004ZM32.146 31.183L32.1461 23.3748C32.1461 19.1919 29.9102 17.2451 26.9276 17.2451C24.5212 17.2451 23.4438 18.5669 22.8422 19.4941V17.5653H18.3092C18.369 18.8431 18.3092 31.1834 18.3092 31.1834H22.8422V23.5779C22.8422 23.1709 22.8716 22.7649 22.9915 22.4735C23.319 21.6604 24.0649 20.8185 25.3171 20.8185C26.9578 20.8185 27.6137 22.0673 27.6137 23.8973V31.183H32.146Z" fill="white"/>
</svg>
