<svg xmlns="http://www.w3.org/2000/svg" viewBox="0 0 393 384.59"><defs><style>.cls-1{fill:#616262;}</style></defs><g id="Layer_2" data-name="Layer 2"><g id="Layer_1-2" data-name="Layer 1"><circle class="cls-1" cx="32.43" cy="352.16" r="32.43"/><path class="cls-1" d="M393,352.16a14.64,14.64,0,0,0-14.62-14.62H118.92a14.62,14.62,0,0,0,0,29.24H378.38A14.64,14.64,0,0,0,393,352.16Z"/><circle class="cls-1" cx="32.43" cy="192.3" r="32.43"/><path class="cls-1" d="M393,192.3a14.63,14.63,0,0,0-14.62-14.62H118.92a14.62,14.62,0,0,0,0,29.24H378.38A14.64,14.64,0,0,0,393,192.3Z"/><circle class="cls-1" cx="32.43" cy="32.43" r="32.43"/><path class="cls-1" d="M118.92,47.05H378.38a14.62,14.62,0,1,0,0-29.24H118.92a14.62,14.62,0,0,0,0,29.24Z"/></g></g></svg>