<svg xmlns="http://www.w3.org/2000/svg" viewBox="0 0 100 100"><defs><style>.cls-1{fill:#231f20;}</style></defs><g id="list_view_di" data-name="list view di"><g id="list_view-2" data-name="list_view"><path d="M32.9,32.9v8.59h8.6V32.9Zm5.67,5.66H35.85V35.85h2.72Z"/><path d="M32.9,58.5v8.59h8.6V58.5Zm5.67,5.65H35.85V61.44h2.72Z"/><path d="M32.9,45.71v8.58h8.6V45.71Zm5.67,5.65H35.85V48.65h2.72Z"/><rect x="47.16" y="35.76" width="19.91" height="2.89"/><rect x="47.16" y="48.55" width="19.91" height="2.9"/><rect class="cls-1" x="47.16" y="61.35" width="19.91" height="2.89"/><path class="cls-1" d="M50,0a50,50,0,1,0,50,50A50.06,50.06,0,0,0,50,0Zm0,96.69A46.69,46.69,0,1,1,96.69,50,46.74,46.74,0,0,1,50,96.69Z"/></g></g></svg>