<svg xmlns="http://www.w3.org/2000/svg" viewBox="0 0 399.89 370"><defs><style>.cls-1{fill:#616262;}</style></defs><g id="Layer_2" data-name="Layer 2"><g id="Layer_1-2" data-name="Layer 1"><path class="cls-1" d="M60,30.23v-.56A28.35,28.35,0,0,0,51.48,8.93l-.11-.14h-.09l-.09-.09-.09-.1A28.28,28.28,0,0,0,30.9,0H29.17A28.43,28.43,0,0,0,8.94,8.53l-.1.1-.05.08-.16.08-.08.09A28.26,28.26,0,0,0,0,29.67v.77A28.2,28.2,0,0,0,8.52,51.07l.1.09.11.11h0l.11.11.11.11A28,28,0,0,0,29,60h1.87A28.07,28.07,0,0,0,51,51.54l.11-.11.1-.1h0l.11-.11.11-.1a28.19,28.19,0,0,0,8.51-20.66Z"/><path class="cls-1" d="M137.13,18.4H388.26A11.63,11.63,0,0,1,399.89,30h0a11.63,11.63,0,0,1-11.63,11.63H137.13A11.63,11.63,0,0,1,125.5,30h0A11.63,11.63,0,0,1,137.13,18.4Z"/><path class="cls-1" d="M60,185.23v-.56a28.35,28.35,0,0,0-8.52-20.74l-.11-.14h-.09l-.09-.09-.09-.1A28.28,28.28,0,0,0,30.9,155H29.17a28.43,28.43,0,0,0-20.23,8.53l-.1.1-.05.08-.16.08-.08.09A28.26,28.26,0,0,0,0,184.67v.77a28.2,28.2,0,0,0,8.51,20.63l.1.09.11.11h0l.11.11.11.11A28,28,0,0,0,29,215h1.87A28.07,28.07,0,0,0,51,206.54l.11-.11.1-.1h0l.11-.11.11-.1a28.19,28.19,0,0,0,8.51-20.66Z"/><path class="cls-1" d="M137.13,173.38H388.26A11.63,11.63,0,0,1,399.89,185h0a11.63,11.63,0,0,1-11.63,11.63H137.13A11.63,11.63,0,0,1,125.5,185h0A11.63,11.63,0,0,1,137.13,173.38Z"/><path class="cls-1" d="M60,340.23v-.56a28.35,28.35,0,0,0-8.52-20.74l-.11-.14h-.09l-.09-.09-.09-.1A28.28,28.28,0,0,0,30.9,310H29.17a28.43,28.43,0,0,0-20.23,8.53l-.1.1-.05.08-.16.08-.08.09A28.26,28.26,0,0,0,0,339.67v.77a28.2,28.2,0,0,0,8.51,20.63l.1.09.11.11h0l.11.11.11.11A28,28,0,0,0,29,370h1.87A28.07,28.07,0,0,0,51,361.54l.11-.11.1-.1h0l.11-.11.11-.1a28.19,28.19,0,0,0,8.51-20.66Z"/><path class="cls-1" d="M137.13,328.38H388.26A11.63,11.63,0,0,1,399.89,340h0a11.63,11.63,0,0,1-11.63,11.63H137.13A11.63,11.63,0,0,1,125.5,340h0A11.63,11.63,0,0,1,137.13,328.38Z"/></g></g></svg>