<?xml version="1.0" encoding="utf-8"?>
<!-- Generator: Adobe Illustrator 19.0.0, SVG Export Plug-In . SVG Version: 6.00 Build 0)  -->
<svg version="1.1" id="Layer_1" xmlns="http://www.w3.org/2000/svg" xmlns:xlink="http://www.w3.org/1999/xlink" x="0px" y="0px"
	 viewBox="-324 214.7 193 166.6" style="enable-background:new -324 214.7 193 166.6;" xml:space="preserve">
<style type="text/css">
	.st0{fill:#138C75;}
</style>
<g id="Layer_2">
	<g id="Capa_1">
		<path class="st0" d="M-142.7,316.7h-29.5v-29.5c0.2-6.4-4.9-11.8-11.3-12c-6.4-0.2-11.8,4.9-12,11.3c0,0.2,0,0.5,0,0.7v29.5h-29.5
			c-6.4,0.2-11.5,5.6-11.3,12c0.2,6.2,5.1,11.1,11.3,11.3h29.5v29.5c-0.2,6.4,4.9,11.8,11.3,12c6.4,0.2,11.8-4.9,12-11.3
			c0-0.2,0-0.5,0-0.7v-29.5h29.5c6.4-0.2,11.5-5.6,11.3-12C-131.6,321.9-136.5,316.9-142.7,316.7z"/>
		<path class="st0" d="M-191.1,214.7h-115.6c-9.5,0-17.2,6.6-17.2,14.7c0,8.1,7.7,14.7,17.2,14.7h115.6c9.5,0,17.2-6.6,17.2-14.7
			C-173.9,221.3-181.6,214.7-191.1,214.7z"/>
		<path class="st0" d="M-188,263.9c-1-0.2-2.1-0.3-3.1-0.3h-115.6c-9.5,0-17.2,6.6-17.2,14.7s7.7,14.7,17.2,14.7h99.2v-5.8
			C-207.6,275.7-199.3,265.9-188,263.9z"/>
		<path class="st0" d="M-242.7,312.6h-64c-9.5,0-17.3,6.6-17.3,14.7s7.7,14.7,17.2,14.7h62.3C-250.8,333-250.1,320.8-242.7,312.6z"
			/>
	</g>
</g>
</svg>
