<?xml version="1.0" encoding="utf-8"?>
<!-- Generator: Adobe Illustrator 19.0.0, SVG Export Plug-In . SVG Version: 6.00 Build 0)  -->
<svg version="1.1" id="Layer_1" xmlns="http://www.w3.org/2000/svg" xmlns:xlink="http://www.w3.org/1999/xlink" x="0px" y="0px"
	 viewBox="-322 211.3 196 173" style="enable-background:new -322 211.3 196 173;" xml:space="preserve">
<style type="text/css">
	.st0{fill:#BC0202;}
</style>
<g id="Layer_2">
	<g id="Capa_1">
		<path class="st0" d="M-189.1,211.3h-115.6c-9.5,0-17.2,6.6-17.2,14.7c0,8.1,7.7,14.7,17.2,14.7h115.6c9.5,0,17.2-6.6,17.2-14.7
			C-171.9,217.9-179.6,211.3-189.1,211.3z"/>
		<path class="st0" d="M-194,260.3h-110.8c-9.5,0-17.2,6.6-17.2,14.7c0,8.1,7.7,14.7,17.2,14.7h65.4
			C-228.9,274.1-212.5,263.5-194,260.3z"/>
		<path class="st0" d="M-248.4,309.3h-56.3c-9.5,0-17.2,6.6-17.2,14.7c0,8.1,7.7,14.7,17.2,14.7h54.6
			C-251.7,328.8-251.1,318.8-248.4,309.3z"/>
		<path class="st0" d="M-142.6,287.9c-22.1-22.1-57.8-22.1-79.9,0s-22.1,57.8,0,79.9c22.1,22.1,57.8,22.1,79.9,0c0,0,0,0,0,0
			C-120.5,345.7-120.5,309.9-142.6,287.9z M-211.4,356.7c-16-16-16-41.9,0-57.8s41.9-16,57.8,0s16,41.9,0,57.8c0,0,0,0,0,0
			C-169.6,372.6-195.4,372.6-211.4,356.7z"/>
		<path class="st0" d="M-162.3,336.5l-8.9-8.9l8.9-8.9c2.8-3.3,2.4-8.2-0.8-11c-2.9-2.5-7.3-2.5-10.2,0l-8.9,8.9l-8.9-8.9
			c-3.3-2.8-8.2-2.4-11,0.8c-2.5,2.9-2.5,7.3,0,10.2l8.9,8.9l-8.9,8.9c-3.3,2.8-3.6,7.7-0.8,11c2.8,3.3,7.7,3.6,11,0.8
			c0.3-0.3,0.6-0.5,0.8-0.8l8.9-8.9l8.9,8.9c3.3,2.8,8.2,2.4,11-0.8C-159.8,343.7-159.8,339.4-162.3,336.5z"/>
	</g>
</g>
</svg>
