<svg viewBox="0 0 48 48" fill="none" xmlns="http://www.w3.org/2000/svg">
<g clip-path="url(#clip0_1245_14860)">
<path fill-rule="evenodd" clip-rule="evenodd" d="M24 46C36.1503 46 46 36.1503 46 24C46 11.8497 36.1503 2 24 2C11.8497 2 2 11.8497 2 24C2 36.1503 11.8497 46 24 46ZM24 48C37.2548 48 48 37.2548 48 24C48 10.7452 37.2548 0 24 0C10.7452 0 0 10.7452 0 24C0 37.2548 10.7452 48 24 48Z" fill="#666666"/>
<path fill-rule="evenodd" clip-rule="evenodd" d="M24 18C21.7909 18 20 19.7909 20 22C20 24.2091 21.7909 26 24 26C26.2091 26 28 24.2091 28 22C28 19.7909 26.2091 18 24 18ZM22 22C22 20.8954 22.8954 20 24 20C25.1046 20 26 20.8954 26 22C26 23.1046 25.1046 24 24 24C22.8954 24 22 23.1046 22 22Z" fill="#666666"/>
<path fill-rule="evenodd" clip-rule="evenodd" d="M23.4448 35.8317C23.4448 35.8317 23.4453 35.8321 24 35L23.4448 35.8317C23.7807 36.0556 24.2188 36.056 24.5547 35.8321L24 35C24.5547 35.8321 24.5547 35.8321 24.5547 35.8321L24.5581 35.8298L24.5648 35.8253L24.5877 35.8098C24.6072 35.7966 24.6349 35.7776 24.6704 35.753C24.7415 35.7038 24.8435 35.6321 24.9722 35.5392C25.2295 35.3534 25.5936 35.0822 26.0292 34.7354C26.8987 34.043 28.0606 33.0428 29.226 31.8127C31.5157 29.3958 34 25.9019 34 22C34 19.3478 32.9464 16.8043 31.0711 14.9289C29.1957 13.0536 26.6522 12 24 12C21.3478 12 18.8043 13.0536 16.9289 14.9289C15.0536 16.8043 14 19.3478 14 22C14 25.9019 16.4843 29.3958 18.774 31.8127C19.9394 33.0428 21.1013 34.043 21.9708 34.7354C22.4064 35.0822 22.7705 35.3534 23.0278 35.5392C23.1565 35.6321 23.2585 35.7038 23.3296 35.753C23.3651 35.7776 23.3928 35.7966 23.4123 35.8098L23.4352 35.8253L23.4419 35.8298L23.4448 35.8317ZM18.3431 16.3431C19.8434 14.8429 21.8783 14 24 14C26.1217 14 28.1566 14.8429 29.6569 16.3431C31.1571 17.8434 32 19.8783 32 22C32 25.0981 29.9843 28.1043 27.774 30.4373C26.6894 31.5822 25.6013 32.5195 24.7833 33.1708C24.4789 33.4133 24.213 33.6152 24 33.7726C23.787 33.6152 23.5211 33.4133 23.2167 33.1708C22.3987 32.5195 21.3106 31.5822 20.226 30.4373C18.0157 28.1043 16 25.0981 16 22C16 19.8783 16.8429 17.8434 18.3431 16.3431Z" fill="#666666"/>
</g>
<defs>
</defs>
</svg>
