<svg xmlns="http://www.w3.org/2000/svg" viewBox="0 0 100 100"><g id="map"><path id="map_lineal" d="M98.18,0h-.93L91.19,2.4,72.49,9.82l-5.1,2L67,12l-.36-.13-5.1-1.78L48.28,5.41,37.75,1.73,33,.06,28.22,1.68,18.52,5,9.29,8.11,1.64,10.7C.47,11.28,0,11.62,0,12.58V98.19A1.68,1.68,0,0,0,1.82,100h.89l6.1-2.42,18.7-7.41,1.4-.55h0l3.7-1.47L33,88l.36.13,5.1,1.78,13.12,4.6,10.7,3.74L67,99.94l4.76-1.62,19-6.45,7.58-2.57a2.93,2.93,0,0,0,.35-.21A2.54,2.54,0,0,0,100,87.42V1.82A1.67,1.67,0,0,0,98.18,0ZM28.91,11.48V80.84l-.65.25L9.56,88.51l-1.4.55V17.11l.7-.24,18.7-6.36,1.35-.45Zm34,9v68.9l-1.36-.48-13.74-4.8L37.75,80.52l-.68-.24V10.66l1.36.48L52.27,16l10,3.49.69.23Zm28.91-7.93V82.77l-.7.24-18.7,6.35-1.35.46V19.24l.65-.26,18.7-7.42,1.4-.55Z"/></g></svg>