<svg id="Layer_1" data-name="Layer 1" xmlns="http://www.w3.org/2000/svg" viewBox="0 0 400 400"><g id="Email_maketing" data-name="Email maketing"><path d="M356.85,133.22,324.6,12.79a13.33,13.33,0,0,0-16.32-9.44h0L290.13,8.22a13.1,13.1,0,0,0-4.3,2l-39,27.92L213.06,9.24a20.12,20.12,0,0,0-26.19,0l-180,155.1A20,20,0,0,0,0,179.51V380a20,20,0,0,0,20,20H379.92a20,20,0,0,0,20-20V179.51A20,20,0,0,0,393,164.33Zm29.6,247.49L264.79,283.36l121.8-97.47V380c0,.24-.08.48-.14.71ZM13.33,380V185.88l121.83,97.48L13.47,380.71A5.57,5.57,0,0,1,13.33,380ZM195.77,251.92a6.77,6.77,0,0,1,8.35,0L372.55,386.67H27.36ZM311.7,16.23,346.2,145l-12.88,3.45L298.82,19.69ZM193.29,89.4l13.8,51.51-38.66,10.35a26.68,26.68,0,1,1-13.8-51.54Zm10.81,66.1,12.08,45.07a6.66,6.66,0,0,1-4.71,8.16h0a6.67,6.67,0,0,1-8.16-4.71L191.23,159Zm16.4-16.07L205.64,84l81.07-58,33,123.07ZM195.59,19.32a6.66,6.66,0,0,1,8.76,0l31.26,26.79-40.51,29L152.77,86.39a41.1,41.1,0,0,0-30.62,45.91,40,40,0,0,0,46.25,32.54c1.18-.2,2.35-.46,3.51-.77l6.44-1.72,11.9,44.41a20.83,20.83,0,0,0,6.48,10.66,19.94,19.94,0,0,0,18.18,4.1h0a20,20,0,0,0,13.71-12.67,20.9,20.9,0,0,0,.23-12.45l-11.76-43.94,109.67,10.66a13.3,13.3,0,0,0,4.74-.38l18.15-4.87a13.3,13.3,0,0,0,8.12-6.27L382,172.47,254.13,274.84l-41.69-33.36a20,20,0,0,0-25,0l-41.64,33.33L17.89,172.47Z"/><path d="M354.7,73.71a6.65,6.65,0,0,0,8.16,4.72l25.76-6.9a6.67,6.67,0,0,0-3.45-12.88l-25.76,6.91A6.66,6.66,0,0,0,354.7,73.71Z"/><path d="M346.87,41.07a6.63,6.63,0,0,0,4.72-2l18.85-18.85a6.67,6.67,0,1,0-9.26-9.59l-.16.17L342.16,29.7a6.66,6.66,0,0,0,4.71,11.37Z"/><path d="M361.14,109.94a6.65,6.65,0,0,0,4.71,8.16h0L391.61,125a6.27,6.27,0,0,0,1.72.24,6.67,6.67,0,0,0,1.73-13.11l-25.76-6.9a6.65,6.65,0,0,0-8.16,4.71Z"/></g></svg>