<svg xmlns="http://www.w3.org/2000/svg" viewBox="0 0 100 100"><defs><style>.cls-1{fill:#231f20;}</style></defs><g id="message"><g id="message_lineal"><path class="cls-1" d="M17.32,39.54H38.56a2.62,2.62,0,1,0,0-5.23H17.32a2.62,2.62,0,0,0,0,5.23Z"/><path class="cls-1" d="M17.32,49.35H59.8a2.62,2.62,0,1,0,0-5.23H17.32a2.62,2.62,0,0,0,0,5.23Z"/><path class="cls-1" d="M62.42,56.54a2.62,2.62,0,0,0-2.62-2.62H17.32a2.62,2.62,0,0,0,0,5.23H59.8A2.62,2.62,0,0,0,62.42,56.54Z"/><path class="cls-1" d="M89.33.11h0L33.54,0A10.68,10.68,0,0,0,22.88,10.67v7.39l-12.21,0A10.69,10.69,0,0,0,0,28.76V63.3A10.68,10.68,0,0,0,10.67,74h8.94V89.33a2.63,2.63,0,0,0,1.68,2.44,2.48,2.48,0,0,0,.93.18,2.65,2.65,0,0,0,1.94-.86L39.72,74l26.74-.11a10.68,10.68,0,0,0,10.45-8.55L84,73.12a2.67,2.67,0,0,0,2.88.68,2.64,2.64,0,0,0,1.67-2.44V56h.77A10.69,10.69,0,0,0,100,45.33V10.78A10.69,10.69,0,0,0,89.33.11ZM22.22,68.74H10.67A5.45,5.45,0,0,1,5.23,63.3V28.76a5.45,5.45,0,0,1,5.45-5.44l55.78-.12a5.45,5.45,0,0,1,5.44,5.44V63.19a5.46,5.46,0,0,1-5.46,5.44l-27.89.11a2.61,2.61,0,0,0-1.92.86l-11.79,13V71.36A2.63,2.63,0,0,0,22.22,68.74ZM66.45,18l-38.35.08V10.67a5.45,5.45,0,0,1,5.44-5.44l55.79.11a5.45,5.45,0,0,1,5.44,5.44V45.33a5.45,5.45,0,0,1-5.44,5.44H86a2.62,2.62,0,0,0-2.62,2.61V64.59l-6.21-6.83V28.64A10.68,10.68,0,0,0,66.45,18Z"/></g></g></svg>