<svg xmlns="http://www.w3.org/2000/svg" viewBox="0 0 100 100"><defs><style>.cls-1{fill:#231f20;}</style></defs><g id="message"><g id="message_fill"><path class="cls-1" d="M89.54,5.55V40.1a5.45,5.45,0,0,1-5.44,5.44H80.72a2.62,2.62,0,0,0-2.62,2.61V59.37l-6.21-6.84V23.41A10.67,10.67,0,0,0,61.22,12.75l-38.35.07V5.44A5.45,5.45,0,0,1,28.31,0L84.1.11A5.45,5.45,0,0,1,89.54,5.55Z"/><path class="cls-1" d="M61.23,18l-55.78.12A5.45,5.45,0,0,0,0,23.53V58.07a5.45,5.45,0,0,0,5.44,5.44H17a2.63,2.63,0,0,1,2.62,2.62V77.34l11.79-13a2.64,2.64,0,0,1,1.92-.86l27.89-.11A5.46,5.46,0,0,0,66.67,58V23.41A5.45,5.45,0,0,0,61.23,18ZM12.09,29.08H33.33a2.62,2.62,0,1,1,0,5.23H12.09a2.62,2.62,0,0,1,0-5.23ZM54.57,53.92H12.09a2.62,2.62,0,0,1,0-5.23H54.57a2.62,2.62,0,1,1,0,5.23Zm0-9.8H12.09a2.62,2.62,0,0,1,0-5.23H54.57a2.62,2.62,0,1,1,0,5.23Z"/></g></g></svg>