<?xml version="1.0" encoding="iso-8859-1"?>
<!-- Generator: Adobe Illustrator 16.0.0, SVG Export Plug-In . SVG Version: 6.00 Build 0)  -->
<!DOCTYPE svg PUBLIC "-//W3C//DTD SVG 1.1//EN" "http://www.w3.org/Graphics/SVG/1.1/DTD/svg11.dtd">
<svg version="1.1" id="Capa_1" xmlns="http://www.w3.org/2000/svg" xmlns:xlink="http://www.w3.org/1999/xlink" x="0px" y="0px"
	 width="464.252px" height="464.251px" viewBox="0 0 464.252 464.251" style="enable-background:new 0 0 464.252 464.251;"
	 xml:space="preserve">
<g>
	<g>
		<path d="M344.642,0H119.611c-14.78,0-26.812,12.014-26.812,26.804v410.641c0,14.782,12.032,26.807,26.812,26.807h225.031
			c14.781,0,26.812-12.015,26.812-26.807V26.796C371.453,12.014,359.423,0,344.642,0z M359.606,437.445
			c0,8.252-6.714,14.955-14.965,14.955H119.611c-8.247,0-14.962-6.703-14.962-14.955V26.796c0-8.249,6.716-14.955,14.962-14.955
			h225.031c8.251,0,14.965,6.706,14.965,14.955V437.445z"/>
		<path d="M339.431,73.714H124.826c-1.635,0-2.963,1.328-2.963,2.963v295.8c0,1.636,1.328,2.966,2.963,2.966h214.605
			c1.636,0,2.961-1.33,2.961-2.966v-295.8C342.392,75.042,341.066,73.714,339.431,73.714z M336.466,369.517H127.789V79.64h208.677
			V369.517z"/>
		<path d="M259.971,401.701h-55.688c-6.185,0-11.225,5.037-11.225,11.223c0,6.189,5.04,11.228,11.225,11.228h55.688
			c6.186,0,11.228-5.038,11.228-11.228C271.198,406.738,266.156,401.701,259.971,401.701z M259.971,418.224h-55.688
			c-2.922,0-5.301-2.376-5.301-5.301c0-2.92,2.379-5.297,5.301-5.297h55.688c2.925,0,5.302,2.377,5.302,5.297
			C265.263,415.848,262.896,418.224,259.971,418.224z"/>
		<path d="M209.072,42.226h46.106c4.037,0,7.312-3.28,7.312-7.317s-3.274-7.315-7.312-7.315h-46.106
			c-4.037,0-7.315,3.278-7.315,7.315C201.757,38.938,205.035,42.226,209.072,42.226z M209.072,33.52h46.106
			c0.767,0,1.386,0.622,1.386,1.389s-0.619,1.391-1.386,1.391h-46.106c-0.767,0-1.391-0.625-1.391-1.391
			S208.305,33.52,209.072,33.52z"/>
	</g>
</g>
<g>
</g>
<g>
</g>
<g>
</g>
<g>
</g>
<g>
</g>
<g>
</g>
<g>
</g>
<g>
</g>
<g>
</g>
<g>
</g>
<g>
</g>
<g>
</g>
<g>
</g>
<g>
</g>
<g>
</g>
</svg>
