<svg id="Capa_1" data-name="Capa 1" xmlns="http://www.w3.org/2000/svg" viewBox="0 0 400 400"><path d="M394.42,400H5.58A5.58,5.58,0,0,1,0,394.42V199.79c0-.17,0-.34,0-.51v0a1,1,0,0,1,0-.17c0-.1,0-.19,0-.29s0-.05,0-.08,0-.12,0-.18,0-.15.05-.22a.36.36,0,0,1,0-.11.84.84,0,0,1,0-.17,1.07,1.07,0,0,1,.07-.19.78.78,0,0,1,0-.14,1,1,0,0,1,.07-.15.77.77,0,0,1,.07-.16l.08-.17a.54.54,0,0,0,.07-.13L.78,197l.12-.19.06-.1.09-.12.13-.18.08-.1.1-.12.13-.15.11-.11.12-.11.12-.12.13-.11.14-.12.1-.08.16-.11.16-.11.08-.06L2.8,195l.18-.1H3l0,0,.21-.1.2-.09,0,0,.17-.06.08,0,.23-.07.19,0,.24-.07h.07L359.7,117.78a5.91,5.91,0,0,1,1.18-.12,5.57,5.57,0,0,1,5.58,5.58v35.11l16.23-1.61a5.07,5.07,0,0,1,.55,0,5.57,5.57,0,0,1,5.58,5.58v31.92h5.6a5.58,5.58,0,0,1,5.58,5.58V394.42A5.58,5.58,0,0,1,394.42,400Zm-57.9-194.63h-273a58.26,58.26,0,0,1-52.32,52.32v78.83a58.26,58.26,0,0,1,52.32,52.32h273a58.26,58.26,0,0,1,52.32-52.32V257.69a58.26,58.26,0,0,1-52.32-52.32Zm-284.27,0H11.16v41.09a47.08,47.08,0,0,0,41.09-41.09ZM11.16,347.75v41.09H52.25A47.08,47.08,0,0,0,11.16,347.75Zm377.68,0a47.08,47.08,0,0,0-41.09,41.09h41.09ZM355.3,159.46V130.15L103,184.51l252.33-25Zm22.36,9L118.25,194.21H377.66Zm11.18,36.92H347.75a47.08,47.08,0,0,0,41.09,41.09V205.37ZM266.07,339.55a73.89,73.89,0,1,0-18,18,5.58,5.58,0,1,0-6.42-9.12,62.73,62.73,0,1,1,15.32-15.32,5.58,5.58,0,0,0,9.13,6.41Z"/></svg>