<svg id="Layer_1" data-name="Layer 1" xmlns="http://www.w3.org/2000/svg" viewBox="0 0 100 100"><defs><style>.cls-1{fill:none;}</style></defs><g id="Layer_2" data-name="Layer 2"><g id="Layer_1-2" data-name="Layer 1-2"><g id="ticket"><g id="ticket_lineal" data-name="ticket lineal"><path class="cls-1" d="M24,36.88a6.68,6.68,0,0,0-6.68-6.7h0a6.7,6.7,0,0,0-6.7,6.68h0a6.7,6.7,0,0,0,6.61,6.76h0A6.7,6.7,0,0,0,24,37v-.13Z"/><path class="cls-1" d="M94,67.06a1,1,0,0,1-.34.86L68,93.62A1.25,1.25,0,0,1,67,94a1,1,0,0,1-.83-.34L61.5,89,78.29,72.14a7,7,0,0,0,2.09-5.08A7.21,7.21,0,0,0,78.3,62L41.89,25.62h6.74a11.12,11.12,0,0,1,4,1,11.35,11.35,0,0,1,3.56,2.18L93.62,66.1A1.24,1.24,0,0,1,94,67.06Z"/><path d="M78.3,62,41.89,25.62l-1.06-1a16.62,16.62,0,0,0-5.51-3.5A16.68,16.68,0,0,0,29,19.62H7.2a7,7,0,0,0-5.06,2.14A7,7,0,0,0,0,26.82v21.8a16.82,16.82,0,0,0,1.42,6.32,16.31,16.31,0,0,0,3.5,5.46L42.38,97.91A6.93,6.93,0,0,0,47.44,100a7.25,7.25,0,0,0,5.13-2.09l4.71-4.73L61.5,89,78.29,72.14a7,7,0,0,0,2.09-5.08A7.21,7.21,0,0,0,78.3,62Zm-4.23,6L57.28,84.73,53.06,89l-4.64,4.66a1.25,1.25,0,0,1-1,.41.94.94,0,0,1-.83-.34L9.08,56.13A10.25,10.25,0,0,1,7,52.62a10.72,10.72,0,0,1-1-4V26.82A1,1,0,0,1,6.39,26a1,1,0,0,1,.81-.36H29a10.67,10.67,0,0,1,4,1,11,11,0,0,1,3.58,2.18L74,66.1a1.19,1.19,0,0,1,.41,1,1,1,0,0,1-.34.82Z"/><path d="M100,67.06a7,7,0,0,1-2.08,5.08L72.19,97.91A7.25,7.25,0,0,1,67.06,100,6.93,6.93,0,0,1,62,97.91l-4.72-4.73L61.5,89l4.73,4.73a1,1,0,0,0,.83.34,1.21,1.21,0,0,0,.94-.41l25.69-25.7a1,1,0,0,0,.34-.86,1.19,1.19,0,0,0-.41-1L56.23,28.75a11,11,0,0,0-3.56-2.13,11.12,11.12,0,0,0-4-1H41.89l-1.06-1a16.62,16.62,0,0,0-5.51-3.5A16.68,16.68,0,0,0,29,19.62H48.63A16.65,16.65,0,0,1,55,21a17,17,0,0,1,5.5,3.5L97.92,62A7.21,7.21,0,0,1,100,67.06Z"/><path d="M12.52,41.62a6.46,6.46,0,0,1-2-4.75,6.7,6.7,0,0,1,6.68-6.7h0a6.7,6.7,0,0,1,6.8,6.6h0v.11a6.7,6.7,0,0,1-6.64,6.74h-.1A6.42,6.42,0,0,1,12.52,41.62Z"/></g></g></g></g></svg>