<svg xmlns="http://www.w3.org/2000/svg" viewBox="0 0 100 100"><g id="ticket"><g id="ticket_fill"><path d="M79.78,47.18a6.75,6.75,0,0,0-2-4.79L40.18,4.79A16.4,16.4,0,0,0,34.81,1.4,16.29,16.29,0,0,0,28.65,0H6.74A6.5,6.5,0,0,0,2,2,6.48,6.48,0,0,0,0,6.74V28.65a16.1,16.1,0,0,0,1.4,6.16,15.73,15.73,0,0,0,3.39,5.32l37.65,37.7a6.45,6.45,0,0,0,4.74,2,6.71,6.71,0,0,0,4.79-2L77.83,51.92A6.45,6.45,0,0,0,79.78,47.18ZM21.62,21.62a6.53,6.53,0,0,1-4.77,2,6.74,6.74,0,0,1-6.74-6.74,6.46,6.46,0,0,1,2-4.76,6.46,6.46,0,0,1,4.76-2,6.74,6.74,0,0,1,6.74,6.74A6.53,6.53,0,0,1,21.62,21.62Z"/><path d="M98.05,42.39,60.4,4.79A16.4,16.4,0,0,0,55,1.4,16.29,16.29,0,0,0,48.87,0H37.07a16.25,16.25,0,0,1,6.16,1.4A16.29,16.29,0,0,1,48.6,4.79l37.66,37.6a6.78,6.78,0,0,1,1.94,4.79,6.48,6.48,0,0,1-1.94,4.74L61.5,76.67A15,15,0,0,0,64.3,79a5.88,5.88,0,0,0,3.1.74,6.71,6.71,0,0,0,4.79-2L98.05,51.92a6.45,6.45,0,0,0,2-4.74A6.75,6.75,0,0,0,98.05,42.39Z"/></g></g></svg>