<svg id="Icons" xmlns="http://www.w3.org/2000/svg" viewBox="0 0 400 400"><path d="M200,244.48A97.52,97.52,0,1,1,297.53,147h0A97.63,97.63,0,0,1,200,244.48Zm0-183.61A86.1,86.1,0,1,0,286.1,147h0A86.18,86.18,0,0,0,200,60.87Z"/><path d="M337.47,146.93a43.87,43.87,0,0,1,4.36-15c3.25-7.85,6.58-16,4.39-24.17-2.28-8.52-9.72-14.22-16.29-19.26A42.31,42.31,0,0,1,319.07,78.2a43.15,43.15,0,0,1-3.62-14.86c-1.14-8.49-2.34-17.3-8.44-23.43s-14.92-7.3-23.43-8.44a43,43,0,0,1-14.83-3.62A42.35,42.35,0,0,1,258.46,17c-5-6.58-10.73-14-19.26-16.29C231-1.49,222.89,1.86,215,5.09a43.48,43.48,0,0,1-15,4.36,43.62,43.62,0,0,1-15-4.3c-7.86-3.24-16-6.6-24.17-4.39C152.3,3,146.59,10.48,141.56,17.05a42.19,42.19,0,0,1-10.29,10.86,42.59,42.59,0,0,1-14.85,3.62C107.92,32.68,99.15,33.88,93,40s-7.3,14.91-8.45,23.43a43,43,0,0,1-3.61,14.82A42.47,42.47,0,0,1,70.07,88.55c-6.58,5-14,10.74-16.29,19.26C51.59,116,54.93,124.13,58.17,132a43.82,43.82,0,0,1,4.36,15,43.92,43.92,0,0,1-4.36,15c-3.25,7.85-6.58,16-4.39,24.16,2.28,8.53,9.72,14.23,16.29,19.26a42.69,42.69,0,0,1,10.86,10.29,43.44,43.44,0,0,1,3.62,14.83c1.14,8.52,2.34,17.33,8.44,23.45,5.3,5.31,12.62,6.9,20,8L67.91,364a5.71,5.71,0,0,0,7.6,7.51l44.24-20.19,18.4,45.09a5.72,5.72,0,0,0,5.21,3.55h.08a5.71,5.71,0,0,0,5.25-3.43L198,284.72c.66-.1,1.31-.18,2-.25s1.32.15,2,.24l49.37,111.86a5.7,5.7,0,0,0,5.22,3.43h.07a5.72,5.72,0,0,0,5.21-3.55l18.4-45.09,44.24,20.19a5.71,5.71,0,0,0,7.6-7.51L287,261.92c7.39-1.07,14.72-2.66,20-8,6.13-6.13,7.3-14.94,8.45-23.46a43.09,43.09,0,0,1,3.61-14.82,42.35,42.35,0,0,1,10.86-10.29c6.58-5,14-10.74,16.29-19.26,2.19-8.17-1.15-16.31-4.39-24.17A43.81,43.81,0,0,1,337.47,146.93ZM143.68,379.66l-15.57-38.13-.09-.21a5.72,5.72,0,0,0-7.57-2.83l-36,16.42,40.27-91.12a41.81,41.81,0,0,1,6.56,2.29,42,42,0,0,1,10.28,10.85c5,6.58,10.74,14,19.27,16.29a21,21,0,0,0,5.47.7,50.79,50.79,0,0,0,17.12-4.36Zm135.9-41.17-.21-.09a5.72,5.72,0,0,0-7.45,3.13l-15.57,38.13-39.81-90.27c7.39,3,15,5.83,22.67,3.77,8.52-2.28,14.23-9.72,19.26-16.29A42.35,42.35,0,0,1,268.76,266a43.05,43.05,0,0,1,6.52-2.28l40.3,91.18Zm51.74-172.16a30.56,30.56,0,0,1,3.91,16.86C334,188,328.65,192,323,196.34A50.54,50.54,0,0,0,309.23,210a51.31,51.31,0,0,0-5.05,19,30.94,30.94,0,0,1-5.2,16.88,30.87,30.87,0,0,1-16.89,5.2,51.32,51.32,0,0,0-19,5.06A50.36,50.36,0,0,0,249.4,270c-4.31,5.62-8.38,10.93-13.15,12.2a30.56,30.56,0,0,1-16.86-3.91,51.38,51.38,0,0,0-11.63-4.09,5.67,5.67,0,0,0-1.36-.28A52.47,52.47,0,0,0,200,273a51.94,51.94,0,0,0-6.46.87,5.18,5.18,0,0,0-1.16.23,51.94,51.94,0,0,0-11.76,4.1,30.81,30.81,0,0,1-16.85,3.92c-4.77-1.28-8.84-6.59-13.15-12.2A50.36,50.36,0,0,0,137,256.16a51.32,51.32,0,0,0-19-5.06,30.93,30.93,0,0,1-16.88-5.19A31,31,0,0,1,95.85,229a51.07,51.07,0,0,0-5-19A50.71,50.71,0,0,0,77,196.32C71.38,192,66.07,188,64.79,183.18a30.67,30.67,0,0,1,3.92-16.87,52.14,52.14,0,0,0,5.23-19.37,52,52,0,0,0-5.23-19.37,30.69,30.69,0,0,1-3.92-16.87c1.28-4.76,6.59-8.83,12.2-13.14A50.71,50.71,0,0,0,90.8,83.9a51.26,51.26,0,0,0,5-19A30.86,30.86,0,0,1,101.05,48a30.87,30.87,0,0,1,16.89-5.2,51.32,51.32,0,0,0,19-5.06A50.43,50.43,0,0,0,150.64,24c4.3-5.62,8.37-10.93,13.14-12.2a9.31,9.31,0,0,1,2.52-.31,42.66,42.66,0,0,1,14.34,4.22A52.12,52.12,0,0,0,200,20.88a52.2,52.2,0,0,0,19.39-5.24,30.6,30.6,0,0,1,16.85-3.92C241,13,245.09,18.3,249.4,23.92a50.36,50.36,0,0,0,13.65,13.8,51.3,51.3,0,0,0,19,5.08A30.86,30.86,0,0,1,299,48a31,31,0,0,1,5.21,16.89,51.07,51.07,0,0,0,5.05,19A50.68,50.68,0,0,0,323,97.58c5.62,4.31,10.92,8.38,12.2,13.15a30.56,30.56,0,0,1-3.91,16.86A52.14,52.14,0,0,0,326.09,147,52.09,52.09,0,0,0,331.32,166.33Z"/><path d="M231.27,197.86a5.61,5.61,0,0,1-2.66-.66l-28.6-15-28.57,15a5.71,5.71,0,0,1-8.28-6l5.46-31.84-23.14-22.55a5.72,5.72,0,0,1,3.18-9.75l32-4.64,14.28-29a5.95,5.95,0,0,1,10.24,0l14.29,29,32,4.64a5.71,5.71,0,0,1,3.17,9.75l-23.14,22.55,5.46,31.84a5.71,5.71,0,0,1-4.66,6.6,6.22,6.22,0,0,1-1,.08ZM200,170a5.6,5.6,0,0,1,2.66.65l21,11.06-4-23.39a5.75,5.75,0,0,1,1.65-5.06l17-16.57-23.48-3.43a5.72,5.72,0,0,1-4.31-3.13L200,108.87l-10.5,21.28a5.7,5.7,0,0,1-4.3,3.13l-23.48,3.43,17,16.57a5.72,5.72,0,0,1,1.64,5.06l-4,23.39,21-11A5.69,5.69,0,0,1,200,170Z"/></svg>