<svg xmlns="http://www.w3.org/2000/svg" viewBox="0 0 54.99 70"><defs><style>.cls-1{fill:#444345;}</style></defs><g id="Layer_2" data-name="Layer 2"><g id="Layer_1-2" data-name="Layer 1"><path class="cls-1" d="M39,58h0l-4.51,0V45.36a.83.83,0,0,0-.83-.84H28.16a.84.84,0,0,0-.84.84V58.09l-4.54,0a.94.94,0,0,0-.66,1.61l7.69,9.74a1.34,1.34,0,0,0,1.07.52A1.35,1.35,0,0,0,32,69.48l7.69-9.9A.93.93,0,0,0,39,58Z"/><path class="cls-1" d="M53,18.8,35.84,2l-2-2H10A3.2,3.2,0,0,0,6.79,3.19V17.72h2V3.19A1.21,1.21,0,0,1,10,2H33.82V17.47a3.28,3.28,0,0,0,3.29,3.28H53V60.89A1.21,1.21,0,0,1,51.8,62.1H41.47l-1.54,2H51.8A3.19,3.19,0,0,0,55,60.89V20.75Z"/><path class="cls-1" d="M10,62.1a1.22,1.22,0,0,1-1.22-1.21V40.59h-2v20.3A3.2,3.2,0,0,0,10,64.08H21.77l-1.57-2Z"/><path class="cls-1" d="M8.53,26.44a7.62,7.62,0,0,0-1.21-.06H6.5v2.38h.93a4.26,4.26,0,0,0,1.33-.13,1.09,1.09,0,0,0,.53-.41,1.13,1.13,0,0,0,.19-.65,1.09,1.09,0,0,0-.27-.76A1.12,1.12,0,0,0,8.53,26.44Z"/><path class="cls-1" d="M17.23,26.86a1.53,1.53,0,0,0-.78-.4,8.05,8.05,0,0,0-1.39-.08H14.3v5.55h1.27a4.22,4.22,0,0,0,1-.08,1.51,1.51,0,0,0,.68-.34,1.81,1.81,0,0,0,.44-.81,5.27,5.27,0,0,0,.18-1.54,4.77,4.77,0,0,0-.18-1.49A1.79,1.79,0,0,0,17.23,26.86Z"/><path class="cls-1" d="M27.84,20.7h-24A3.79,3.79,0,0,0,0,24.49v9.33a3.79,3.79,0,0,0,3.79,3.79H27.84a3.78,3.78,0,0,0,3.79-3.79V24.49A3.79,3.79,0,0,0,27.84,20.7ZM11,28.84a2.42,2.42,0,0,1-.71.83,2.36,2.36,0,0,1-.88.39,9.74,9.74,0,0,1-1.76.12H6.5v3.17H4.81V25H7.52a10.46,10.46,0,0,1,2,.12,2.2,2.2,0,0,1,1.2.82,2.57,2.57,0,0,1,.49,1.63A2.81,2.81,0,0,1,11,28.84ZM19.38,31a3.7,3.7,0,0,1-.9,1.48,2.9,2.9,0,0,1-1.19.67,5,5,0,0,1-1.5.18H12.61V25H15.7a6,6,0,0,1,1.6.16,2.75,2.75,0,0,1,1.26.77,3.61,3.61,0,0,1,.8,1.36,6.23,6.23,0,0,1,.27,2A5.54,5.54,0,0,1,19.38,31Zm7.45-4.64H22.77v2h3.5v1.41h-3.5v3.57H21.08V25h5.75Z"/></g></g></svg>