<svg id="Layer_1" data-name="Layer 1" xmlns="http://www.w3.org/2000/svg" viewBox="0 0 400 400"><path d="M369.18,251.77a10,10,0,0,0-10,10v88.46a29.9,29.9,0,0,1-29.88,29.88H49.81a29.91,29.91,0,0,1-29.89-29.88V90.58A29.92,29.92,0,0,1,49.81,60.7h88.45a10,10,0,0,0,0-19.93H49.81A49.87,49.87,0,0,0,0,90.58V350.19A49.86,49.86,0,0,0,49.81,400H329.34a49.87,49.87,0,0,0,49.81-49.81V261.73A10,10,0,0,0,369.18,251.77Z"/><path d="M375.2,15.14a44.83,44.83,0,0,0-63.4,0L134.07,192.87a10,10,0,0,0-2.56,4.39l-23.37,84.37A10,10,0,0,0,120.4,293.9l84.38-23.38a9.88,9.88,0,0,0,4.38-2.56L386.89,90.23a44.88,44.88,0,0,0,0-63.4ZM155.78,199.35,301.24,53.88l46.91,46.92L202.69,246.26Zm-9.37,18.8,37.48,37.48L132,270Zm226.39-142L362.24,86.71,315.32,39.79l10.57-10.56a24.9,24.9,0,0,1,35.22,0L372.8,40.92A24.93,24.93,0,0,1,372.8,76.14Z"/></svg>