<svg xmlns="http://www.w3.org/2000/svg" viewBox="0 0 100 100"><defs><style>.cls-1{fill:#231f20;}</style></defs><g id="phone"><path id="phone_lineal" class="cls-1" d="M99.6,74.92c-.6-1.63-2.36-3-6.39-5-.86-.5-2.07-1.17-3.61-2s-3-1.62-4.23-2.33-2.34-1.33-3.4-2l-1.63-1.15a22.26,22.26,0,0,0-2.76-1.66A7.29,7.29,0,0,0,74.44,60c-1.68,0-3.36.85-5.29,2.68a35.81,35.81,0,0,0-4,4.52,37.62,37.62,0,0,1-3.3,3.86,7.06,7.06,0,0,1-1.2,1L60.25,72a9.93,9.93,0,0,1-1.07-.44,16,16,0,0,1-1.4-.82c-1-.63-1.28-.78-1.42-.85A67.83,67.83,0,0,1,41.28,58.72,67.92,67.92,0,0,1,30.11,43.65c-.07-.15-.23-.41-.86-1.43s-.76-1.28-.81-1.39-.2-.43-.45-1.09a3.67,3.67,0,0,1-.12-.38,6.41,6.41,0,0,1,1-1.21,37.62,37.62,0,0,1,3.86-3.3,35.73,35.73,0,0,0,4.51-4c1.84-1.93,2.69-3.62,2.69-5.3a7.09,7.09,0,0,0-.75-3.13,21.57,21.57,0,0,0-1.66-2.77L36.41,18c-.64-1.06-1.29-2.19-2-3.4S33,12,32.11,10.4s-1.5-2.75-2-3.61c-2-4-3.4-5.79-5-6.39S21-.09,17.3.75a28.75,28.75,0,0,0-5.05,1.56c-2.86,1.2-5.63,4.28-8.49,9.43A28.82,28.82,0,0,0,0,25.55a29.36,29.36,0,0,0,.26,3.9,30.62,30.62,0,0,0,.92,4.24c.42,1.49.76,2.59,1,3.36s.71,2,1.39,3.76c.24.66,1,2.67,1.19,3.24A63.58,63.58,0,0,0,10.6,56.31,102.67,102.67,0,0,0,25.45,74.55,102.51,102.51,0,0,0,43.67,89.39,64.67,64.67,0,0,0,56,95.23c.22.07.91.32,3.18,1.17,1.81.68,3.07,1.14,3.76,1.39s1.86.61,3.37,1a30.62,30.62,0,0,0,4.24.92,29.44,29.44,0,0,0,3.89.26,28.89,28.89,0,0,0,13.84-3.77c5.12-2.84,8.2-5.62,9.38-8.44a28.28,28.28,0,0,0,1.58-5.09,24.46,24.46,0,0,0,.74-5.36A6.34,6.34,0,0,0,99.6,74.92Zm-5.87,6.51a24.36,24.36,0,0,1-1.26,4.12c-.39.92-1.8,2.88-6.91,5.72a23.34,23.34,0,0,1-11.12,3.07,23.07,23.07,0,0,1-3.13-.21,26.1,26.1,0,0,1-3.47-.76c-1.36-.38-2.37-.69-3-.91s-1.91-.7-3.67-1.36S58.24,90,57.84,89.88a58.61,58.61,0,0,1-11.19-5.3,97.33,97.33,0,0,1-17.2-14,98,98,0,0,1-14-17.22,57.83,57.83,0,0,1-5.27-11.12c-.15-.43-.52-1.44-1.24-3.38-.67-1.77-1.12-3-1.36-3.67s-.53-1.65-.91-3a25.44,25.44,0,0,1-.76-3.47,22.85,22.85,0,0,1-.21-3.13A23.27,23.27,0,0,1,8.72,14.46c2.85-5.14,4.81-6.55,5.77-7a23.41,23.41,0,0,1,4.08-1.24,19.4,19.4,0,0,1,4.09-.6h.23a19.21,19.21,0,0,1,2.2,3.72l.08.15c.48.83,1.14,2,2,3.55s1.64,3,2.36,4.29,1.44,2.52,2.12,3.65l.16.24q.2.25,1.11,1.59a14.94,14.94,0,0,1,1.22,2,1.75,1.75,0,0,1,.19.59A5.81,5.81,0,0,1,33.17,27a31.15,31.15,0,0,1-3.79,3.37,42.16,42.16,0,0,0-4.45,3.8c-1.88,1.84-2.76,3.46-2.76,5.1a7.12,7.12,0,0,0,.52,2.49,14.81,14.81,0,0,0,.69,1.65c.2.4.53,1,1.06,1.83.35.57.58.94.67,1.1l0,.06A73.61,73.61,0,0,0,37.27,62.72a73.71,73.71,0,0,0,16.4,12.15c.14.07.52.31,1.13.68.82.51,1.42.86,1.85,1.08s1,.43,1.64.68a7.08,7.08,0,0,0,2.49.51c1.63,0,3.25-.87,5.1-2.76a42,42,0,0,0,3.8-4.44A30.25,30.25,0,0,1,73,66.83a5.66,5.66,0,0,1,1.5-1.13,1.91,1.91,0,0,1,.58.18,16.59,16.59,0,0,1,2,1.22c.89.61,1.42,1,1.58,1.11l.25.16c1.14.69,2.36,1.39,3.65,2.12l4.29,2.37c1.54.83,2.72,1.48,3.55,2l.16.08a21,21,0,0,1,3.72,2.19v.24A19.94,19.94,0,0,1,93.73,81.43Z"/></g></svg>