<svg viewBox="0 0 48 48" fill="none" xmlns="http://www.w3.org/2000/svg">
<g clip-path="url(#clip0_1231_16211)">
<path fill-rule="evenodd" clip-rule="evenodd" d="M24 46C36.1503 46 46 36.1503 46 24C46 11.8497 36.1503 2 24 2C11.8497 2 2 11.8497 2 24C2 36.1503 11.8497 46 24 46ZM24 48C37.2548 48 48 37.2548 48 24C48 10.7452 37.2548 0 24 0C10.7452 0 0 10.7452 0 24C0 37.2548 10.7452 48 24 48Z" fill="#4A5468"/>
<path d="M31.8898 34.9302H31.6198C29.8398 34.7337 28.0923 34.3102 26.4198 33.6702C25.059 33.1435 23.7583 32.473 22.5398 31.6702C21.3718 30.9259 20.2799 30.0684 19.2798 29.1102C18.1403 27.9822 17.1337 26.7274 16.2798 25.3702C15.5708 24.3069 14.9647 23.1785 14.4698 22.0002C13.7114 20.1775 13.2229 18.254 13.0198 16.2902C12.9688 15.8552 13.0166 15.4142 13.1598 15.0002C13.2963 14.6259 13.511 14.285 13.7898 14.0002C14.0683 13.6889 14.4087 13.4391 14.7892 13.2669C15.1698 13.0947 15.5821 13.0039 15.9998 13.0002H18.9998C19.7333 12.9909 20.4448 13.2506 20.9998 13.7302C21.5454 14.2061 21.9006 14.8631 21.9998 15.5802C22.1205 16.4681 22.3385 17.34 22.6498 18.1802C22.85 18.7169 22.8923 19.2997 22.7718 19.8597C22.6513 20.4196 22.373 20.9334 21.9698 21.3402L21.2498 22.0602C21.9528 23.1678 22.8002 24.1767 23.7698 25.0602C24.4109 25.6511 25.1037 26.1832 25.8398 26.6502L26.5498 25.9302C26.9575 25.5251 27.4731 25.2457 28.035 25.1251C28.597 25.0046 29.1818 25.048 29.7198 25.2502C30.5555 25.565 31.4245 25.783 32.3098 25.9002C33.0377 25.9925 33.7065 26.3482 34.1898 26.9002C34.6623 27.4581 34.9147 28.1693 34.8998 28.9002V31.9002C34.9013 32.3166 34.8162 32.7286 34.6498 33.1102C34.4837 33.491 34.2382 33.8319 33.9298 34.1102C33.621 34.3926 33.2565 34.6072 32.8598 34.7402C32.55 34.8596 32.2217 34.9239 31.8898 34.9302ZM15.9998 15.0002C15.8626 15.0008 15.7267 15.0279 15.5998 15.0802C15.47 15.1384 15.3541 15.2237 15.2598 15.3302C15.1691 15.4332 15.098 15.5518 15.0498 15.6802C15.0196 15.8152 15.0196 15.9552 15.0498 16.0902C15.2327 17.8606 15.6706 19.5952 16.3498 21.2402C16.7679 22.3087 17.2834 23.3363 17.8898 24.3102C18.6716 25.543 19.5982 26.6778 20.6498 27.6902C21.5558 28.5626 22.5513 29.3369 23.6198 30.0002C24.7258 30.7148 25.9019 31.3146 27.1298 31.7902C28.6402 32.36 30.2157 32.7396 31.8198 32.9202C31.9516 32.9227 32.0829 32.9059 32.2098 32.8702C32.3426 32.8202 32.4647 32.7455 32.5698 32.6502C32.6716 32.5579 32.7533 32.4456 32.8098 32.3202C32.8613 32.1896 32.8884 32.0506 32.8898 31.9102V28.9102C32.8972 28.6616 32.8116 28.4192 32.6498 28.2302C32.4914 28.0452 32.271 27.9243 32.0298 27.8902C31.005 27.7526 29.9988 27.501 29.0298 27.1402C28.8518 27.0704 28.6574 27.053 28.4698 27.0902C28.2817 27.1331 28.1088 27.2264 27.9698 27.3602L26.6898 28.6202C26.5348 28.7744 26.3335 28.8736 26.1168 28.9025C25.9 28.9314 25.6798 28.8884 25.4898 28.7802C24.379 28.1519 23.3425 27.4005 22.3998 26.5402C21.0958 25.3385 19.986 23.9419 19.1098 22.4002C19.0016 22.2102 18.9587 21.99 18.9876 21.7733C19.0165 21.5566 19.1156 21.3553 19.2698 21.2002L20.5398 19.9302C20.6632 19.7989 20.7488 19.6366 20.7875 19.4605C20.8262 19.2845 20.8167 19.1013 20.7598 18.9302C20.3986 17.9614 20.147 16.9551 20.0098 15.9302C19.9735 15.6927 19.8528 15.4761 19.6698 15.3202C19.4861 15.151 19.2565 15.0397 19.0098 15.0002H15.9998Z" fill="#4A5468"/>
</g>
<defs>
</defs>
</svg>
