<svg xmlns="http://www.w3.org/2000/svg" viewBox="0 0 100 100"><defs><style>.cls-1{fill:#231f20;}</style></defs><g id="phone"><path id="phone_fill" class="cls-1" d="M99.78,77.48c-.28-.85-2.08-2.11-5.4-3.76-.89-.52-2.17-1.23-3.83-2.13S87.39,69.86,86,69.1s-2.62-1.49-3.8-2.2c-.19-.14-.78-.56-1.77-1.24a19.51,19.51,0,0,0-2.53-1.53,4.63,4.63,0,0,0-2-.5c-1,0-2.13.68-3.55,2a34.92,34.92,0,0,0-3.91,4.4,41.41,41.41,0,0,1-3.76,4.4c-1.33,1.35-2.42,2-3.27,2a4.79,4.79,0,0,1-1.6-.36c-.63-.23-1.12-.44-1.45-.6s-.9-.5-1.7-1-1.26-.77-1.36-.82A75,75,0,0,1,38.63,61.36,74.8,74.8,0,0,1,26.28,44.67c-.05-.09-.32-.54-.82-1.35s-.83-1.37-1-1.7-.37-.82-.61-1.46a4.94,4.94,0,0,1-.35-1.6c0-.85.67-1.94,2-3.27a42.73,42.73,0,0,1,4.41-3.76,34.75,34.75,0,0,0,4.4-3.9c1.35-1.42,2-2.61,2-3.55a4.65,4.65,0,0,0-.49-2,20,20,0,0,0-1.53-2.52c-.69-1-1.1-1.59-1.25-1.78-.7-1.18-1.44-2.45-2.2-3.79s-1.58-2.86-2.48-4.51S26.8,6.51,26.28,5.61C24.62,2.3,23.37.5,22.51.21A4,4,0,0,0,21,0a23.52,23.52,0,0,0-5,.71A28,28,0,0,0,11.15,2.2c-2.37,1-4.88,3.88-7.53,8.67A27.54,27.54,0,0,0,0,24.07,26.76,26.76,0,0,0,.25,27.8a29.42,29.42,0,0,0,.89,4.09c.42,1.51.77,2.64,1,3.37s.74,2.05,1.45,3.94,1.14,3.06,1.28,3.48a64.78,64.78,0,0,0,5.89,12.43A105.8,105.8,0,0,0,26.1,73.9,105.31,105.31,0,0,0,44.88,89.2a64.79,64.79,0,0,0,12.43,5.9c.43.14,1.59.56,3.48,1.28s3.21,1.19,3.94,1.45,1.86.61,3.38,1a29,29,0,0,0,4.08.89,26.76,26.76,0,0,0,3.73.25,27.6,27.6,0,0,0,13.21-3.62q7.17-4,8.66-7.53A28,28,0,0,0,99.28,84a23,23,0,0,0,.71-5A3.88,3.88,0,0,0,99.78,77.48Z"/></g></svg>