<svg xmlns="http://www.w3.org/2000/svg" viewBox="0 0 100 100"><defs><style>.cls-1{fill:#231f20;}</style></defs><g id="phone_di" data-name="phone di"><path id="phone-2" data-name="phone" class="cls-1" d="M84.05,62.47c-3.5-3.63-8-3.63-11.69,0l-8.2,8.16a1.72,1.72,0,0,1-2.27.46c-1.66-1-3.65-1.8-5.31-2.87a86.17,86.17,0,0,1-20.5-18.59,49.79,49.79,0,0,1-7.29-11.79,1.69,1.69,0,0,1,.47-2.12c2.88-2.58,5.45-5.28,8.19-8,3.79-3.78,3.79-8.16,0-11.94L30.92,9.26C28.64,7,26.51,4.73,24.24,2.61c-3.5-3.48-8-3.48-11.7,0L4.35,10.77A14.21,14.21,0,0,0,.09,19.84c-.47,5.6.91,11,2.89,16.32,4.11,11,10.32,20.56,17.76,29.47A108.83,108.83,0,0,0,57.19,94.07c6.39,3,12.92,5.43,19.89,5.89,5,.29,9.28-1,12.75-4.85,2.27-2.73,5-5,7.44-7.55,3.64-3.77,3.64-8.31,0-11.94Z"/></g></svg>