<svg id="Capa_1" data-name="Capa 1" xmlns="http://www.w3.org/2000/svg" viewBox="0 0 400 400"><path d="M388.28,211.72H224.22a11.71,11.71,0,0,0-11,15.81l57.61,154.41a11.71,11.71,0,0,0,15.1,6.87C354.17,363.15,400,296.69,400,223.44A11.72,11.72,0,0,0,388.28,211.72ZM288.54,362.3,241.1,235.08h135C371.87,290,338.13,339.06,288.54,362.3Z"/><path d="M245.93,373.75,189.06,221.32V59.38a11.71,11.71,0,0,0-11.72-11.72C80.84,47.66,0,125.9,0,223.44,0,320.25,80.06,400,177.34,400a174.59,174.59,0,0,0,61.74-11.19A11.71,11.71,0,0,0,245.93,373.75Zm-68.59,2.81c-84.86,0-153.9-68.69-153.9-153.12,0-80.1,62.77-146,142.18-151.91V223.44a11.88,11.88,0,0,0,.74,4.09l53.37,143A151.76,151.76,0,0,1,177.34,376.56Z"/><path d="M224.22,0A11.72,11.72,0,0,0,212.5,11.72V176.56a11.72,11.72,0,0,0,11.72,11.72H388.28A11.72,11.72,0,0,0,400,176.56C400,79.59,321.31,0,224.22,0Zm11.72,164.84V23.89c74.7,5.73,134.5,65.86,140.18,141Z"/></svg>