<svg viewBox="0 0 44 44" fill="none" xmlns="http://www.w3.org/2000/svg">
<g clip-path="url(#clip0_1330_24135)">
<path fill-rule="evenodd" clip-rule="evenodd" d="M22 44C34.1503 44 44 34.1503 44 22C44 9.84974 34.1503 0 22 0C9.84974 0 0 9.84974 0 22C0 34.1503 9.84974 44 22 44Z" fill="#2D3648"/>
<path d="M22.9766 10.4706C17.8332 10.4706 12.75 13.8995 12.75 19.449C12.75 22.9781 14.7352 24.9833 15.9383 24.9833C16.4346 24.9833 16.7203 23.5997 16.7203 23.2087C16.7203 22.7425 15.5322 21.7499 15.5322 19.8099C15.5322 15.7794 18.6002 12.922 22.5705 12.922C25.9844 12.922 28.5109 14.862 28.5109 18.4263C28.5109 21.0882 27.4432 26.0812 23.9842 26.0812C22.7359 26.0812 21.6682 25.1788 21.6682 23.8855C21.6682 21.9906 22.9916 20.1558 22.9916 18.2007C22.9916 14.8821 18.2844 15.4837 18.2844 19.4941C18.2844 20.3363 18.3896 21.2687 18.7656 22.0357C18.0738 25.0134 16.6602 29.4499 16.6602 32.5179C16.6602 33.4654 16.7955 34.3978 16.8857 35.3453C17.0562 35.5357 16.971 35.5157 17.2316 35.4204C19.7582 31.9615 19.668 31.2847 20.8109 26.7579C21.4275 27.931 23.0217 28.5626 24.285 28.5626C29.6088 28.5626 32 23.3742 32 18.697C32 13.7191 27.6988 10.4706 22.9766 10.4706Z" fill="white"/>
</g>
<defs>
</defs>
</svg>
