<svg xmlns="http://www.w3.org/2000/svg" viewBox="0 0 400 400"><defs><style>.cls-1{fill:#616262;}</style></defs><g id="Layer_2" data-name="Layer 2"><g id="Layer_1-2" data-name="Layer 1"><g id="print_circle" data-name="print circle"><path class="cls-1" d="M200,20A180,180,0,0,1,327.28,327.28,180,180,0,0,1,72.72,72.72,178.82,178.82,0,0,1,200,20m0-20C89.54,0,0,89.54,0,200S89.54,400,200,400s200-89.54,200-200S310.46,0,200,0Z"/><path class="cls-1" d="M293.81,169.38H278.46V139.57a7.5,7.5,0,0,0-7.5-7.5H259.9V117.69a10,10,0,0,0-10-10H162.72a10,10,0,0,0-10,10v14.38H141.65a7.5,7.5,0,0,0-7.5,7.5v29.81H118.81a12.49,12.49,0,0,0-12.5,12.5v76.18a12.5,12.5,0,0,0,12.5,12.5h33.91v27.12a10,10,0,0,0,10,10H249.9a10,10,0,0,0,10-10V270.56h33.91a12.5,12.5,0,0,0,12.5-12.5V181.88A12.5,12.5,0,0,0,293.81,169.38ZM259.9,142.07h8.56v27.31H259.9Zm-97.18-24.38H249.9v51.69H162.72Zm-18.57,24.38h8.57v27.31h-8.57ZM249.9,297.68H162.72v-51H249.9Zm46.41-39.62a2.5,2.5,0,0,1-2.5,2.5H259.9V246.72h3.9a5,5,0,0,0,0-10h-115a5,5,0,0,0,0,10h3.9v13.84H118.81a2.5,2.5,0,0,1-2.5-2.5V181.88a2.5,2.5,0,0,1,2.5-2.5h175a2.5,2.5,0,0,1,2.5,2.5Z"/><path class="cls-1" d="M258.91,188.94a3.28,3.28,0,1,1-3.28,3.28,3.28,3.28,0,0,1,3.28-3.28m0-7a10.28,10.28,0,1,0,10.27,10.28,10.28,10.28,0,0,0-10.27-10.28Z"/><path class="cls-1" d="M283.66,188.94a3.28,3.28,0,1,1-3.28,3.28,3.28,3.28,0,0,1,3.28-3.28m0-7a10.28,10.28,0,1,0,10.27,10.28,10.28,10.28,0,0,0-10.27-10.28Z"/><path class="cls-1" d="M238.45,260.69H174.16a3.5,3.5,0,0,1,0-7h64.29a3.5,3.5,0,0,1,0,7Z"/><path class="cls-1" d="M238.45,276.14H174.16a3.5,3.5,0,1,1,0-7h64.29a3.5,3.5,0,0,1,0,7Z"/><path class="cls-1" d="M238.45,291.59H174.16a3.5,3.5,0,0,1,0-7h64.29a3.5,3.5,0,0,1,0,7Z"/></g></g></g></svg>