<svg xmlns="http://www.w3.org/2000/svg" viewBox="0 0 400 399.99"><defs><style>.cls-1{fill:#616262;}</style></defs><g id="Layer_2" data-name="Layer 2"><g id="Layer_1-2" data-name="Layer 1"><g id="print"><path class="cls-1" d="M375,123.38H344.31V63.77a15,15,0,0,0-15-15H307.18V20a20,20,0,0,0-20-20H112.82a20,20,0,0,0-20,20V48.77H70.69a15,15,0,0,0-15,15v59.61H25a25,25,0,0,0-25,25V300.74a25,25,0,0,0,25,25H92.82V380a20,20,0,0,0,20,20H287.18a20,20,0,0,0,20-20V325.74H375a25,25,0,0,0,25-25V148.38A25,25,0,0,0,375,123.38ZM307.18,68.77h17.13v54.61H307.18ZM112.82,20H287.18V123.38H112.82ZM75.69,68.77H92.82v54.61H75.69ZM287.18,380H112.82V278.06H287.18ZM380,300.74a5,5,0,0,1-5,5H307.18V278.06H315a10,10,0,0,0,0-20H85a10,10,0,1,0,0,20h7.8v27.68H25a5,5,0,0,1-5-5V148.38a5,5,0,0,1,5-5H375a5,5,0,0,1,5,5Z"/><path class="cls-1" d="M305.2,162.51a6.55,6.55,0,1,1-6.55,6.55,6.56,6.56,0,0,1,6.55-6.55m0-14a20.55,20.55,0,1,0,20.55,20.55,20.55,20.55,0,0,0-20.55-20.55Z"/><path class="cls-1" d="M354.7,162.51a6.55,6.55,0,1,1-6.55,6.55,6.56,6.56,0,0,1,6.55-6.55m0-14a20.55,20.55,0,1,0,20.55,20.55,20.55,20.55,0,0,0-20.55-20.55Z"/><path class="cls-1" d="M264.29,306H135.71a7,7,0,0,1,0-14H264.29a7,7,0,0,1,0,14Z"/><path class="cls-1" d="M264.29,336.9H135.71a7,7,0,0,1,0-14H264.29a7,7,0,1,1,0,14Z"/><path class="cls-1" d="M264.29,367.8H135.71a7,7,0,1,1,0-14H264.29a7,7,0,0,1,0,14Z"/></g></g></g></svg>