<svg xmlns="http://www.w3.org/2000/svg" viewBox="0 0 400 400"><defs><style>.cls-1{fill:#616161;}</style></defs><g id="Layer_2" data-name="Layer 2"><g id="Layer_1-2" data-name="Layer 1"><g id="Layer_2-2" data-name="Layer 2"><g id="Layer_1-2-2" data-name="Layer 1-2"><path class="cls-1" d="M367.08,123.76H344.31V63.86A14.37,14.37,0,0,0,330,49.5H307.18v-29A20.56,20.56,0,0,0,286.63,0H113.37A20.57,20.57,0,0,0,92.82,20.54v29H70.05A14.38,14.38,0,0,0,55.69,63.86v59.9H32.92A33,33,0,0,0,0,156.68V292.82a33,33,0,0,0,32.92,32.92h59.9v53.72A20.57,20.57,0,0,0,113.37,400H286.63a20.57,20.57,0,0,0,20.55-20.54V325.74h59.9A33,33,0,0,0,400,292.82V156.68A33,33,0,0,0,367.08,123.76Zm-59.9-57.92H328v57.92H307.18Zm-198-45.3a4.21,4.21,0,0,1,4.21-4.2H286.63a4.21,4.21,0,0,1,4.21,4.2V123.76H109.16ZM72,65.84H92.82v57.92H72ZM290.84,379.46a4.21,4.21,0,0,1-4.21,4.2H113.37a4.21,4.21,0,0,1-4.21-4.2V276.24H290.84Zm92.82-86.64a16.6,16.6,0,0,1-16.58,16.59h-59.9V276.24h10.39a8.17,8.17,0,0,0,0-16.34H82.43a8.17,8.17,0,1,0,0,16.34h10.4v33.17H32.92a16.6,16.6,0,0,1-16.58-16.59V156.68A16.6,16.6,0,0,1,32.92,140.1H367.08a16.6,16.6,0,0,1,16.58,16.58Z"/><path class="cls-1" d="M354.7,148.51a20.55,20.55,0,1,0,20.55,20.55h0A20.57,20.57,0,0,0,354.7,148.51Zm0,26.74a6.19,6.19,0,1,1,6.19-6.19,6.19,6.19,0,0,1-6.19,6.19Z"/><path class="cls-1" d="M305.2,148.51a20.55,20.55,0,1,0,20.54,20.56h0A20.57,20.57,0,0,0,305.2,148.51Zm0,26.74a6.19,6.19,0,1,1,6.19-6.19,6.19,6.19,0,0,1-6.19,6.19Z"/><path class="cls-1" d="M276.24,299a8.19,8.19,0,0,1-8.17,8.17H138.12a8.17,8.17,0,0,1,0-16.34h130A8.18,8.18,0,0,1,276.24,299Z"/><path class="cls-1" d="M276.24,330a8.19,8.19,0,0,1-8.17,8.17H138.12a8.17,8.17,0,1,1,0-16.34h130A8.19,8.19,0,0,1,276.24,330Z"/><path class="cls-1" d="M276.24,360.89a8.19,8.19,0,0,1-8.17,8.17H138.12a8.17,8.17,0,0,1,0-16.34h130A8.19,8.19,0,0,1,276.24,360.89Z"/></g></g></g></g></svg>