<svg viewBox="0 0 48 48" fill="none" xmlns="http://www.w3.org/2000/svg">
<g clip-path="url(#clip0_1231_16215)">
<path fill-rule="evenodd" clip-rule="evenodd" d="M24 46C36.1503 46 46 36.1503 46 24C46 11.8497 36.1503 2 24 2C11.8497 2 2 11.8497 2 24C2 36.1503 11.8497 46 24 46ZM24 48C37.2548 48 48 37.2548 48 24C48 10.7452 37.2548 0 24 0C10.7452 0 0 10.7452 0 24C0 37.2548 10.7452 48 24 48Z" fill="#4A5468"/>
<path d="M25.1111 34V31.7778H27.3333V34H25.1111ZM22.8889 31.7778V26.2222H25.1111V31.7778H22.8889ZM31.7778 28.4444V24H34V28.4444H31.7778ZM29.5556 24V21.7778H31.7778V24H29.5556ZM16.2222 26.2222V24H18.4444V26.2222H16.2222ZM14 24V21.7778H16.2222V24H14ZM24 16.2222V14H26.2222V16.2222H24ZM15.3889 19.2778H19.2778V15.3889H15.3889V19.2778ZM14 20.6667V14H20.6667V20.6667H14ZM15.3889 32.6111H19.2778V28.7222H15.3889V32.6111ZM14 34V27.3333H20.6667V34H14ZM28.7222 19.2778H32.6111V15.3889H28.7222V19.2778ZM27.3333 20.6667V14H34V20.6667H27.3333ZM29.5556 34V30.6667H27.3333V28.4444H31.7778V31.7778H34V34H29.5556ZM25.1111 26.2222V24H29.5556V26.2222H25.1111ZM20.6667 26.2222V24H18.4444V21.7778H25.1111V24H22.8889V26.2222H20.6667ZM21.7778 20.6667V16.2222H24V18.4444H26.2222V20.6667H21.7778ZM16.5 18.1667V16.5H18.1667V18.1667H16.5ZM16.5 31.5V29.8333H18.1667V31.5H16.5ZM29.8333 18.1667V16.5H31.5V18.1667H29.8333Z" fill="#4A5468"/>
</g>
<defs>
</defs>
</svg>
