<svg viewBox="0 0 24 24" fill="none" xmlns="http://www.w3.org/2000/svg">
<path d="M13.1111 22V19.7778H15.3333V22H13.1111ZM10.8889 19.7778V14.2222H13.1111V19.7778H10.8889ZM19.7778 16.4444V12H22V16.4444H19.7778ZM17.5556 12V9.77778H19.7778V12H17.5556ZM4.22222 14.2222V12H6.44444V14.2222H4.22222ZM2 12V9.77778H4.22222V12H2ZM12 4.22222V2H14.2222V4.22222H12ZM3.38889 7.27778H7.27778V3.38889H3.38889V7.27778ZM2 8.66667V2H8.66667V8.66667H2ZM3.38889 20.6111H7.27778V16.7222H3.38889V20.6111ZM2 22V15.3333H8.66667V22H2ZM16.7222 7.27778H20.6111V3.38889H16.7222V7.27778ZM15.3333 8.66667V2H22V8.66667H15.3333ZM17.5556 22V18.6667H15.3333V16.4444H19.7778V19.7778H22V22H17.5556ZM13.1111 14.2222V12H17.5556V14.2222H13.1111ZM8.66667 14.2222V12H6.44444V9.77778H13.1111V12H10.8889V14.2222H8.66667ZM9.77778 8.66667V4.22222H12V6.44444H14.2222V8.66667H9.77778ZM4.5 6.16667V4.5H6.16667V6.16667H4.5ZM4.5 19.5V17.8333H6.16667V19.5H4.5ZM17.8333 6.16667V4.5H19.5V6.16667H17.8333Z" fill="#666666"/>
</svg>
