<svg xmlns="http://www.w3.org/2000/svg" viewBox="0 0 400 389.79"><defs><style>.cls-1{fill:#616262;}</style></defs><g id="Layer_2" data-name="Layer 2"><g id="Layer_1-2" data-name="Layer 1"><g id="quote"><path class="cls-1" d="M290.41,149.07h-181a10,10,0,1,1,0-20h181a10,10,0,1,1,0,20Z"/><path class="cls-1" d="M290.41,188.68h-181a10,10,0,1,1,0-20h181a10,10,0,1,1,0,20Z"/><path class="cls-1" d="M290.41,228.23h-181a10,10,0,1,1,0-20h181a10,10,0,1,1,0,20Z"/><path class="cls-1" d="M290.41,267.79H154a10,10,0,1,1,0-20H290.41a10,10,0,0,1,0,20Z"/><path class="cls-1" d="M61.79,112.38h40.13a11.64,11.64,0,0,0,11.64-11.64V64.86a11.64,11.64,0,0,0-11.64-11.64H88.43c2-15,10.31-15.83,14.15-16.18a7.38,7.38,0,0,0,6.79-7.39V7.41A7.43,7.43,0,0,0,101.92,0h-.35C78.06,1.33,50.08,13.18,50.08,62V100.8a11.64,11.64,0,0,0,11.64,11.63ZM64.92,62c0-34.14,15.18-43.64,29.57-46.5v7.75c-9.92,3-21.34,12-21.34,37.05a7.37,7.37,0,0,0,7.32,7.4H98.74v29.6H64.92Z"/><path class="cls-1" d="M137.61,112.38h40.1a11.64,11.64,0,0,0,11.64-11.64V64.86a11.64,11.64,0,0,0-11.64-11.64H164.23c2-15,10.35-15.82,14.18-16.17a7.4,7.4,0,0,0,6.79-7.39V7.41A7.43,7.43,0,0,0,177.77,0h-.33c-23.56,1.32-51.5,13.17-51.5,62v38.79a11.64,11.64,0,0,0,11.64,11.63h0ZM140.8,62c0-34.14,15.19-43.64,29.56-46.5v7.75c-10,3-21.34,12-21.34,37.05a7.42,7.42,0,0,0,7.36,7.4h18.25v29.6H140.8Z"/><path class="cls-1" d="M283.49,389.79h-.14a17.11,17.11,0,0,1-11.93-5.11L218.14,331.6H141.68a142,142,0,0,1-69-18C4.42,275.59-20.14,189.09,17.92,120.84a10,10,0,0,1,17.46,9.74,121.73,121.73,0,0,0,106.3,181h84.69l4.06,4,50.44,50.26v-56.2L291,306.84a121.73,121.73,0,0,0-32.72-239H210.9a10,10,0,0,1,0-20h47.4a142,142,0,0,1,69.57,18.25c68.08,38.36,92.27,125,53.91,193.05a141.88,141.88,0,0,1-80.91,65.61v47.66a17.22,17.22,0,0,1-10.69,16l-.11,0a17.71,17.71,0,0,1-6.43,1.28Zm-2.62-17.32v0Zm4.77-1.84h0Z"/></g></g></g></svg>