<svg xmlns="http://www.w3.org/2000/svg" viewBox="0 0 100 100"><defs><style>.cls-1{fill:#231f20;}</style></defs><g id="quote"><g id="quote_fill"><path class="cls-1" d="M39,15.26v8.63H29.12V13.54c0-10,4.44-12.75,8.63-13.54V2.28c-2.89.89-6.23,3.49-6.23,10.81a2.17,2.17,0,0,0,2.16,2.17Z"/><path class="cls-1" d="M20.46,15.26v8.63H10.59V13.54C10.59,3.57,15,.79,19.22,0V2.28C16.31,3.17,13,5.77,13,13.09a2.17,2.17,0,0,0,2.17,2.17Z"/><path class="cls-1" d="M66.94,17.71H43.33V24.8a3.42,3.42,0,0,1-3.41,3.42H28.21a3.42,3.42,0,0,1-3.42-3.42,3.42,3.42,0,0,1-3.41,3.42H9.66a3.91,3.91,0,0,1-.48,0C3.21,33.26,0,41.7,0,50.76A33.09,33.09,0,0,0,33.05,83.82H57.41a3.3,3.3,0,0,1,2.3,1L71.16,96.22v-9.9a3.31,3.31,0,0,1,2.6-3.22,33,33,0,0,0-6.82-65.39Zm9.71,56.23H35.93a3.28,3.28,0,0,1,0-6.55H76.65a3.28,3.28,0,1,1,0,6.55Zm0-11.56H23.34a3.27,3.27,0,1,1,0-6.54H76.65a3.27,3.27,0,1,1,0,6.54Zm0-11.54H23.34a3.28,3.28,0,0,1,0-6.55H76.65a3.28,3.28,0,1,1,0,6.55Zm0-11.55H23.34a3.28,3.28,0,0,1,0-6.55H76.65a3.28,3.28,0,1,1,0,6.55Z"/></g></g></svg>