<svg xmlns="http://www.w3.org/2000/svg" viewBox="0 0 100 100"><defs><style>.cls-1{fill:#231f20;}</style></defs><g id="quote"><g id="quote_lineal"><path class="cls-1" d="M14.34,29H24.7a3,3,0,0,0,3-3V16.73a3,3,0,0,0-3-3H21.21c.53-3.88,2.67-4.08,3.66-4.17a1.91,1.91,0,0,0,1.74-1.91V1.91a1.92,1.92,0,0,0-2-1.91C18.54.34,11.32,3.4,11.32,16V26A3,3,0,0,0,14.34,29Zm.81-13c0-8.81,3.92-11.27,7.63-12v2c-2.56.78-5.51,3.09-5.51,9.56a1.9,1.9,0,0,0,1.91,1.91h4.7v7.64H15.15Z"/><path class="cls-1" d="M33.91,29H44.27a3,3,0,0,0,3-3V16.73a3,3,0,0,0-3-3H40.79c.52-3.88,2.67-4.08,3.66-4.17a1.91,1.91,0,0,0,1.74-1.91V1.91a1.92,1.92,0,0,0-2-1.91C38.11.34,30.9,3.4,30.9,16V26A3,3,0,0,0,33.91,29Zm.82-13c0-8.81,3.92-11.27,7.63-12v2c-2.57.78-5.52,3.09-5.52,9.56a1.91,1.91,0,0,0,1.92,1.91h4.7v7.64H34.73Z"/><path class="cls-1" d="M65,13.93H53a2.9,2.9,0,1,0,0,5.79H65a29.22,29.22,0,0,1,6,57.82,2.9,2.9,0,0,0-2.3,2.83v8.76L58.6,79a2.92,2.92,0,0,0-2.05-.85H35A29.22,29.22,0,0,1,9.46,34.76a2.91,2.91,0,0,0,.25-2.2,2.86,2.86,0,0,0-1.38-1.74A2.9,2.9,0,0,0,4.4,31.94,35,35,0,0,0,35,84H55.35L69.57,98.17a2.88,2.88,0,0,0,2,.85,3,3,0,0,0,1.11-.22,2.89,2.89,0,0,0,1.79-2.68V82.64A35,35,0,0,0,65,13.93Z"/><path class="cls-1" d="M73.56,33H26.44a2.9,2.9,0,0,0,0,5.8H73.56a2.9,2.9,0,0,0,0-5.8Z"/><path class="cls-1" d="M73.56,43.22H26.44a2.9,2.9,0,1,0,0,5.79H73.56a2.9,2.9,0,1,0,0-5.79Z"/><path class="cls-1" d="M73.56,53.43H26.44a2.9,2.9,0,1,0,0,5.79H73.56a2.9,2.9,0,1,0,0-5.79Z"/><path class="cls-1" d="M73.56,63.64h-36a2.9,2.9,0,0,0,0,5.79h36a2.9,2.9,0,1,0,0-5.79Z"/></g></g></svg>