<svg xmlns="http://www.w3.org/2000/svg" viewBox="0 0 200 172.63"><defs><style>.cls-1{fill:#231f20;}</style></defs><g id="Layer_2" data-name="Layer 2"><g id="Capa_1" data-name="Capa 1"><path class="cls-1" d="M196.29,61.43A86.23,86.23,0,0,0,78.07,7.77a86.09,86.09,0,0,0-47.9,57L17.67,46.43a4.39,4.39,0,0,0-6.1-1.15l-9.66,6.6A4.33,4.33,0,0,0,.08,54.69,4.38,4.38,0,0,0,.76,58l29.7,43.47A4.4,4.4,0,0,0,35.89,103a4.09,4.09,0,0,0,.67-.38L80,72.89a4.39,4.39,0,0,0,1.15-6.1l-6.6-9.66A4.39,4.39,0,0,0,68.47,56L50.36,68.36a66.43,66.43,0,0,1,5.36-13.18,65.8,65.8,0,0,1,115.94,62.26,65,65,0,0,1-30.73,28.78,66,66,0,0,1-8.26,3.1A65.84,65.84,0,0,1,59.1,123.08,4.38,4.38,0,0,0,53,121.89l-9.71,6.52a4.39,4.39,0,0,0-1.19,6.09,86.31,86.31,0,0,0,96.46,34.42,88.91,88.91,0,0,0,10.82-4,86.31,86.31,0,0,0,46.9-103.44Z"/></g></g></svg>