<svg xmlns="http://www.w3.org/2000/svg" viewBox="0 0 100 100"><g id="reviews"><g id="reviews_fill"><path d="M93.18,0H6.81A6.82,6.82,0,0,0,0,6.82v46a6.82,6.82,0,0,0,6.81,6.81H38.58l9,10.77a2.91,2.91,0,0,0,2.24,1h.05a2.88,2.88,0,0,0,2.25-1.1l8.45-10.71H93.18A6.83,6.83,0,0,0,100,52.78v-46A6.83,6.83,0,0,0,93.18,0Zm-59,26.91-3.79,4.57-.37.45,0,.58.37,5.92a1.3,1.3,0,0,1,0,.42h-.07a12.5,12.5,0,0,1-3.79-1.29,8.16,8.16,0,0,0-2.85-1,8,8,0,0,0-2.9,1A12.52,12.52,0,0,1,17,38.86H17a1.37,1.37,0,0,1,0-.43l.37-5.92,0-.58L17,31.48l-3.79-4.57a.46.46,0,0,1-.08-.45.45.45,0,0,1,.33-.31l5.75-1.48.56-.14.32-.49,3.17-5a.48.48,0,0,1,.4-.2.48.48,0,0,1,.41.2l3.17,5,.32.49.56.14,5.75,1.48a.46.46,0,0,1,.31.31A.48.48,0,0,1,34.14,26.91Zm26.12,0-3.79,4.57-.37.45,0,.58.38,5.92a2.42,2.42,0,0,1,0,.42h-.07a12.5,12.5,0,0,1-3.79-1.29,8.16,8.16,0,0,0-2.85-1,8,8,0,0,0-2.9,1,12.62,12.62,0,0,1-3.73,1.28H43.1a2.55,2.55,0,0,1,0-.43l.38-5.92,0-.58-.37-.45-3.79-4.57a.49.49,0,0,1-.09-.45.46.46,0,0,1,.34-.31l5.75-1.48.56-.14.31-.49,3.18-5a.48.48,0,0,1,.4-.2.47.47,0,0,1,.4.2l3.18,5,.31.49.57.14L60,26.15a.45.45,0,0,1,.33.31A.49.49,0,0,1,60.26,26.91Zm26.11,0-3.78,4.57-.38.45,0,.58.38,5.92a2.42,2.42,0,0,1,0,.42h-.08a12.68,12.68,0,0,1-3.79-1.29,8.19,8.19,0,0,0-2.84-1,7.91,7.91,0,0,0-2.91,1,12.71,12.71,0,0,1-3.72,1.27h-.06a2.55,2.55,0,0,1,0-.43l.38-5.92,0-.58-.38-.45-3.78-4.57a.47.47,0,0,1-.07-.44.48.48,0,0,1,.32-.32l5.75-1.48.56-.14.31-.49,3.18-5a.5.5,0,0,1,.8,0l3.18,5,.31.49.57.14,5.74,1.48a.47.47,0,0,1,.25.76Z"/></g></g></svg>