<svg id="Layer_1" data-name="Layer 1" xmlns="http://www.w3.org/2000/svg" viewBox="0 0 100 100"><defs><style>.cls-1{fill:#231f20;}</style></defs><g id="reviews"><g id="reviews_lineal" data-name="reviews lineal"><path class="cls-1" d="M93.19,28.56H6.81A6.82,6.82,0,0,0,0,35.37v46a6.83,6.83,0,0,0,6.81,6.82H38.58l9,10.76a2.92,2.92,0,0,0,2.25,1h0a2.9,2.9,0,0,0,2.25-1.11l8.45-10.7H93.19A6.83,6.83,0,0,0,100,81.34h0v-46A6.83,6.83,0,0,0,93.19,28.56Zm1,6.81v46a1,1,0,0,1-1,1h-34a3,3,0,0,0-2.3,1.11l-7.1,9L42.2,83.35A2.9,2.9,0,0,0,40,82.29H6.81a1,1,0,0,1-1-1v-46a1,1,0,0,1,1-1H93.19a1,1,0,0,1,1,1v0Z"/><path d="M20.77,66.14a7.89,7.89,0,0,1,2.9-1,8.09,8.09,0,0,1,2.85,1,12.78,12.78,0,0,0,3.79,1.29h.08a2.94,2.94,0,0,0,0-.42L30,61.07v-.58l.37-.45,3.79-4.57a.52.52,0,0,0-.15-.72l-.1,0-5.75-1.47-.56-.14-.31-.5-3.18-5a.48.48,0,0,0-.4-.2.46.46,0,0,0-.4.2l-3.18,5-.31.5-.57.14L13.5,54.7a.46.46,0,0,0-.33.32.49.49,0,0,0,.08.45L17,60l.37.45v.58L17,67a3.09,3.09,0,0,0,0,.43h.06A12.47,12.47,0,0,0,20.77,66.14Z"/><path d="M52.64,66.12a12.78,12.78,0,0,0,3.79,1.29h.07a1.48,1.48,0,0,0,0-.42l-.37-5.92v-.58L56.5,60l3.79-4.57a.49.49,0,0,0-.09-.69A.8.8,0,0,0,60,54.7l-5.75-1.47-.56-.14-.32-.5-3.17-5a.47.47,0,0,0-.41-.2.44.44,0,0,0-.39.2l-3.18,5-.31.5-.57.14L39.6,54.7a.45.45,0,0,0-.33.32.49.49,0,0,0,.08.45L43.14,60l.37.45v.58L43.14,67a1.55,1.55,0,0,0,0,.43h0a12.69,12.69,0,0,0,3.73-1.28,7.89,7.89,0,0,1,2.9-1A8.15,8.15,0,0,1,52.64,66.12Z"/><path d="M82.63,67l-.38-5.92v-.58l.37-.45,3.79-4.57a.5.5,0,0,0,.08-.46.47.47,0,0,0-.33-.31l-5.75-1.47-.57-.14-.34-.53-3.18-5a.46.46,0,0,0-.4-.2.48.48,0,0,0-.4.2l-3.17,5-.32.5-.56.14-5.75,1.47a.47.47,0,0,0-.31.32.48.48,0,0,0,.06.45L69.26,60l.37.45V61L69.26,67a1.55,1.55,0,0,0,0,.43h0A12.59,12.59,0,0,0,73,66.14a7.87,7.87,0,0,1,2.91-1,8.09,8.09,0,0,1,2.85,1,12.78,12.78,0,0,0,3.79,1.29h.07A2.16,2.16,0,0,0,82.63,67Z"/></g></g></svg>