<svg id="Capa_1" data-name="Capa 1" xmlns="http://www.w3.org/2000/svg" viewBox="0 0 400 400"><path d="M364.05,13.22A29.81,29.81,0,0,0,350.17,2.38,29.35,29.35,0,0,0,338.53,0H61.47A29.13,29.13,0,0,0,49.84,2.38,29.71,29.71,0,0,0,36,13.22,28,28,0,0,0,30.8,29.61V370.39A28,28,0,0,0,36,386.79a29.69,29.69,0,0,0,13.88,10.83A29.09,29.09,0,0,0,61.47,400a31.54,31.54,0,0,0,21.94-8.72L200,279.18l116.59,112.1a31.48,31.48,0,0,0,21.94,8.45,30.77,30.77,0,0,0,25.52-13,28.08,28.08,0,0,0,5.15-16.39V29.61A28.1,28.1,0,0,0,364.05,13.22Zm-28.69,349L223.53,254.85,200,232.39l-23.53,22.46L64.64,362.19V33.84H335.36V362.19Z"/></svg>