<svg xmlns="http://www.w3.org/2000/svg" viewBox="0 0 100 100"><defs><style>.cls-1{fill:#231f20;}</style></defs><g id="Layer_2" data-name="Layer 2"><g id="Layer_1-2" data-name="Layer 1"><g id="event_calendar" data-name="event calendar"><path class="cls-1" d="M38.67,97.27A2.73,2.73,0,0,0,41.4,100H58.6a2.73,2.73,0,0,0,2.73-2.73V91.93a42.57,42.57,0,0,0,10.3-4.26L75.4,91.4a2.7,2.7,0,0,0,3.82.08l.08-.08L91.43,79.27a2.75,2.75,0,0,0,0-3.9l-3.76-3.74A44.94,44.94,0,0,0,92,61.3h5.3A2.73,2.73,0,0,0,100,58.57V41.4a2.77,2.77,0,0,0-2.73-2.77H91.93a42.91,42.91,0,0,0-4.26-10.3L91.4,24.6a2.7,2.7,0,0,0,.08-3.82l-.08-.08L79.27,8.57a2.75,2.75,0,0,0-3.9,0L71.63,12.3A42.6,42.6,0,0,0,61.33,8V2.73A2.73,2.73,0,0,0,58.6,0H41.4a2.73,2.73,0,0,0-2.73,2.73V8a42.6,42.6,0,0,0-10.3,4.27L24.63,8.57a2.75,2.75,0,0,0-3.9,0L8.6,20.7a2.7,2.7,0,0,0-.08,3.82.6.6,0,0,0,.08.08l3.73,3.73A44.72,44.72,0,0,0,8,38.63H2.77A2.77,2.77,0,0,0,0,41.4H0V58.57A2.74,2.74,0,0,0,.8,60.5a2.57,2.57,0,0,0,1.93.8H8a44.94,44.94,0,0,0,4.3,10.33L8.57,75.37a2.75,2.75,0,0,0,0,3.9L20.7,91.4a2.75,2.75,0,0,0,1.93.83h0a2.78,2.78,0,0,0,1.94-.83l3.76-3.73a42.91,42.91,0,0,0,10.3,4.26Zm-9.24-15.4a2.75,2.75,0,0,0-3.33.36l-3.33,3.34L14.4,77.33,17.73,74a2.76,2.76,0,0,0,.37-3.33,37.23,37.23,0,0,1-5.2-12.54,2.77,2.77,0,0,0-2.7-2.2H5.5V44.27h4.7a2.76,2.76,0,0,0,2.7-2.17,37.8,37.8,0,0,1,5.2-12.57,2.76,2.76,0,0,0-.37-3.33L14.4,22.87l8.27-8.27L26,17.93a2.73,2.73,0,0,0,3.33.37A37.8,37.8,0,0,1,41.9,13.1a2.75,2.75,0,0,0,2.17-2.67V5.5H55.73v4.7a2.75,2.75,0,0,0,2.17,2.67,37.88,37.88,0,0,1,12.57,5.2,2.73,2.73,0,0,0,3.33-.37l3.33-3.33,8.27,8.26L82.07,26a2.73,2.73,0,0,0-.37,3.33,37.8,37.8,0,0,1,5.2,12.57A2.76,2.76,0,0,0,89.6,44h4.7V55.7H89.8a2.76,2.76,0,0,0-2.7,2.2,37.1,37.1,0,0,1-5.2,12.53,2.75,2.75,0,0,0,.37,3.34L85.6,77.1l-8.27,8.5L74,82.27a2.76,2.76,0,0,0-3.33-.37A37.38,37.38,0,0,1,58.1,87.1a2.76,2.76,0,0,0-2.17,2.7v4.73H44.27V89.77a2.76,2.76,0,0,0-2.17-2.7A36.92,36.92,0,0,1,29.43,81.87Z"/><path class="cls-1" d="M50,33.3A16.7,16.7,0,1,1,33.3,50,16.72,16.72,0,0,1,50,33.3m0-6A22.7,22.7,0,1,0,72.7,50,22.7,22.7,0,0,0,50,27.3Z"/></g></g></g></svg>