<svg xmlns="http://www.w3.org/2000/svg" viewBox="0 0 400 400"><defs><style>.cls-1{fill:#616262;}</style></defs><g id="Layer_2" data-name="Layer 2"><g id="Layer_1-2" data-name="Layer 1"><g id="share_circle" data-name="share circle"><path class="cls-1" d="M200,20A180,180,0,0,1,327.28,327.28,180,180,0,0,1,72.72,72.72,178.82,178.82,0,0,1,200,20m0-20C89.54,0,0,89.54,0,200S89.54,400,200,400s200-89.54,200-200S310.46,0,200,0Z"/><path class="cls-1" d="M249.28,240.26a33.7,33.7,0,0,0-26.37,12.68l-60.59-30.51a33.91,33.91,0,0,0-.75-19.68l63-38a33.77,33.77,0,1,0-7.24-12l-63,38A33.79,33.79,0,1,0,156,234.93l60.6,30.51a33.79,33.79,0,1,0,32.67-25.18Zm0-118.36a19.79,19.79,0,1,1-19.79,19.79A19.82,19.82,0,0,1,249.28,121.9ZM129.64,233.61a19.79,19.79,0,1,1,19.79-19.79A19.82,19.82,0,0,1,129.64,233.61Zm119.64,60.23a19.79,19.79,0,1,1,19.79-19.79A19.82,19.82,0,0,1,249.28,293.84Z"/></g></g></g></svg>