<svg xmlns="http://www.w3.org/2000/svg" viewBox="0 0 374.47 400"><defs><style>.cls-1{fill:#616262;}</style></defs><g id="Layer_2" data-name="Layer 2"><g id="Layer_1-2" data-name="Layer 1"><path id="share" class="cls-1" d="M307,265a67.38,67.38,0,0,0-55.11,28.55L131.64,233a67.62,67.62,0,0,0-1.79-47L255,110.56a67.34,67.34,0,1,0-10.35-17.14L119.5,168.9a67.53,67.53,0,1,0,3.12,82l120.21,60.51A67.51,67.51,0,1,0,307,265Zm0-245a47.49,47.49,0,1,1-47.48,47.49A47.54,47.54,0,0,1,307,20ZM67.51,259.44A47.48,47.48,0,1,1,115,212,47.54,47.54,0,0,1,67.51,259.44ZM307,380a47.49,47.49,0,1,1,47.49-47.49A47.54,47.54,0,0,1,307,380Z"/></g></g></svg>