<svg id="Layer_1" data-name="Layer 1" xmlns="http://www.w3.org/2000/svg" viewBox="0 0 400 400"><path d="M325,216.67H274.08l9.05-39.84a8.28,8.28,0,0,0-1.61-7,8.37,8.37,0,0,0-6.52-3.13H75a8.33,8.33,0,1,0,0,16.66H264.55l-9.5,41.8L226.68,350H182.49a41.67,41.67,0,0,0-81.65,0H75a8.34,8.34,0,0,0,0,16.67h25.84a41.67,41.67,0,0,0,81.65,0H284.17a41.67,41.67,0,0,0,81.66,0h13.34a8.31,8.31,0,0,0,8.18-6.8L400,291.67A75.09,75.09,0,0,0,325,216.67ZM141.67,383.33a25,25,0,1,1,25-25A25,25,0,0,1,141.67,383.33Zm183.33,0a25,25,0,1,1,25-25A25,25,0,0,1,325,383.33ZM372.25,350h-6.42a41.67,41.67,0,0,0-81.66,0H243.78l26.51-116.67H325c32.17,0,58.33,26.17,58.48,56.8Z"/><path d="M41.67,216.67h66.66a8.34,8.34,0,1,0,0-16.67H41.67a8.34,8.34,0,1,0,0,16.67Z"/><path d="M25,266.67h83.33a8.34,8.34,0,1,0,0-16.67H25a8.34,8.34,0,0,0,0,16.67Z"/><path d="M116.67,308.33a8.34,8.34,0,0,0-8.34-8.33H8.33a8.34,8.34,0,0,0,0,16.67h100A8.35,8.35,0,0,0,116.67,308.33Z"/></svg>