<svg xmlns="http://www.w3.org/2000/svg" viewBox="0 0 100 100"><defs><style>.cls-1{fill:#231f20;}</style></defs><g id="shopping_cart_di" data-name="shopping cart di"><g id="shopping_cart-2" data-name="shopping_cart"><path class="cls-1" d="M99.1,29.4a3.13,3.13,0,0,0-2.32-1H83.42V21.68C83.42,9.73,74.39,0,63.3,0H36.78C25.68,0,16.66,9.73,16.66,21.68v6.73H3.3A3.4,3.4,0,0,0,0,31.9V51a3.41,3.41,0,0,0,3.3,3.49H8.23L12.11,89c.72,6.27,5.66,11,11.49,11H76.39c5.92,0,10.87-4.73,11.5-11l3.88-34.51h4.92A3.41,3.41,0,0,0,100,51V31.92A3.38,3.38,0,0,0,99.1,29.4Zm-5.62,6V47.5H88.91a3.35,3.35,0,0,0-3.3,3L81.38,88.07a5.19,5.19,0,0,1-5,4.86H23.6a5.2,5.2,0,0,1-5-4.85L14.38,50.52a3.35,3.35,0,0,0-3.29-3H6.52V35.39h87ZM23.26,28.32V21.59c0-8.11,6.06-14.7,13.52-14.7h26.6c7.46,0,13.52,6.59,13.52,14.7v6.73Z"/><path class="cls-1" d="M32.22,79.57a3.32,3.32,0,0,0,3.3-3.49V52.16a3.35,3.35,0,0,0-3.3-3.4,3.4,3.4,0,0,0-3.3,3.49V76.08A3.4,3.4,0,0,0,32.22,79.57Z"/><path class="cls-1" d="M50,79.57a3.4,3.4,0,0,0,3.3-3.49V52.16a3.31,3.31,0,0,0-3.3-3.4,3.4,3.4,0,0,0-3.3,3.49V76.08A3.4,3.4,0,0,0,50,79.57Z"/><path class="cls-1" d="M67.94,79.57a3.32,3.32,0,0,0,3.3-3.49v-24a3.3,3.3,0,1,0-6.6.15V76.08A3.4,3.4,0,0,0,67.94,79.57Z"/></g></g></svg>