<svg id="Capa_1" data-name="Capa 1" xmlns="http://www.w3.org/2000/svg" viewBox="0 0 512 512"><path d="M255.15,469.48H63.79a21.27,21.27,0,0,1-21.26-21.27V65.49A21.26,21.26,0,0,1,63.79,44.23H255.15a21.27,21.27,0,0,0,0-42.53H63.79A63.87,63.87,0,0,0,0,65.49V448.21A63.87,63.87,0,0,0,63.79,512H255.15a21.26,21.26,0,1,0,0-42.52Z"/><path d="M505.66,241.71,376.39,114.14a21.26,21.26,0,1,0-29.85,30.28l92.38,91.17H191.36a21.26,21.26,0,0,0,0,42.52H438.92l-92.38,91.18a21.26,21.26,0,1,0,29.85,30.27L505.66,272a21.25,21.25,0,0,0,0-30.28Z"/></svg>