<svg viewBox="0 0 44 44" fill="none" xmlns="http://www.w3.org/2000/svg">
<g clip-path="url(#clip0_1330_24150)">
<path fill-rule="evenodd" clip-rule="evenodd" d="M22 44C34.1503 44 44 34.1503 44 22C44 9.84974 34.1503 0 22 0C9.84974 0 0 9.84974 0 22C0 34.1503 9.84974 44 22 44Z" fill="#00A9F0"/>
<path d="M31.8602 24.1521C32.0027 23.4643 32.0911 22.7323 32.0911 22.0003C32.0911 16.4243 27.5763 11.9144 22.0052 11.9144C21.2732 11.9144 20.5461 11.9979 19.8534 12.1453C18.92 11.4231 17.7606 10.9957 16.498 10.9957C13.4619 10.9957 10.9957 13.4619 10.9957 16.498C10.9957 17.7606 11.4231 18.92 12.1404 19.8485C11.9979 20.5363 11.9095 21.2683 11.9095 22.0003C11.9095 27.5763 16.4243 32.0862 21.9954 32.0862C22.7274 32.0862 23.4545 32.0027 24.1472 31.8553C25.0806 32.5725 26.24 32.9999 27.4977 32.9999C30.5337 32.9999 32.9999 30.5337 32.9999 27.4977C33.0049 26.24 32.5775 25.0806 31.8602 24.1521ZM22.3 28.6472C19.0772 28.6472 16.3801 27.2127 16.3801 25.454C16.3801 24.6679 16.8223 23.9507 17.8294 23.9507C19.3621 23.9507 19.5046 26.1565 22.1575 26.1565C23.4201 26.1565 24.2356 25.5964 24.2356 24.8644C24.2356 23.9457 23.4496 23.8033 22.1722 23.4889C19.1018 22.7323 16.385 22.4081 16.385 19.2049C16.385 16.2966 19.2639 15.2207 21.7448 15.2207C24.4518 15.2207 27.1882 16.2966 27.1882 17.9424C27.1882 18.7726 26.6281 19.5046 25.6996 19.5046C24.3093 19.5046 24.2651 17.8588 22.015 17.8588C20.7525 17.8588 19.9517 18.2027 19.9517 18.9642C19.9517 19.9369 20.9735 20.0352 23.3464 20.5854C25.3803 21.0423 27.8023 21.902 27.8023 24.3977C27.8023 27.3012 24.9971 28.6472 22.3 28.6472Z" fill="white"/>
</g>
<defs>
</defs>
</svg>
