<svg xmlns="http://www.w3.org/2000/svg" viewBox="0 0 100 100"><g id="ticket"><g id="ticket_fill"><path d="M97.8,33.18l-7.47-7.42a11.47,11.47,0,0,1-16.14,0,11,11,0,0,1-3.33-8.07,11,11,0,0,1,3.33-8.08L66.77,2.2A7.67,7.67,0,0,0,56,2.2L2.2,56a7.67,7.67,0,0,0,0,10.75l7.41,7.47a11,11,0,0,1,8.08-3.32,11,11,0,0,1,8.07,3.32,11.48,11.48,0,0,1,0,16.15l7.47,7.47A7.67,7.67,0,0,0,44,97.8L97.8,43.92a7.65,7.65,0,0,0,0-10.74ZM81.72,45,45,81.72a3.87,3.87,0,0,1-5.34,0L18.22,60.24a3.72,3.72,0,0,1,0-5.34L54.9,18.22a3.87,3.87,0,0,1,5.34,0L81.72,39.7a3.72,3.72,0,0,1,0,5.34Z"/><path d="M57.57,23.62,76.32,42.37,42.38,76.32,23.62,57.57Z"/></g></g></svg>