<svg xmlns="http://www.w3.org/2000/svg" viewBox="0 0 100 100"><g id="ticket"><g id="ticket_lineal"><path d="M96.47,31.19l-6.69-6.64L86,20.79l-3.78,3.78a4.89,4.89,0,0,1-6.83,0A4.51,4.51,0,0,1,74,21.15a4.49,4.49,0,0,1,1.4-3.42l3.79-3.79-3.79-3.79L68.76,3.53a12.2,12.2,0,0,0-17.17,0l-48.05,48a12.19,12.19,0,0,0,0,17.17l6.6,6.66,3.8,3.82,3.8-3.81A4.53,4.53,0,0,1,21.15,74a4.84,4.84,0,0,1,3.41,8.24L20.78,86l3.78,3.78,6.68,6.68a12.2,12.2,0,0,0,17.17,0L96.47,48.36a12.2,12.2,0,0,0,0-17.17ZM92.68,44.57,44.63,92.69a6.88,6.88,0,0,1-9.6,0L28.36,86a10.19,10.19,0,0,0-7.21-17.39,9.82,9.82,0,0,0-7.21,3L7.32,64.92a6.85,6.85,0,0,1,0-9.59l48.06-48a6.85,6.85,0,0,1,9.59,0L71.59,14a9.8,9.8,0,0,0-3,7.2A10.2,10.2,0,0,0,86,28.36L92.68,35a6.85,6.85,0,0,1,0,9.59Z"/><path d="M56.76,26.45,26.45,56.76,43.2,73.5,73.5,43.2ZM43.19,73.13,26.81,56.76l30-29.94L73.13,43.2Z"/><path d="M78.32,40.8,59.14,21.62a3.46,3.46,0,0,0-4.76,0L21.63,54.37a3.32,3.32,0,0,0,0,4.77L40.8,78.32a3.27,3.27,0,0,0,2.39,1,3.21,3.21,0,0,0,2.38-1L78.32,45.58a3.33,3.33,0,0,0,0-4.78ZM43.2,73.5,26.45,56.76,56.76,26.45,73.5,43.2Z"/><path d="M56.76,26.45,26.45,56.76,43.2,73.5,73.5,43.2ZM43.19,73.13,26.81,56.76l30-29.94L73.13,43.2Z"/></g></g></svg>