<svg width="20" height="20" viewBox="0 0 20 20" fill="none" xmlns="http://www.w3.org/2000/svg">
<path d="M18.6849 8.20169C16.9647 8.2058 15.2867 7.66934 13.888 6.66809V13.6511C13.8875 14.9444 13.4922 16.2068 12.7549 17.2694C12.0176 18.332 10.9735 19.1442 9.76217 19.5974C8.55083 20.0505 7.23001 20.1231 5.97632 19.8053C4.72264 19.4876 3.59584 18.7946 2.7466 17.8192C1.89736 16.8437 1.36616 15.6323 1.22402 14.3468C1.08189 13.0613 1.3356 11.763 1.95122 10.6256C2.56685 9.48819 3.51505 8.56583 4.66903 7.98185C5.82302 7.39788 7.12779 7.18013 8.40887 7.35772V10.8699C7.82264 10.6855 7.19314 10.6911 6.61026 10.8858C6.02738 11.0805 5.52093 11.4544 5.16323 11.9541C4.80554 12.4539 4.61488 13.0538 4.6185 13.6684C4.62212 14.2829 4.81983 14.8806 5.18339 15.376C5.54695 15.8715 6.05777 16.2394 6.6429 16.4272C7.22803 16.6151 7.85756 16.6132 8.44157 16.4219C9.02558 16.2306 9.53422 15.8597 9.89484 15.3621C10.2555 14.8645 10.4496 14.2657 10.4496 13.6511V0H13.888C13.8856 0.290363 13.9099 0.580329 13.9607 0.866235C14.0801 1.50447 14.3286 2.11163 14.6907 2.65057C15.0529 3.1895 15.5212 3.64889 16.0671 4.00062C16.8436 4.51407 17.754 4.78774 18.6849 4.78754V8.20169Z" fill="#70778B"/>
</svg>
