<svg id="Layer_1" data-name="Layer 1" xmlns="http://www.w3.org/2000/svg" viewBox="0 0 400 400"><defs><style>.cls-1{fill:#010101;}</style></defs><path class="cls-1" d="M255.27,144.92a9.37,9.37,0,0,0-9.37,9.37v177a9.37,9.37,0,1,0,18.74,0v-177A9.38,9.38,0,0,0,255.27,144.92Z"/><path class="cls-1" d="M144.73,144.92a9.38,9.38,0,0,0-9.37,9.37v177a9.37,9.37,0,0,0,18.74,0v-177A9.37,9.37,0,0,0,144.73,144.92Z"/><path class="cls-1" d="M64.17,119.08v230.8a51.69,51.69,0,0,0,13.74,35.65A46.11,46.11,0,0,0,111.38,400H288.62a46.09,46.09,0,0,0,33.47-14.47,51.69,51.69,0,0,0,13.74-35.65V119.08a35.78,35.78,0,0,0-9.18-70.37h-48V37a36.79,36.79,0,0,0-37.1-37H158.41a36.79,36.79,0,0,0-37.1,37V48.71h-48a35.78,35.78,0,0,0-9.18,70.37ZM288.62,381.26H111.38c-16,0-28.48-13.75-28.48-31.38v-230H317.1v230C317.1,367.51,304.64,381.26,288.62,381.26ZM140.05,37a18,18,0,0,1,18.36-18.26h83.18A18,18,0,0,1,260,37V48.71H140.05ZM73.35,67.45h253.3a16.86,16.86,0,1,1,0,33.72H73.35a16.86,16.86,0,1,1,0-33.72Z"/><path class="cls-1" d="M200,144.92a9.38,9.38,0,0,0-9.37,9.37v177a9.37,9.37,0,0,0,18.74,0v-177A9.38,9.38,0,0,0,200,144.92Z"/></svg>