<svg xmlns="http://www.w3.org/2000/svg" viewBox="0 0 100 100"><defs><style>.cls-1{fill:#231f20;}</style></defs><g id="socials"><g id="twitter"><path class="cls-1" d="M50,0a50,50,0,1,0,50,50A50,50,0,0,0,50,0Zm0,95A45,45,0,1,1,95,50,45.05,45.05,0,0,1,50,95Z"/><path class="cls-1" d="M80.63,35.93a23.7,23.7,0,0,1-6.87,1.88A12,12,0,0,0,79,31.2a23.81,23.81,0,0,1-7.59,2.9,12,12,0,0,0-20.68,8.18A12.13,12.13,0,0,0,51.06,45,33.88,33.88,0,0,1,26.43,32.52a12,12,0,0,0,3.7,15.95A12,12,0,0,1,24.71,47v.15A12,12,0,0,0,34.3,58.85a12.09,12.09,0,0,1-3.15.42,11.92,11.92,0,0,1-2.25-.22,12,12,0,0,0,11.17,8.3,24,24,0,0,1-14.85,5.12,24.5,24.5,0,0,1-2.85-.17,33.84,33.84,0,0,0,18.32,5.37c22,0,34-18.21,34-34,0-.51,0-1,0-1.54a24.23,24.23,0,0,0,6-6.19Z"/></g></g></svg>