<svg viewBox="0 0 24 24" fill="none" xmlns="http://www.w3.org/2000/svg">
<path d="M1.8 21C1.32 21 0.9 20.82 0.54 20.46C0.18 20.1 0 19.68 0 19.2V4.8C0 4.32 0.18 3.9 0.54 3.54C0.9 3.18 1.32 3 1.8 3C10.8997 3 11.9415 3 22.2 3C22.68 3 23.1 3.18 23.46 3.54C23.82 3.9 24 4.32 24 4.8V19.2C24 19.68 23.82 20.1 23.46 20.46C23.1 20.82 22.68 21 22.2 21H1.8ZM1.8 19.2H22.2V4.8C14.9647 4.8 9.32936 4.8 1.8 4.8V19.2ZM4.56 15.39H11.73V14.97C11.73 14.61 11.64 14.29 11.46 14.01C11.28 13.73 11.05 13.54 10.77 13.44C10.13 13.22 9.63 13.075 9.27 13.005C8.91 12.935 8.56 12.9 8.22 12.9C7.84 12.9 7.435 12.945 7.005 13.035C6.575 13.125 6.09 13.26 5.55 13.44C5.25 13.54 5.01 13.73 4.83 14.01C4.65 14.29 4.56 14.61 4.56 14.97V15.39ZM14.64 14.58H19.74V13.08H14.64V14.58ZM8.22 11.88C8.68 11.88 9.065 11.72 9.375 11.4C9.685 11.08 9.84 10.7 9.84 10.26C9.84 9.8 9.685 9.415 9.375 9.105C9.065 8.795 8.68 8.64 8.22 8.64C7.78 8.64 7.4 8.795 7.08 9.105C6.76 9.415 6.6 9.8 6.6 10.26C6.6 10.7 6.76 11.08 7.08 11.4C7.4 11.72 7.78 11.88 8.22 11.88ZM14.64 11.19H19.74V9.69H14.64V11.19Z" fill="#666666"/>
</svg>
