<svg viewBox="0 0 48 48" fill="none" xmlns="http://www.w3.org/2000/svg">
<g clip-path="url(#clip0_1245_14861)">
<path fill-rule="evenodd" clip-rule="evenodd" d="M24 46C36.1503 46 46 36.1503 46 24C46 11.8497 36.1503 2 24 2C11.8497 2 2 11.8497 2 24C2 36.1503 11.8497 46 24 46ZM24 48C37.2548 48 48 37.2548 48 24C48 10.7452 37.2548 0 24 0C10.7452 0 0 10.7452 0 24C0 37.2548 10.7452 48 24 48Z" fill="#666666"/>
<path d="M13.8 33C13.32 33 12.9 32.82 12.54 32.46C12.18 32.1 12 31.68 12 31.2V16.8C12 16.32 12.18 15.9 12.54 15.54C12.9 15.18 13.32 15 13.8 15C22.8997 15 23.9415 15 34.2 15C34.68 15 35.1 15.18 35.46 15.54C35.82 15.9 36 16.32 36 16.8V31.2C36 31.68 35.82 32.1 35.46 32.46C35.1 32.82 34.68 33 34.2 33H13.8ZM13.8 31.2H34.2V16.8C26.9647 16.8 21.3294 16.8 13.8 16.8V31.2ZM16.56 27.39H23.73V26.97C23.73 26.61 23.64 26.29 23.46 26.01C23.28 25.73 23.05 25.54 22.77 25.44C22.13 25.22 21.63 25.075 21.27 25.005C20.91 24.935 20.56 24.9 20.22 24.9C19.84 24.9 19.435 24.945 19.005 25.035C18.575 25.125 18.09 25.26 17.55 25.44C17.25 25.54 17.01 25.73 16.83 26.01C16.65 26.29 16.56 26.61 16.56 26.97V27.39ZM26.64 26.58H31.74V25.08H26.64V26.58ZM20.22 23.88C20.68 23.88 21.065 23.72 21.375 23.4C21.685 23.08 21.84 22.7 21.84 22.26C21.84 21.8 21.685 21.415 21.375 21.105C21.065 20.795 20.68 20.64 20.22 20.64C19.78 20.64 19.4 20.795 19.08 21.105C18.76 21.415 18.6 21.8 18.6 22.26C18.6 22.7 18.76 23.08 19.08 23.4C19.4 23.72 19.78 23.88 20.22 23.88ZM26.64 23.19H31.74V21.69H26.64V23.19Z" fill="#666666"/>
</g>
<defs>
</defs>
</svg>
