<svg xmlns="http://www.w3.org/2000/svg" viewBox="0 0 100 100"><defs><style>.cls-1{fill:#231f20;}</style></defs><g id="Layer_2" data-name="Layer 2"><g id="Layer_1-2" data-name="Layer 1"><g id="event_calendar" data-name="event calendar"><path class="cls-1" d="M50,0a50,50,0,1,0,50,50A50,50,0,0,0,50,0Zm0,95.83A45.83,45.83,0,1,1,95.83,50,45.83,45.83,0,0,1,50,95.83Z"/><path class="cls-1" d="M70,48.23,40.83,29.5a2,2,0,0,0-2.1,0,2.11,2.11,0,0,0-1.1,1.83V68.77a2.12,2.12,0,0,0,1.1,1.8,2.07,2.07,0,0,0,1,.26,1.85,1.85,0,0,0,1.1-.33L70,51.77a2.1,2.1,0,0,0,.63-2.91A2.22,2.22,0,0,0,70,48.23ZM41.8,64.9v-30L65.13,49.83Z"/></g></g></g></svg>