<svg xmlns="http://www.w3.org/2000/svg" viewBox="0 0 400 282.34"><defs><style>.cls-1{fill:#616262;}</style></defs><g id="Layer_2" data-name="Layer 2"><g id="Layer_1-2" data-name="Layer 1"><g id="eye"><path class="cls-1" d="M200.26,20c24.34,0,48.7,5.88,72.38,17.47,19.22,9.43,38,22.56,55.74,39C360.64,106.42,378,135.72,378.72,137l.08.13.07.13a7.74,7.74,0,0,1,.06,8l-.07.1-.22.35-.16.25a315.49,315.49,0,0,1-52.92,62.34c-17.63,15.88-36.13,28.5-55,37.51-23,11-46.68,16.59-70.36,16.59-23.95,0-47.93-5.72-71.27-17-19-9.18-37.65-22.06-55.46-38.28a312.51,312.51,0,0,1-52.24-61.78l-.12-.19,0-.07,0-.06,0,0a7.79,7.79,0,0,1,.05-7.9l.08-.12A308.31,308.31,0,0,1,71.7,76.54C89.6,60,108.42,46.86,127.63,37.47,151.36,25.88,175.8,20,200.26,20m0-20c-27.44,0-54.91,6.56-81.41,19.51C97.9,29.74,77.47,44,58.13,61.85A324,324,0,0,0,4,126.6a27.79,27.79,0,0,0,0,28.87l.09.14.09.14.17.27A332.47,332.47,0,0,0,60,221.84c19.25,17.52,39.5,31.48,60.22,41.5,26.08,12.61,53,19,80,19,26.69,0,53.26-6.24,79-18.55,20.57-9.84,40.65-23.52,59.76-40.73a335.27,335.27,0,0,0,56.35-66.38l.07-.11.23-.37.19-.28.14-.24a27.78,27.78,0,0,0,0-28.84c-2-3.41-20.56-34-54-65C322.73,44,302.34,29.76,281.44,19.52,255,6.57,227.71,0,200.26,0Z"/><path class="cls-1" d="M200.18,77.11a63.89,63.89,0,0,1,0,127.77H200a64,64,0,0,1-63.87-63.69v-.28A64,64,0,0,1,200,77.11h.18m-.19-20a83.87,83.87,0,0,0-83.87,83.77v.34A83.88,83.88,0,0,0,200,224.88h.24a83.89,83.89,0,0,0,0-167.77H200Z"/></g></g></g></svg>