<svg xmlns="http://www.w3.org/2000/svg" viewBox="0 0 400 400"><defs><style>.cls-1{fill:#616262;}</style></defs><g id="Layer_2" data-name="Layer 2"><g id="Layer_1-2" data-name="Layer 1"><g id="eye_circle" data-name="eye circle"><path class="cls-1" d="M200,20A180,180,0,0,1,327.28,327.28,180,180,0,0,1,72.72,72.72,178.82,178.82,0,0,1,200,20m0-20C89.54,0,0,89.54,0,200S89.54,400,200,400s200-89.54,200-200S310.46,0,200,0Z"/><g id="Layer_1-2-2" data-name="Layer 1-2-2"><path class="cls-1" d="M199.48,152.21a77.85,77.85,0,0,1,34.42,8.33,113.16,113.16,0,0,1,26.92,18.86,143.18,143.18,0,0,1,24.43,29.31l.06.09v0l-.05.08-.07.11a153.1,153.1,0,0,1-25.74,30.32,112.43,112.43,0,0,1-26.55,18.13,74.79,74.79,0,0,1-67.35-.2,113.62,113.62,0,0,1-26.77-18.49,152.37,152.37,0,0,1-25.43-30.06,150.06,150.06,0,0,1,24.55-29.3,113.73,113.73,0,0,1,27-18.88,78.3,78.3,0,0,1,34.56-8.33m0-14A92.38,92.38,0,0,0,158.77,148a128,128,0,0,0-30.36,21.17,161.43,161.43,0,0,0-27,32.38,13.87,13.87,0,0,0,0,14.43l0,.07,0,.07.08.14a166.55,166.55,0,0,0,27.82,32.91,127.61,127.61,0,0,0,30.11,20.75,88.79,88.79,0,0,0,79.48.22,126.26,126.26,0,0,0,29.88-20.36A167.49,167.49,0,0,0,297,216.55l0-.06.12-.18.09-.14.07-.12a13.87,13.87,0,0,0,0-14.42,157.87,157.87,0,0,0-27-32.5A126.72,126.72,0,0,0,240.06,148a91.66,91.66,0,0,0-40.58-9.76Z"/><path class="cls-1" d="M199.43,180.76a27.95,27.95,0,0,1,0,55.89h-.12a28,28,0,0,1-27.94-27.83v-.15a28,28,0,0,1,27.95-27.91h.08m0-14h-.11a42,42,0,0,0-41.94,41.89v.17a42,42,0,0,0,41.94,41.83h.12a41.95,41.95,0,0,0,0-83.89Z"/></g></g></g></g></svg>