<svg width="20" height="20" viewBox="0 0 20 20" fill="none" xmlns="http://www.w3.org/2000/svg">
<path d="M10 8.125V11.25" stroke="#605D62" stroke-width="1.66" stroke-linecap="round" stroke-linejoin="round"/>
<path d="M8.91814 3.12381L2.04499 14.9982C1.93501 15.1882 1.87701 15.4038 1.87683 15.6234C1.87665 15.8429 1.93429 16.0586 2.04396 16.2488C2.15362 16.439 2.31144 16.5969 2.50153 16.7068C2.69163 16.8166 2.9073 16.8744 3.12684 16.8744H16.8731C17.0927 16.8744 17.3083 16.8166 17.4984 16.7068C17.6885 16.5969 17.8463 16.439 17.956 16.2488C18.0657 16.0586 18.1233 15.8429 18.1231 15.6234C18.1229 15.4038 18.0649 15.1882 17.955 14.9982L11.0818 3.12381C10.972 2.93411 10.8143 2.77661 10.6244 2.66712C10.4345 2.55763 10.2192 2.5 9.99998 2.5C9.78079 2.5 9.56546 2.55763 9.37557 2.66712C9.18569 2.77661 9.02794 2.93411 8.91814 3.12381V3.12381Z" stroke="#605D62" stroke-width="1.66" stroke-linecap="round" stroke-linejoin="round"/>
<path d="M10 15C10.5178 15 10.9375 14.5803 10.9375 14.0625C10.9375 13.5447 10.5178 13.125 10 13.125C9.48223 13.125 9.0625 13.5447 9.0625 14.0625C9.0625 14.5803 9.48223 15 10 15Z" fill="#605D62"/>
</svg>
