<svg viewBox="0 0 44 44" fill="none" xmlns="http://www.w3.org/2000/svg">
<g clip-path="url(#clip0_1330_24133)">
<path fill-rule="evenodd" clip-rule="evenodd" d="M22 44C34.1503 44 44 34.1503 44 22C44 9.84974 34.1503 0 22 0C9.84974 0 0 9.84974 0 22C0 34.1503 9.84974 44 22 44Z" fill="#2D3648"/>
<path d="M30.4054 13.4876C28.1607 11.2376 25.1714 10.0001 21.9946 10.0001C15.4375 10.0001 10.1018 15.3358 10.1018 21.8929C10.1018 23.9876 10.6482 26.034 11.6875 27.8393L10 34.0001L16.3054 32.3447C18.0411 33.2929 19.9964 33.7911 21.9893 33.7911H21.9946C28.5464 33.7911 34 28.4554 34 21.8983C34 18.7215 32.65 15.7376 30.4054 13.4876ZM21.9946 31.7876C20.2161 31.7876 18.475 31.3108 16.9589 30.4108L16.6 30.1965L12.8607 31.1768L13.8571 27.5286L13.6214 27.1536C12.6304 25.5786 12.1107 23.7626 12.1107 21.8929C12.1107 16.4447 16.5464 12.009 22 12.009C24.6411 12.009 27.1214 13.0376 28.9857 14.9072C30.85 16.7768 31.9964 19.2572 31.9911 21.8983C31.9911 27.3518 27.4429 31.7876 21.9946 31.7876ZM27.4161 24.384C27.1214 24.234 25.6589 23.5161 25.3857 23.4197C25.1125 23.3179 24.9143 23.2697 24.7161 23.5697C24.5179 23.8697 23.95 24.534 23.7732 24.7376C23.6018 24.9358 23.425 24.9626 23.1304 24.8126C21.3839 23.9393 20.2375 23.2536 19.0857 21.2768C18.7804 20.7518 19.3911 20.7893 19.9589 19.6536C20.0554 19.4554 20.0071 19.284 19.9321 19.134C19.8571 18.984 19.2625 17.5215 19.0161 16.9268C18.775 16.3483 18.5286 16.4286 18.3464 16.4179C18.175 16.4072 17.9768 16.4072 17.7786 16.4072C17.5804 16.4072 17.2589 16.4822 16.9857 16.7768C16.7125 17.0768 15.9464 17.7947 15.9464 19.2572C15.9464 20.7197 17.0125 22.134 17.1571 22.3322C17.3071 22.5304 19.2518 25.5304 22.2357 26.8215C24.1214 27.6358 24.8607 27.7054 25.8036 27.5661C26.3768 27.4804 27.5607 26.8483 27.8071 26.1518C28.0536 25.4554 28.0536 24.8608 27.9786 24.7376C27.9089 24.6036 27.7107 24.5286 27.4161 24.384Z" fill="white"/>
</g>
<defs>
</defs>
</svg>
