<svg viewBox="0 0 44 44" fill="none" xmlns="http://www.w3.org/2000/svg">
<path d="M0 22C0 9.84974 9.84974 0 22 0C34.1503 0 44 9.84974 44 22C44 34.1503 34.1503 44 22 44C9.84974 44 0 34.1503 0 22Z" fill="#FF0000"/>
<path d="M32.2209 17.061C31.9756 16.1185 31.2526 15.3763 30.3347 15.1244C28.6712 14.6666 22 14.6666 22 14.6666C22 14.6666 15.3289 14.6666 13.6653 15.1244C12.7473 15.3763 12.0244 16.1185 11.7791 17.061C11.3334 18.7692 11.3334 22.3333 11.3334 22.3333C11.3334 22.3333 11.3334 25.8973 11.7791 27.6056C12.0244 28.5481 12.7473 29.2903 13.6653 29.5423C15.3289 30 22 30 22 30C22 30 28.6712 30 30.3347 29.5423C31.2526 29.2903 31.9756 28.5481 32.2209 27.6056C32.6667 25.8973 32.6667 22.3333 32.6667 22.3333C32.6667 22.3333 32.6667 18.7692 32.2209 17.061Z" fill="white"/>
<path d="M20 26V19.3334L25.3333 22.6668L20 26Z" fill="#FF0000"/>
</svg>
