<?xml version="1.0" encoding="utf-8"?>
<!-- Generator: Adobe Illustrator 19.0.0, SVG Export Plug-In . SVG Version: 6.00 Build 0)  -->
<svg version="1.1" id="Capa_1" xmlns="http://www.w3.org/2000/svg" xmlns:xlink="http://www.w3.org/1999/xlink" x="0px" y="0px"
	 viewBox="89.5 249 5 16" style="enable-background:new 89.5 249 5 16;" xml:space="preserve">
<path d="M92.6,259.1h-1.2c-0.5,0-0.8-0.3-0.9-0.8l-0.5-7.4c0-0.2,0.1-0.4,0.2-0.6c0.2-0.2,0.4-0.3,0.6-0.3h2.3
	c0.2,0,0.5,0.1,0.6,0.3c0.2,0.2,0.3,0.4,0.2,0.6l-0.5,7.4C93.5,258.7,93.1,259.1,92.6,259.1z M90.9,250.7
	C90.8,250.7,90.8,250.8,90.9,250.7C90.8,250.8,90.8,250.8,90.9,250.7l0.4,7.5c0,0,0,0.1,0.1,0.1h1.2c0,0,0.1,0,0.1-0.1l0.5-7.4
	c0,0,0-0.1,0-0.1c0,0,0,0-0.1,0H90.9z"/>
<path d="M92,264c-1,0-1.8-0.7-1.8-1.7c0-0.9,0.8-1.7,1.8-1.7s1.8,0.7,1.8,1.7C93.8,263.3,93,264,92,264L92,264z M92,261.4
	c-0.6,0-1,0.4-1,0.9s0.5,0.9,1,0.9s1-0.4,1-0.9S92.6,261.4,92,261.4L92,261.4z"/>
</svg>
