<svg xmlns="http://www.w3.org/2000/svg" viewBox="0 0 368.09 480"><defs><style>.cls-1{fill:#00c564;}.cls-2{fill:#00a963;}.cls-3{fill:#fff;}.cls-4{fill:#e5e5e5;}</style></defs><g id="Layer_2" data-name="Layer 2"><g id="Layer_1-2" data-name="Layer 1"><g id="Artboard_01" data-name="Artboard 01"><path class="cls-1" d="M184.05,0c-88,96-184,96-184,96V256s-8,160,184,224c192-64,184-224,184-224V96S272.05,96,184.05,0Z"/><path class="cls-2" d="M184.05,0V480c-192-64-184-224-184-224V96S96.05,96,184.05,0Z"/><circle class="cls-3" cx="184.05" cy="240" r="110.98"/><path class="cls-4" d="M184.05,129V351a111,111,0,0,1,0-222Z"/><path class="cls-1" d="M137.45,227.33,167.08,257l63.56-63.57,14.82,14.82L167.08,286.6l-44.45-44.45Z"/><polygon class="cls-2" points="184.05 240 184.05 269.63 167.08 286.6 122.64 242.15 137.45 227.33 167.08 256.97 184.05 240"/></g></g></g></svg>